<mxfile host="65bd71144e">
    <diagram id="S-GDTfAIzqxonj3rZFx7" name="Page-1">
        <mxGraphModel dx="858" dy="570" grid="1" gridSize="10" guides="1" tooltips="1" connect="1" arrows="1" fold="1" page="1" pageScale="1" pageWidth="850" pageHeight="1100" math="0" shadow="0">
            <root>
                <mxCell id="0"/>
                <mxCell id="1" parent="0"/>
                <mxCell id="5" value="" style="group" vertex="1" connectable="0" parent="1">
                    <mxGeometry x="80" y="100" width="175" height="312.5" as="geometry"/>
                </mxCell>
                <mxCell id="2" value="" style="rounded=0;whiteSpace=wrap;html=1;rotation=90;" vertex="1" parent="5">
                    <mxGeometry x="-47.5" y="90" width="270" height="175" as="geometry"/>
                </mxCell>
                <mxCell id="3" value="ECStack" style="text;strokeColor=none;fillColor=none;html=1;fontSize=24;fontStyle=1;verticalAlign=middle;align=center;" vertex="1" parent="5">
                    <mxGeometry x="37.5" width="100" height="40" as="geometry"/>
                </mxCell>
                <mxCell id="7" value="" style="group1" vertex="1" connectable="0" parent="5">
                    <mxGeometry x="22.5" y="130" width="130" height="170" as="geometry"/>
                </mxCell>
                <mxCell id="4" value="VO(variable object) : GO&lt;br&gt;&lt;br&gt;开始执行代码&lt;br&gt;var name = &quot;why&quot;" style="whiteSpace=wrap;html=1;aspect=fixed;" vertex="1" parent="7">
                    <mxGeometry y="40" width="130" height="130" as="geometry"/>
                </mxCell>
                <mxCell id="6" value="&lt;font style=&quot;font-size: 9px;&quot;&gt;GEC(global exection context)&lt;/font&gt;" style="text;strokeColor=none;fillColor=none;html=1;fontSize=24;fontStyle=1;verticalAlign=middle;align=center;" vertex="1" parent="7">
                    <mxGeometry x="15" width="100" height="40" as="geometry"/>
                </mxCell>
                <mxCell id="9" value="" style="shape=image;verticalLabelPosition=bottom;labelBackgroundColor=default;verticalAlign=top;aspect=fixed;imageAspect=0;image=data:image/png,iVBORw0KGgoAAAANSUhEUgAAAqYAAAKgCAYAAABJIr+CAAAAAXNSR0IArs4c6QAAIABJREFUeF7snQe43cSZ99/b7HvdK+7d4IqNMc303iEQQu+mhiRLCtnUZXf50pcksEkIoRcDAUJg6cUUU0yLbdwx7r3363br98zoSBpJI03RSEc69z3P922MjzTzzl/l/Py2KXvmtfebIfFPClNIrKE5G2Y4ljYXy6BizStxjZI+pBkydhMkvWAcHxVABXKvQBmU5X4N2gsoK87ay4o0b5hO2TEn+etRliyYZgMCssZhqQFp1hau/WaSOxGhU04nPAoVQAVKT4EWB68pkRoCaigqJ/YQJQSmCKS8K5Y4kGYYREsFGjMscWIvCRwYFUAF4imQEkPFM1Li7EzDb8IiI6CmB6iGwRSBNFUgzSglZRVCMyqXxM8BHoIKoAItXYGEuUtb3szCakKCIaAmD6gGwDQbMEqkyhp4GPeQZm2BRPOM5WxmUCLtFz6eiAqgAqiAjAIJMZjM1NxjMgmrhkVCQI26PeLlocYAUwTSxL2jGaOsrEBoxmTRfnnjiagAKoAKJK2AYR7TNjdzsGpQmCxBqsFlaV9r90Q9QNUAUwRS/9UqRc+oCQhFgDTwXOMQqAAqgApkUAETAJQJWDWxEOb6ZAVSDS8r5h2oBqiKYJoNKM0K8JQKkCKExnzm8HRUABVABVABMAFDRYNVE8YjoEY8BfJwqgCmxYXSYsOocQhlL19Ki4sLoCmZWVqvdxSttK4nrgYVIAoYhpiWIGpcyVID1riGRqFZgmPL3ENFnp48ODJmgiSYFg9Ki/W7niiI2pcmwcXFgdAEzZK6KWMflPsFxFYAB0AFUIGWokDxaSOW0nHMTxRW4xgmqUixwv4pLC2W51QCTIsDpcVgi7zCqC6EFkNjyec1+rDcGm5k9TgIKoAKoALyChSXQuTt9B2pa3YisKprjMLqiwGpKSwrRIFoz6kATNOH0rSZIxUYJZfG0MJyB6GG1q3wfOOhqAAqgAqgAkkqUCSi0Z3WGKzqGqB4LdKG1JSW5f+nR6gqEWBaulCaJxjVAdHUWTD1CRWf8iIcrnPdimAmTokKoAIxFDAGPDFsyNypKVOOznRGrpvOxBoXKy1ITWk5UnAaAqbpQmlaXJMKkBpYjCrUGJhS/LikMonYDJUjVHVUGRuPRQVQAVSgmAoYgau0F5AC/ahOYURH1Uk1dC9dQA2G9TlgWlpQmjiMGgQ2WZAyOCX/8Uh8Ao2nknOKrF5mZsNRUAFUABXIjwJGgCuN5SYMdbLDG9VLdlJNfZOG1ITN56zaC6c+MC0dKE0USA2CmwxcGZwusyAqo4PmM4ynoQKoACqACkgoYBTOJObjHpIwFckMb1QHmQk1tUoSUBM0O2S1LpwyYFoaUJoYkBqmQxGIGZ7OvRESGzh4r4nWqPks5ua0xO7F3CiAhqICpatAklCQB9WMwptowQlRkmhY42sUTSjSIQzpEhtX0yDt0yw4LYBp/qE0EQgwDHEyoGZ4SmPdAMLuM5k1ad+jBk9M5P4waB8OhQqgAqiASIG8wLBxoPMLYxjEZIYzviaZSUU3hO/7JO6PBMwUrKqMgOmUVKnUNHglAhyGjRTBm+HpjMOoyH7FZyeRwxO5DxKxFAdFBVABVCAZBZIAE9OWZh3wRCCWdfupx1G0CMWLang44eypgqlpADMKI4aNk4E5Y1MaG8i6X2RsF95ZBg8wep0N2oVDoQKoACqQNwVMQ0vc9WcV9GRgLKu25x1OUwNTk+xkFFQMGiYDdMamMzZQ8UDU6HWM+3ZM4vxUYxFJLADHRAVQgVAF5Lb9zq2AxQJYo7AnQ5cSV0hmmCzabRpQZXSQkFN4SCpgapChwBjMGDQqNSBN2Wbh3SM4wNi1imsIez7Cokk1cSxUABVIQ4EMQnAa4Jo12JMBs6zZnEc4TRxMTbGUMcgxZFDeYFTGXp33q7HrojM575wMgWfmtDGlMY6DCqACxvP4YkmaMXBNClqNQZ8MYQouiMwQWbLXJKDKrD3O/ZwLMDX2A28ASmUAz8A0RgqYZGyVuXmM6S8zmeiYjIBnpjQRaYbfowKoQFEUSArQlBeTIXA1pYkR6DNAWDJDZMVWU3Aqs2ble5Q5IVEwNQFoRgDAgCEiyDMwBcIouTENgKeReybOU4XnogKoACqQkgJGQK9I4GrEdlKFDgYWYIC2RENkx874eonWGuf2TwxM44KaEbiIaUQeYFRko8zNYUTrqIkQNh11TFwvmWuKx6ACqIA5BYwAhTlztEcyAoLxmSbSfhM2xr5eBqhLNEQ2bIx3MUVr1L1REwHTmDwYv8AppgEieIg1fKyTzVTQGwPRmMBpzA7du9/AeaJ7xcAUOAQqgArkTIHY0JGB9cYGxHjM4ygQ2w4THtUYBCY6Nfa9IppAcC/F1Tfm9FzrjINpTO6KB6UxJ4+CjFhDxzg5LvjEhj8N+Iw9p4GXclzdDJiAQ6ACqAAqkKgCsaHGgHVaYBMTWrXmZNYaS7cYJBZ1aiybyNpi2RXvgsSYOnkwjcFfpQekMcSIA1WxoFACQmONH/MlGEeXmFObPT3GvWHWEBwNFUAFhAqY/tUVTpjMAbHBJ4ZZUiAZg42kxg+xP5YumvdGKQKqphTJgmmc39pYsKM5sQhytIbVOileeD6edtFvmlhjS77ERNdBcpj0D9O81ukbijOiAqhA0RQw+Wud4iJiwZqknUKYzBuoalxr0Sna10E0cMQ1El6XyHMlL77gsNih/Li/z9rwE2NioyF7TTviAJm+ZuF3g/aYIUPGWZ+ZW5tU+Eu4gI1NhgOhAqgAKpCiAjHgw5SV2uAU5r2MdiVqmR0LtHSr/RWvTWIeVEU7bIHjaEbG0JzWub6xwDTu7742DGlOXGwg1YU1fZ2S9Yjqrkfr7WKfpHntY82Z0MkltJSEFMJhUYHiKRD3x7V4lnNmLsJi4kKrEI40ParCccOgWQdSFXVPBFAVbcgCnGqDaZwfVX3Q0vOAFRNIdeFNXyOzXlFd+5VeynFuJqWJ9A/OgYn6i8MzUQFUIBUFNBkhFdtcd5Um8SlYqQOtkUCpaXJqkKp44UsFUBWXHc9jGudHWh+41KG0WECqC3Na2kTIojOeru3cd1KcG0XhJRd2aJGnN7ACHAIVQAVQAb4Cuj/6xvQ0aEAWQDUVSFXUzDigKs5vwnuqM6WyxzTOj70OKOnmCYYBlrL9CifoQJ2eJvxXi9ZYdLMldeh3LFDQx8QLMeXpTJgcOobu9UrUKBwcFUAFqAK6oJJF+XTgINY6YkyoA6mR10vDm6pz7ZXsVtQn7HClOdkLqjh/3OdBdTolMI0DBVo/whoTGgNSciUk51cFOz0tzMGoqr10ZkktdF5mCQ6tY05huTFgXXtWPBEVQAVakgI6AJS0PqoQoWSPxuA68BWqawqQKm2vjhYh9kvPmRM4lQbTuPCgDGMaExqDUsm5VQBPef0UBosIo5IaiF5KhoYRTYNeSW2F8ERUABXImwLFBloNpuJLrDiQDoAVC1KlbVXVoIhwGve+k12qFJjGhQtlKFOc0BiQKngGZaFUfe1mYFTWPs9sirqz58Y4Vfk3QVlT5RnSPAE9s2mqjXOhAnIKaLjW5AZO/ai4MKFisCx4cMfUOFka/goTmoJUWU2l7dNZuylAVZxbdu1h943MdEIwjQscyhChOKExKJWcVwb41NdcJBiVXHMaAKqsmcrbUvnYbMBitjRRFhFPQAUyrUDcH1hzi8sOBCeliQyMBPRUPEkaAosAqdK2qa65ROE0Ekw1uMXngFP8gVeYMItAajlcFdbMOVTpfJ3CJRX7DKWWqq7J3AvfHknhmggmL/5azKuDI6ICqECyCpgFvuKCrIm1KPKXcsd2aRCMglQFmWU1kbZLUSAjxVHKcyoIxHm8IjsOPPPalNBfbUWGadFQKg0sBvJGZby2vosh/dZN9ZpLW8U7MD5sSl+zWHbiyagAKoAKqCsgCzvRI8eDBxWr49irxERKBwNIw2BUJwZJGWU0kLZHdZ0mvKfKc0oKYwpM4wCKuudQHjKMeEoVFieCQGm4Sds7qrJGefmd20t63SpvtjhtqwrzJGOX0iKMHlxq6zEqDg6GCmgqIAMQmkMX5TQz69GHjLBF69ilxEYKB0sDoQEvqmjdSraorDFlOBWtU/QwhHp6eR5TBaYJzKv8Q6owGQ8SFU5XanlkBEhjwqjIhjS8osrXM3hHiO5N7vfx59WaNv79bGZaHAUVQAVKWIG4P+impNG3Ix7EqsyrwGVKIX8VOOTaKyGBaJ0qNqhsQM/TLKm5yL0oWmfU/cq1lQVTJcjjzKQEEwqT5QpIMwijClKr5ch6yTjyXal0b5h665aoF9WwPDgcKoAK5EiBOBAQd5niuSVojWOEeFz3JGlQlT7QQLhfsGzR+pKCxjQBVbRG0b3H2uoUP6nAS9gE0vChMFksKI05j3+dkevzAam0FioFTJLrkTyMLk/FTleP8Ni/3niiW9b7fRpzqFmER6MCqAAqkE0F4gKDzKqi51CHVRWbpflT8kAVSAzYGbFUmTWpzC3rQU0LTmXWJ7qXbFvLnn41vPhJNIj9vRIoSFJTGkAqGyoXro/hNOGxthdPNp9SVi/JPFFZ+9KEUHWbZO9MPA4VQAVQAVRARQETgEHmMwmrsjZJsqd0yF8WFD32xfSe2tdKdu5UAFVaWNF1l7sTY4OpElTIQhYH2qROlTpIfm944doUgVQWhGW3/5RZrnANgfskSLjqY6CHM65mco8vHoUKoALFVEAWmIppo+m5466Zf76aV1XGBmmWkjxQBhSzDqixvKeSOon/USK+I7XBVPmHV4aiQsLaUqdKHWQIShXC9tmHUXMgqnxPiO/PVI7Iq92piIOToAKoQKoKyEBXqgZJTqZrd1xQlZlXmqkkD4yCVNPhfQp6IAnuEvanBadxAFULTJV/yDWhUeo0qYPyDaQyS5S/JmZAVH4+ybeawcOybBtZZtbtM3gpcChUIPcKyIBPMReZZft0bIsDqjLzSbCbkVB/3gDVJPyyz4PMNfE/P0pgqvWDKkNVHE+p1GkSB8l6LIVrkwzbS80nYbcFMNGvO6HN9PT4ICo3T/Kv5rTsSGue5BXDGVABVCDrCuj8cOusKa15RLap2qELqqJ5pADVcvuJlhTp0SxaeF/Gbt/SkoJTVe+pNJhq/ViLyKpwuf0wJzxNeIAhDymH68J0EAKphM0yMCrncfPCqOq1Uz1e+NRKHJDUnEmNK7Ek8SGS94R4IDwCFUAFjCsg8cNufE7JAUXQJTlM4LCkxo2yR3XO4PHR4CgzvvSlFhwYBnYq3lMViJMCSZHNGYRTIZhq/7BL/OhqVd4LxhUCog3DEvaxzsYoHSLnlJhH4hCJ8K8+jGpfY4W3n+k5TI8XuhSZi6OgQ9ihkk0VDMyEQ6ACqECYAmLfmCHtpEko3nwyUKYyg+nxeHOrzFE0SI24ftL5pxI3m6wWQkBVhFMKxzJ5rZr3sWhdkWCq/eMv8WNeLCiVXpNE6D4OkEpIRJ9Zsb2uoeJjrdeA7HEqLyz2WBPjmxjDY7+s4CGLRnDUvRvwPFQAFbAVkGCRaLE0QSAUxA2MJ4KMuFdfdnzvcfG9qBTORBdMA1BVQvvOfSM0RAIkcwSnXDCNBQUSAJBpKJUAUgp3YX1IRR5dCcIR66/mHRWPp//q0B1b97xQSyXuO+u65fNjXK98yoBWowKxFJCFnFiTJHCyiI+cKSUARsU8Xb10z5OxTTR2UbyoIbqn7T0VejkzBqcW/Afv7gCYxv4BFIGZTo/SiDFlQvdSa5JsAaUDpDLMJGUjo53oeNH3Mi8A3jGq46oeHwc804ROY+vSvRB4HiqACmReARFEmVyAFLwaAlfVdakeL6uLaFwVL2oYJPltiZRQEVBVc0+lbYwKwycBpzHvK78ODpga+aGVIDCThU4iKJVakySQ6nhJJeSQCKsXzzsqpR/z1Koe73ngJcQyDZ6x7JV9c+JxqAAqgApoKCCCLtUhkwZXVXtVj49ar2isVL2oinDKhU2JiyVcs0E4FXpirUWo3pKB4+01UTCN/QMtARU8sBOeFsNTKlwTh3KUC5xC7BOtS2gbvVzyQCo3nvieUR1H9Xhh/yuDoXZl28TyiI8QXXjxCHgEKoAK5FUBAz/MqksXwYnseFJIobg+VdtUjw9bW9Q4qoAq46EMlYUXoo6ARa7dMbc3jQRKRc+pFJwaAFSiQ9nfX3kvniNK8sc4LU+pFJAUyUsqZVvKQCpnk/UKUDk2CkLj3XAatsi+nSXvZdnh8DhUABVABaQVUAQ/mXFNwF4kGynYrGKLyrFZAFQVOKXspgKoEv9qiITxtD2nJuBUG0wVfsQzA6UKQMrz8DoPAGftUXKIgU7eO6oMiL6nVmyLe4LKsWEgGgdCleYPezsp3KcyL3qVY0SpJipj4bGoACqQLQWkPUhJmK0AhDrgJjI5lJUU7FKBT5Vj/baLzlX1okZ7ZDnKaYT2LbYLNBiNvCyZg9MYgKrnMVX4sc8ElCoCaSiUKoTuxVCVDoyK7bDuddnjCgcHHhAdAFWak/dIKtyHohct+z0CpYpaeCwqgArEUSAxwFWARJ79IqDjnsMfSFoe2TlljysGpKp4T2WuvQqglgqcqoGpIgiYgtIoUIiEG0UgVe1LGiZHNHAlD6Qi4BN973mYed5h6deMIvD6x1W837jsmmKDKAPmKiiLh6ICqECWFIjJgUpLkQEa4YAxDFYBQ653VWFu0Vyi73WgW8WLGjY/d4kafU9t+xMH1KRyTt0FCG9J51DpUL7ir64SlGoWOZmCUlUgtTyMQY3D7SkujEqDaNoQqnhPBbjVIHTGMiXWydLPKh6ICqACeVBAAbqCHj1zC4wNr4rrUAHEOLCqVtwk1lNktyyk8sZR8Z46UGYo/zQJ72kwu0AiAZa9BJL3lJzHVPGHt6hQquAlFYZsJXNJTQCpNDz6nrOw86TG861PJRwvNX4YwYvfFeEbGEicax8ifdtKH6gweZEPlb4+RbYTp0cF4igggoo4YxftXNkfb0Um4HoOZbad5LscpeRRuT6B5UjoEO6t1BNHDXr5c0gDqshDaQBQ8wqnYjBV/NFmYU94qoanVNZLKvphTtZLKr9NqMhO3tOvBaMxvKHSNgovuHc1wn8YRLz6hFMJD5B6r3IPktZDfwo8ExVABUpEARU4U16yCG70+IyaoexxlQBJOq7scYpAbBJSRTZ6v+fsXMRrFRV2LUyF9yOudag2hir2Td8r0WCq+OOetKfUBJQmC6TURUgfpyhbdcFGGUg1PKLStkneG7rwGTm85Nyil7z0WkUDKXyvq4fCFHgoKoAKGFZA+YfXwPwiOJKeIgp8NMFVWg9ZCJU4TtajahJQRSDtzhXTe2pNFHpJpdtLpQinSYb1w8FU8ce/aFAad297iyJDbwj5XFKxl1QHhJRh1LceUXheyibJe0EVupKCT6k1Sb/VrQNV16Y4PB6OCqACLUABaaBT0CIWwBqEVum1yUCoyBPM6hO5BnlgFEkuB7wxvacJA6ppz2lScMoHU0kQCfvB1gEOrcr7BKE0bA186In2kuqAkjKQMgbHhlHJ6y8Da6FDSc7hf1noaMl74cjYLnpRSX0vuhhSg+BBqAAqkCkFND2NqmuQhj3BwNrwGgJ9EmwpnwogglDR9xKQKgeVcldHPJYcnEYyaILeU628U8V/wCjdt7y0h0BVvgIw8H7cswSlOmH7MAdqFJBa5wQJRBWilGFU0jsqtEPimsuAHHcYibFNwqeMnXKvH4P7o0pPmM6BwvshHTNwFlRASgFtqJIavYgHGYRbJRDwLVlLX5UcSmY+KTtFIBoGyxKAasGgGS8qv8iJHVsOUCOXqwGoHrtC7rGsw6nXY6oAEbmFUsWwfRh0inJJVX78lYFUwjsqnF9wrWUALzCEyv2jcKz9vpGxSfgzk6AHU6i50Dg8ABVABfKqgBbgyS7WAMRKQWEcaPVBlBGvaoKQagJQxWPIwWmk9zTiy7Brmnc41QLTLEBpKMxF9bYMgSGdsL0JL2mqQBoTRHW9oaqwFgs+DUGnqs2yvy1pHJdn29PQB+coTQUShcKEJTNmewx4VYVWKZs1vKpCOxS9nR5JVM+VIevCvWHKexoJqHG8p3nwnDLrc8FU0oOVNJSG/rBK5JOGQk3GvKRKQBrHO2oaRiXuEVkwUgZQA9Apa5vs75Dp8WTnDR5nQBz9yfFMVCBjCsQgNIMrkYI3hfmMjKcojRAUI8AssDRFj6pwblXQZA3iQnO8EH8pek9Dr0FSOaeFcS0wlQAO6iHkeCNN5pSmCaVqXlJr9Ul5SbnrTghIo4vMfK8SEdhK3DdpAagpSJQbB0FQ4fcUD0UFWrgCYho0Ap0KPUKD0Kh2iYTQKGOLAqhGzpcCoKpcn2jvqRr8hvJfaJ6txPiK3tNiwKk0mLZcKI1uAyUHMgrFUQkAqTSMpgmiimwnq3PY61XufEWj1N7lztFytmgOjqehAqiAUQVUoCTexMkDrPJaxCbRJZsG1agouioohbdIYq6WpAdVVr9ihvaTyDtV1ZzeE5x7R+Y+ISeW/f3ld4W/xqUCpcXwkkpX6wuANNybzL98JmBUBqCEHlHh3eW+HGTm4734xecpGCH4ZRHPFe+nKa2zJZzdaZmC86ACoQoopPllWkVZoJFbRDQt6s6ldJ4AWGUAJHI+Nt8wqml82M5FCl5UUR6qGDLDr1ri3tMS9ZxqganwR43XOimkKMl4+N5IgRO50eKH7lWhlIdPpoDUI0tkzm00xJkAUVW4iz7eDHSq2iT3A2IdJXxeVAbDY1EBVKCoCiQJy0pwGKlCxC5CiguQsikmqMaFVFWPHhcYbT1T9Z5KhN6jHbvWtzybQ6A9TsU+V2dh5wTvjSr1jxaRx1RpR6eIX2G+1zUEKgSFTqpFTjwwCAeR+KH7rACpCRiNC6IqwCdzTXR+kVRsCBs/33BpBt51tMdzUAHzCkjGl81PHHtERSbkzicFihrQqjKu8NgYoBoHUrMKqGKvqzygmsg71YVTVX3DWF8Ep5Ee07xDqVroPj6QWlzuhYCowiZpD2mYF1hUjKbhGY3elED8XhZBoCn4FM0jttS0JxPhT0ZzPAYVKG0FzEFzcSBWHpDY6ygEVerVC7/yUnmR/tMF4X4ViIrrQZVaf0hBmPfcmH1PFUL7WYbTUDBNEkp5AEfvOYOeUh0vqbSnk/N8SZ0bkUcqqsy3pwwDR5F3NArkwj3Q0T8hIjgMfq8Gb6LxedaZ8Wyq2anzQ6uzNp158BxUABXQV0AWOPRnEBCb5MA6EKu+Ni80ic4XfR+aHhpBsNwxJfJRZUPQ/vGj8k/FXtAIEI9MF5D/xwH3uhuE0/DCsdDS/mhfve+00H+Q8EL5uYFShXxSPgjE95La465ZtQrmzPwCVixbBtu2bYXmpibJVwoehgqgAqgAKoAKoAJ5U6CsvBw6deoM/QcOhNFjD4LeffvSJQih3KD3VCW0zwNBkee0GHDK9ZiyYCr0QCmEmY16Sg1BqZSnU+AhffOVl2Hm9Gl5e6bQXlQAFUAFUAFUABUwpMDYg8fDqWed7YwWH1DlQvt5hlMuLPs9pkre0gxBqXzo3pyXlNx9/3hyEixdvNjQbY3DoAKoACqACqACqEBeFRg0ZAh847IrDMIp9cEG5OCnEnBUk6zYT9Nz6jfJD6cej2lLgVITXlJy+dFTmtdXB9qNCqACqAAqgAoko4Dfc0rRUiIRWLXvaanCaSiYRobwo6q9uZXinGISnUInXn9U3tBc++L1JfXD7OqVK+HJRx5K5q7GUVEBVAAVQAVQAVQgtwpcds1E6NOvn8f+UoVTnS1jLVh35WHHcMBUOq/UBJQSWwpAyfVe8prxJwClMpXRYd7Vt159BfNKc/vKQMNRAVQAFUAFUIHkFCBe01POPIvrKdUBVPecFMP6ocX3HBsi+4FFbfgQhFMKptIh/NxBaXg+qQ6Usuc8eM9fYOuWzcnd1TgyKoAKoAKoACqACuRSgc5dusJ1t3zLsT3QikojtB/V8zSxsH7CcMrLNy176uV3PMHwUPZUhFLqFOVWJFnXKXlPqdnQvd/e3//qF9gSKpevCzQaFUAFUAFUABVIVgHSSuoHP/25ZxITcEoGDPOepgmnym2kLMO5ogfglAVTnbzS8Ibv4XmlYd7KwFja4Xt9KBXu3FSw6c5f/r9k72ocHRVABVABVAAVQAVyq8BtP/sPy3YfeakCqkpRlC6cCnff4jClMpxGeIk9+aZSYFqMtlAZhlKCvb9HMM3tywINRwVQAVQAFUAFklbgBz/7DzfzMqdwmlYbKS6YqobwdTyl5CbQDeHL9SlN3lNq+4ERTJN+pHF8VAAVQAVQAVQgvwoQMKUOU3sJWYPTjPU4tc1xckzTANNiQKmoyEk2dO9PTEAwze/LAi1HBVABVAAVQAWSVsAGU4dLEwLUWDmnqnCaYEjfA6YIpdbdEoDYgjB+KCXH/eFXv0j6nsbxUQFUABVABVABVCCnCnz/pz8PtItKyntaSnBa9uRL3qp85/obzCvV9ZRasOi9I4Nj8cP3SXlK7XERTHP6pkCzUQFUABVABVCBFBQgYEo+gWKnIntOuTVIWfKcqoCpqbxS7jgSxU6yUMr1fjI3oUz4nuclZe9jBNMUnmqcAhVABVABVAAVyKkCNpi6HOqNg9P/ipF3GqdaXxdOjRZDhbWP4oJpBrylup7SWFAaEbr3PBcklP/rX+b0UUGzUQFUABVABVABVCBpBb7/k5+JwZPjPVVpJ2UUTjPiNeWH8nneS942oQk10deF0ljhexkoZQxDME36kcbxUQFUABVABVCB/CpAwVQGPGWOEewUFQ6zPi9twEPr0zdtOOXNF/CYKnhLo3Z24nkuZUL4aUCpSpGTc8l8hiGY5vdlgZajAqgAKoAKoAJJK+ABUzIZA2E6eadhDe1drg2DUPNwqhPSD2viH0hnkAFTndxSqYInzbxSYY6/OyBPAAAgAElEQVSo725jj5eB0rBjKGwXPMd//PWvkr6ncXxUABVABVABVAAVyKkC3/vJT6nlHiCLyCmVqdjXg1NFMPVBdGANhevh2BK3hZRfEw+Ypukt1YRSric2Yi/VJKCU2IBgmtM3BZqNCqACqAAqgAqkoIANpmnCqbGQvgScJuU19eaYJpRbWqwQflJQSmS66zfoMU3hucYpUAFUABVABVCBXCrw3R//1BOlTstzagxOJfJNk/CaumBqyFuqE8JPIq80FpT6DGLB2v4KwTSX7wk0GhVABVABVAAVSEUBAqZ+x2MgzzIk7zRuWD8pOOXliarCqSjXNBJMeZ7O0Mr3QuPPQP6nv5pfOYSv3kA/aSglXf/v+u2vU7mxcRJUABVABVABVAAVyJ8C3/3RT5yCJ9b5mCU4DQIsR2d/DiiE5Kxyck0tMA9+wYXTwnEWmCYUwicGBeDW742U2NlJpdgpUShlbEcwzd9LAi1GBVABVAAVQAXSUoCCqf0pKwsP6/vcqizIJeM5VSyGEoCpBz4NFEIpgWns9lAaUErhljkvqldpJMBy+pR6jheF73023P2736R1b+M8qAAqgAqgAqgAKpAzBW799x97vYUG4VS3Cb97nlk4NVYIRTR68sW3/btvBr2chZshCkyFIXyLMD23VXRuaTCEnxUoJYtAMM3ZGwLNRQVQAVQAFUAFUlSAgKnHm1jwjJoK65uEU2FIXyIcr5prSuXwpQXQv5MF02J4S2VD+KY8pf60AwrOId5aBNMUn26cChVABVABVAAVyJkCNpiK4DQAaAoFUbJwyj8um15TI2Aq9JYqeUqpa5XefjohfF54nvXThoXvVaCUHPu/v/ttzh4RNBcVQAVQAVQAFUAF0lLg3/79Rx6PoDfc7c05NQWnUQ34PbmrDvwmBKeSuaZSHlPpSnyG9syCafahlNxACKZpPdo4DyqACqACqAAqkD8FCJj6gTPrcKoa0veDpYlc04DHVBVMzUKp5S3VCeGn5Sm1Hw0E0/y9JNBiVAAVQAVQAVQgLQVsMM0SnKYa0tf0mnrANC6UFrDSe80jwvjBvFV5b6moLZRM+N5vb1ROqUebZoD//R8M5af1cOM8qAAqgAqgAqhA3hT4tx/+iFT3OB/WuxjlOVXqc+pv5RSSn8pqpxrSD9Q9JdA+yqMNW/xkHEw1cktN5JUmDaXkAiOY5u0VgfaiAqgAKoAKoALpKUDB1HKXpganfOgMrjl4nH6uqendoByPqXEope5IFxF1th0Naw8VCq/NwVXIFDupeErty4tgmt7DjTOhAqgAKoAKoAJ5U8ABUxNwGuEJpUgZVsnPafNkHe6CqFZv0wS9pqFgmmR7qERC+AoN9Fl81YFSYv+f7vxd3p4RtBcVQAVQAVQAFUAFUlLgO7f9u6/BfkzPqWYbqbBKfVU4VQ3pqxZC2Z5XCqbF9ZYayCtNGUrJrYVgmtKTjdOgAqgAKoAKoAI5VICAqd87GTusnzKcRlbpJ+Q1LXvixcnBnZ/8cXeibOEonic1ALaKBU8mqvBl8kpNeEqpFM3N8Off/08OHxM0GRVABVABVAAVQAXSUODbP/ih4zEN8x5qFURFwWmMkL4L0eH5pqpeUw+Yy1bpS4GpoZ6lSYXwtaDUIkzn3rRt81ff2wc43xfOQTBN47HGOVABVAAVQAVQgXwqQMCUBTMRnPor9a1z3bV7iowSglOZfFNVOI0K6fPSDAIe06jcUlVvaXTBUzCEb3sj/bdgVLET48ylpznHstBpu3tZFg3ZatQB0xAYt8YnHtM78/mkoNWoACqACqACqAAqkLgC3/7BbdZu8GGFSwXojPKaysCpZ3x7VQqe0/BtTXkFUtYEHjg1HNIXg2lWQ/gp5ZUGodgSBME08WcaJ0AFUAFUABVABXKrgAWmFOP4cBq3jZRkvqlMCynVxvuqXlMLZh0S91zTwNxsKF/FW8ormJJvD2Wm4EkrhC/ylFK3q6VZGJQimOb2PYGGowKoACqACqACqSjggmmR4FTBa+oBR087KT2vaWHFfAAV5Jo6HlMVKLXYzVczJV3wZCaEX0woJVr95Q+/T+XGNj3JyZ3awZHt28CottXQr3UVdKwop1Nsb2yClfvqYe6uvTB1526YvK3W9NRGxzt5TBMcOawZRvVrgn7dmqFjG2v47bsBVm4qg7kry2HqgjKYPMtaX2Y/B1dB2cgqKBtYDtC9AqBtwdJdALCxEZqXNUHzvHqA6fWZXQIahgqgAqgAKhBU4Fvf/4G3XVQxPKcKcKoa0jfpNWXBOBxMVQqeKKnym+nzCp5iVeFHhfCj8koVPKXWcliADhZJ5QlM25eXw8SeXeDi7h2hc2WF1Ptja0MjPL1xOzy0bgvsbGqSOifpg9pXA0w8qREuPqoROreTm21rLcDTH1XAQ29XwM69cuckflRNGZSd3hrKjm8N0J7zT0eeATubofm9fdD8+j6APYFGGombjBOgAqgAKoAKqClAwJQFLutsN6wvKoYKnFtGznVt4BVDReWbJh7S5zTz9+8KJVMIRcFUxVsqCuH7GNUTDrdj5DLbjsru7sTb2SnQFooxyjMu6/XlgLhd6GTfBi6sAtzzx3x4TC/o1hF+0KebNJD6HzsCqL9fvQme27Rd7Yk0fPQFRzTBD85tkAbSwDpqAX7/YiU890lxPahlx7SCsgtrANpJAql/IbXN0PzsHmj+oM6wwjgcKoAKoAKogEkFbvke8ZgWcNRbLaTXRqowBhdOU6zS9wKuTzEVOA0J6fPBVMVbKh3Cp3ToA1VvHie7PH97JvqdbyuAONuNyraF8sO0vdw8gOnt/XvApd07GnnOntq4He5Ysd7IWKqD3H5hI1x6TKPqadzjn/qgAu54Vs5rbGRCZpDyK9oAnNjKzLDv1EHTpN1mxsJRUAFUABVABYwrQMCUfIJwahGZDXgiz6m/jZTIa8qOTf/MGhE2L7P6pAuhRF7Tskn/91YwLhhSiZ9Zb6liCF8EpRYDW22h3D9bVy0vYHrnoF5wVpf2Rh+0V7bshNuWrjU6pmiwO69ugLPGm00leGVaOdz2aKVoaqPfl93UBsoONwSlBcuaP62D5r8hnBq9UDgYKoAKoAKGFPCDqRcYxW2kLKj0QqxNuiI4DYT0FXJNA2DrnMsvhBLlmrLrsKUNq9CnxwbANKX2UNz0AfsH15Pf6fylp9xKKoQvyisV9CoNg1ICrPf88Q+Gbl3zw5j0lPqtS9NzatJTGlhHip5To55S/0LQc2r+AcIRUQFUABUwoMAt3/u+7a/05oYyoBenx6mJkD6vwX0AHh0vazo7QkmDqagK34I490p6wTNmeyhfwZMohO/YwQFcnrc0qi0Um1dqrc5aS1bBlOSU/mJADwOPVPgQP1++PvGcU5JT+ovLGpJdx5PJ55zSnNJrCy0DElpN88O7Mec0IW1xWFQAFUAFdBWwwJR8bK9n4b9C8k3pkZxen9wG/L58U9GuUA5SOueFt4EKB1N3LR5b/Q333QE80oUWQvlyTb1gmoi3NCaUFoiX2x7KQAhfB0qzCqak+v6NAwdpFzrJPnykIOq02UsTq9Yn1fdv3F6nXegkvY5agNPuaJVctX5NGZT/toN+oZPsQmqboelHO7BaX1YvPA4VQAVQgRQUcMHUHJyq5ptmKaTvB9NQEPeE8mVzSyMKniyO9GCkcsGTZwyJgqdAFT4nhC/KK3Vt9oK0d6nud3+9648p3NZqU9zauxvc3KuL2kmaR9+7dgvcvWaT5tnRp916ViPcfJqZYieRgfe+UQF3v5JMMVTZ+dVQdk61yAQj3ze/tBean89KPywjS8JBUAFUABXItQLf/O73mD6mrIfSWpZ/X3qjxVASVfom2kcFC6V8l0ywXSnXQ+yAaQ68pUZC+KFtoSgOU0W9XlRbZO93WQTTqWOHJO4ttdUgXtMjZy5O5KUx9VfJe0udddQCHPlTs0VJ9tjld3eU71MaV8mdzdB0a3FbesVdAp6PCqACqEApKUDAlA+g7ipV4NRYSL+IhVAyXlM3lJ+Ct9RYwZNECJ/brzRGsRMLrGTse+++K1PPD9nR6U9Deqdq03cWrzG+QxTZ0elP1yebW+oX6TsPVJrfIergKij/tr2NUzqXpenPu3CHqHSkxllQAVQAFRAqcPOt3+W0hPLmm/rBVasYSqfxPgdOdQuhTHtNjYJp2gVPuiF8nbxS/zlZA9Pb++0Hl+7XSfigmDzgqQ3b4I6VG0wOCUlW4ocZmkRv07Ir2kCZqZ6lkgo3v1MHzdjbVFItPAwVQAVQgWQVYME0ynPqBbuQNlKcHZ+k8k15AGovO61CKMVwvgWmKXhLWY8jeyso7/DE8ZZKVeFz1hi1s5NlY3ArUnpOM8C9/5stj+nTw/vDmLbp5DPa12/Wrr1w8ZcrjD7ZT3+/HsYMTHfLzVnLyuDiP1QZXUf5z9sBDE63VyosaYCmX9QaXQcOhgqgAqgAKqCnwM3/9l1akM/NHY1Rqa8b0o9TCCVqum/Sa5oamIaF8blgKtEeKsxbKhvCF0OpC6aeXagKzJQ1ME0zv9R+RJPIM00zv9RZRwJ5pqnml9oLwTxTvV8PPAsVQAVQgQQUoGBKXaU8OI0qhrJOiiqGCoNT2d6mZtpHhbecEjXdj2odVTbpBWvnJz84ivqW+grzIyvxlaDUMobfTD/MWypZhR/c5lSuAt/Rx/a6QjP87X/vTuA21h9y7sH7Qzlnj1r9EcVnNjU3w6jpC8UHKhwx9646KE95O/umJoBR3zVbAFX+QEeAcs5GwApaKB/a1AxN12MBlLJueAIqgAqgAgkocNO/3ers3KQOpyHbliqE9Hm9TeN4TSkuB1IDzMOpETANgmezr7KdH5pV8pYmFMKXqcC3w/f2fUuwGcEUAME0/E2GYJrAWx6HRAVQAVQgRwp4wFTgOfV4OkU7QxVYMG5I37TXNAiuvoslmWsqB6aKfUv9Hliex1Qmt5TXHspkCF8GSnneUvJ3WQNTDOXrv622YihfXzw8ExVABVABVICrAAFTi0cdkuR4HAvE6ts9iW0jlXhIX6F9FL9rgJ7XNCycT8E0Thg/rrfUD5+yOzxRVtYK4fMKmlxfqPMndjtTJoRvg+p9f/rfTD2KWPykfzmw+ElfOzwTFUAFUAFUgK/Ajd/5NzdPlAOn/mp8y+NojRVWqR+1ZWlYlb5uSD+sfVRUON+E11QMpjn3loa1hnLzTdkbyp9zalXgUxj1Nd/PGphiuyj9VyO2i9LXDs9EBVABVAAVCAdTFtR4nlN/g30+nEa3kDJSCJUhr2kATFWKnjLrLQ3d3Ul+Zyc2r9QPpeTGyRqYYoN9/VcjNtjX1w7PRAVQAVQAFYgGU1U4FeWbej2jBQ+r036KrY4iQOv9vuCODXhl6WEKTfeT8pqSccsef/5NT2VSFJiKKvGpZ5ETXvf4JMO+Zyrxo3JLw3qWeuz29SwVt4biAWu4t5SMd/+f/5S5ZzHNPNMkWkXZgqbZMiqJ/FJ7Ham2jMJWUZl7HtEgVAAVaNkK3PDt7wRaPqnmm8YK6TsN9H1wGtZ0Py2vqagIKhJMI8L4WfCWRvUslQ/hhzfRp6DtC+Hb42YRTG/t3Q1u7tUllTfBvWu3wN1rNiUy161nNcLNpzUmMrZ/0HvfqIC7X6lIZK6y86uh7Jx0Nj1ofmkvND+/N5F14KCoACqACqAC6goQMPV4S21Q1M43jRfSz2quaaAIigXTonhLFZrpCwueJEP4Xt6WzytlYTeLYNq+vBzeOHAQdK5MBrTsx5J4S0+bvRR2kgagCXzaVwO8cXsddG6XwODMkMRbetodrWBnUjxXUwblv+0A0C7hfqa1zdD0ox0Ae9LdMSvZq4OjowKoACqQbwVsMFWH06jm+3KN94WFUAa2Ko1VoR/hNfWE8mXBlOctpd5FtpKdcz9xv9dspi/jLVUN4UfllfrXnEUwJZJf0K0j/GJAj0Sf5p8vXw/PbUq2kfsFRzTBLy5rSHYdT1bCc58k282/7JhWUHZtm0TX0fzwbmj+oC7ROXBwVAAVQAVQATUFWDDVhVPVKn1RIVRSXlNeERe7ZuvPjH5aYCodxg/Jz/RdP6Vm+hbl0hHcULqgPZSyt1Q9r9ReElnLA3/5s9odmuLRt/fvAZd275jIjE9t3A53rFifyNj+QW+/sBEuPSaZkH4SlfhhopRf0QbgRLM7SzlzvVMHTZN2p3I9cBJUABVABVABeQWu/9a3uX1Lnb6kiv1NVXubZs1rGrVNqQeo7VC+rLfUYkZPt1ELICWLnkz0LXU8r+zGpREFT3FbQ/HWlmUwJdfjzkG94Kwu7eWfIIkjX9myE25bulbiSHOH3Hl1A5w13mzKwCvTyuG2RyvNGSkxUtlNbaDscLNw2vxpHTT/DaFUQn48BBVABVCB1BUgYEo+vJB3FJyqtpCS6m1Kqt0TqNBPIpzvhPK9Ve3eXDWWQ3WKnkKhVaUSP6qZvg9KXVD254/a96VeXimbivDgPX9J/SZXndCk5zRNT2mSntM0PaX+dRj1nKKnVPVxwONRAVQAFUhVgetu+VagKp8FVRU4DYb05QqhtL2msSr0vXUVXnj1XQJ2HrvlFddjmlIYX2eXp/jeUr0qfNYrTGzIA5gSm0nO6Q/6dNMuiCKFTr9fvSnxnFLR24LknP7g3AbtgihS6PT7F5PPKRWtg+acXlijXxBV2wzNz+7BnFKR0Pg9KoAKoAJFVsAMmFKULXherQVFhvTZNqb+3qaaXlO+V9QVV8VrKhPOF3pMVbylLLyx94NO0ZMnt9QamA4ZANMieEuJHXkBU2Irqdaf2LMLXNy9ozSgEiB9euN2eGjdlsSq71XfGaRaf+JJjXDxUY3SgEqA9OmPKuChtyuSq75XXUhNGZSd3hrKjm8N0F6yYn9nMzS/tw+aX9+H1feqeuPxqAAqgAoUQQECpixIxg3px/aaCvqaeuyzDHdUc7y7AbL0b59q/7ek1zTMYyqbXxont9QDrZotolQr8YO5pZwQPjXM0j6sZ6kHiAu25wlM2eeR7BB1ZPs2MKptNfRrXQUdK6yq9O2NTbByXz3M3bUXpu7cDZO31RbhMZaf8uQxTXDksGYY1a8J+nVrho6FwvftuwFWbiqDuSvLYeqCMpg8K9mqe3mLQ448uArKRlZB2cBygO4VAG0Lx+0CgI2N0LysCZrn1QNMr489FQ6ACqACqAAqkJ4CumDKh1l1r6l0hX7KraNE1fnUY6qXX6pWja9S9MTaw/YuzYq3lHhvH/zrPend3TgTKoAKoAKoACqACuRKgeu+eYvjdeR5HP1/x9sVyl8IZcJr6tny1OkMYIMv4yW1CNnRXNZryi/eCvZmZQZ2/whlUPbY82+EVjqlEcb3A6vXcxkM4bPfO55OT5g/uYInqpztMUUwzdULAo1FBVABVAAVQAXSVICCKQN3acCpv0I/ttdUA0xdj696OJ+eqwemat5Si+ecZFC2yZPn7+0bhte7NEveUmInekzTfLxxLlQAFUAFUAFUIF8KFANMXSh0aqaID7LAx3a/KL3WUYkVQfmb7XvANKFq/LAwvqy3lAVbJ8yv1Lc0fnso1ltKRnsIPab5ekOgtagAKoAKoAKoQIoKTPzmLXagPNWQfpjX1GTrKM9YBU2NVeeHgWkiYfywoie2R2nBn5q53FKf7QimKT7dOBUqgAqgAqgAKpAzBQiYUg+mbTdt18TJ5fT9Xdq5plHblLK2s95YEZi6x6qH872hfE8Te/cOMFmNb6R3aZG9pUQZBNOcvSHQXFQAFUAFUAFUIEUFeGAaBnemC6GEXtOs9TRlc1kdj2lGw/hhuaXk4nr7o5ovemLzYul8hRua/P3D9/41xdsbp0IFUAFUABVABVCBPClw7c3fdD2kjNfUhtMk+5p6w/bW5FK5pmGtozSKoHSr812PqZS31MKz0C1GmTsm0FQ/oTC+NY95KGXB12nuz8AwgmmeXg9oKyqACqACqAAqkK4CBEwdCOWAKes9Zf9saqtSU15TlXA+f01q4XxFME2uGl93pycTYMoD7ShvKREewTTdBxxnQwVQAVQAFUAF8qQAC6aWx7Lw8eeU+ryRaYKpBZKWXW5ua3RP06Sr8xMFU2E1fsyiJxNQ6vGMBtIDrL6lbAifXj0Syv/bvXl6PtBWVAAVQAVQAVQAFUhRgWtvujlYjc+QYBqFUEa9pkmH821gpzmmIWF8P7QlFcbX3ekpDpgGUg1CoJRqULiR6TkEVJub4ZH7/pbi7Y1ToQKoACqACqACqECeFLjmxpusHFO2Gl/Sa2rxK/FhOu5MTkW//jalLrC6PU2jvKYy3l722gS9qsEdpHxSWP9J1hwFpjrV+CzM8prqy/YuFTXU50FpwZnJyTklQGmt2U0ZCE9LiLQbwTRP7wW0FRVABVABVAAVKIoCLJjaoGnBnxs/N+E19Wwx6vwHpzWVL2TPg1N/OF/F7mgwdVZe4M+QLUqTAFNuYVRIONxehM5OT8X0lhK70WNalOccJ0UFUAFUABVABXKhAAFTB+xy4jUV9jSN6MNqDkz/+TrbWpSN6nuq7/MaxrfC72a9pQimuXgnoJGoACqACqACqEDRFPCDqYr3UdTX1N+KySlgiukxtfya7talAZsF3t5oOOWH8307kkLZYwyYhu/2JFeNTwzitYmKaqqftrfUtlG5Er8QwqfnQzM8et99RbvZcWJUABVABVABVAAVyLYCV994o7d3qIbXNM0Kfd3qfN4uUCzQev8shlOjYJrlML6p3FIE02y/CNA6VAAVQAVQAVQgCwrwwDS215TWUvnbOZktgip2OF8aTLWa6lvuSW67JRvw7JvH6pPva5TvxuDpYWE7PbmeXn+jffkwvqhvaXNTk2VDwSb0mGbhsUcbUAFUABVABVCBbCpAwJSCaCE0XlZebv23DZa22QxomtgNig3zByBWogCKtdlucuqxWbJtlNdTaq9bwWOalTC+DaAOztr5oR5o1dvpSbVFlKc639m5yoLdR+/HUH42XwVoFSqACqACqAAqUHwFrr7hRlqC79kKlIVQDpjyYS651lHerUvd1lGqzfZNhvMdj2nSYJpkmyiex1Sr6Clk21S/txTBtPgPPFqACqACqAAqgApkWQEbTGW9pjqto5Iqgipm2ygpMFUJ49seT3qzJNImqhBSdzyo9m0pF8aPW/RkZxegxzTLrwO0DRVABVABVAAVKK4CFEwtKi1qEVRZmTeFwO3Z78tVpcVZtsnM/vb+LVQtt661NE5Y36+6bLN9Z267Kj/KY6oCprLbkHqq8QsQy0It/d5AGN9U0ZM/tQDBtLgPPM6OCqACqAAqgApkWQEWTG2vqb0TFAt1Wg33DRRBeVIMPLDpg9MIMPWsw9/3qXBxtMA06TA+C5xOgVOBOuMUPbk8K+ct9YCvr9DKtctSkt1+lP43U4hFvnvsgfuz/DygbagAKoAKoAKoACpQRAWuuv6GwpakXtBT3aZU1NOUhUPqm3XakNpeTzO7QHkA0wOyQe8pKzvfqxpeBEVD+aa8pX4A9ewx71KkBX4xwNQtYrKXHg2mskVPPHvJubxCLATTIj7tODUqgAqgAqgAKpBxBRwwpRDnwmlcr6mb/ynbOiommPIglPN3XkD2XhwVr2lRwFQqjG/Ra2iLKC/numCqUvSk2iKKtQfBNONvBDQPFUAFUAFUABUoogIETB1Y87dpMtw6SrkIKqJtFMOc0btAJZRnWvboc/4tSR2/oeXZZNypHtcqc7F5uz0VuNI7BttyyW5bqtm71AVTuTC+bNFTVIsoWw8C1o8/8EARb3ecGhVABVABVAAVQAWyrMCV119Pwc6BRgOto2R3gko6nO8E4v35p9J5phR/XXBnLqQHTL3gKbcNqfRuT4yLM40wvnTRU0iLKNpRwBfGdwAcwTTL7wK0DRVABVABVAAVKLoCNpjyvKah4fyCu1K6dZR0EVTMcD6vqT7jWhVV5yvlmbIeUz+YqnhLPd5Vw7s9WXaIm+rLhPGlvLsFKLW8vrzuAE3w+IMPFv2mRwNQAVQAFUAFUAFUIJsKXHnddcBr1eRvuB+1E5QDteyOUc7OUU48nnplZcP5rAfX8luGt41iv4/aBUoEpuw63D+HFECZAlOtNlH+yvhQEAwDUzNhfJWiJwtUmxFMs/keQKtQAVQAFUAFUIFMKEDAlMCcP5xvw55uEZTpcL5TTMX2JeX1NE2rbZQNpkmE8f1eVMcDqZlfKluNLwrjxyl6QjDNxPOORqACqAAqgAqgAplWgAVTx0uYRBFUyuF8Udsov3fUvkiy4XwnxzSNML4OmIrC+J7QvN2QPxD253hWLWqmelF/rF3kFRHGt6GUnIOh/Ey/D9A4VAAVQAVQAVSgqApQMLUozVgRlHxPUzs8b5vg7WmqEs5nPapphPNTBVOzbaJi9i7VLHqyiqIAJj2EOaZFfeJxclQAFUAFUAFUIMMKXDGR5Ji6YMrzmsYtghL1NBVW52ewbZQRME0zv9TtXsUH01hhfL+3tOBOdb2yTZaHFcE0w68CNA0VQAVQAVQAFSi+Ag6YUjZl9qvnwSBTvMRrxcQLg3tyTQXhfLYwKlDxz7SxcuDZ9vT6bI3ymLLnsvayV0Km0b42mIZW7EtU5OtsQyrML22yw/L8sH1UNb5qGB/BtPgPPFqACqACqAAqgApkWQEWTNMI55eV+/uC8sL5ZtpGeToJcFpJeQCXuUiaYGqmf6nlWbSTPv3QyOR3+pruO1vSOxX7tpfStsteodVn1JmHk18qaqovU43P9i61w/hkTgzlZ/l1gLahAqgAKoAKoALFVYCAacHx6OSZOsBmYItScXU+P8+U18KK2hXRNspNGQg2xad/I7kLVFQBlLMeUpUfVZEv2u3JD6A82GNQsgCScmAaXviUQH6pQhgfwbS4DzvOjgqgAqgAKoAKZF0BD5jGCOeLmu3r5pkWuwDK33fVhnYayg8typAAACAASURBVI9TkW80v5RSrutpVQVTnfxSnTA+OeeJhx/K+jOB9qECqAAqgAqgAqhAkRS4/NqJhcb3BQNiVufr5pmqFkA5Xt2CJ9Q5v+BRTTrPVAtM084vtb2yoYVPGvmlMmF8Z95CU303MwHBtEjPOU6LCqACqAAqgArkQgEbTAt8Z7TZfljbqKg8U1EBFLVTI5zPhvI9UMs27GeumCjPNBdgGlX4FLYNaWh+Ka9NlGIYHz2muXgnoJGoACqACqACqEDRFAiAaQLh/LA80+jtSbNdAOUD0+wUPuk21g9U3xeKsHi7PemG8cldjqH8oj3rODEqgApEKNB9vx5w4omnQO2unfDu22/B7t27Ua+MKjBm7Dg45rgToHv37lBRUQmbNm2Ehx64F3bu2JFRi9EsFQUImNoeRKdwPaFwfnieaQKN9nmFTo5bmDiGnYZXnj/b2okKoMoe+cdrdlS7sAeSP8czeBl48Ecr1guHylTjk0M9Fe/0L6wByN+byi/ltYmKG8Ynhj7x8MMq9yceiwpkXgHyI3neBRdCVWVVwNY333gNPpjyTiJr6NW7D1wz8UZo06YNJDlPmPHX3/QtGDBgYODrpCHhGxdeAmPHjTcKI+07dICJ198M3bp1p+v5asGX8PijuBlIIjduzEFPOOkUOP6Ek6G8vByam5tg3759sGnjJpj0+EOwq7Y25uh4ehYUuPzaa63guANy/F2gKNPZx0XsRx8I3weOpQ1JmfnY3Z4sRfzhfGEBVAE4k8oz5RZA+cE0NH+UucomwDQKSl1odT24RvJLdcL4nPzSlgCmlRVV0H/wcOjRewCUl1fAiqVfwsplC7LwrKMNCSkwYuRoOPvc86GqspLOQH4wW7VuTV9kSQJjscH0yquvg379+juqtmrdStl7NXDgIDj+xFOgT99+UF1dTf9hvWfPHvjqy/kwefLrsH3btsBVSwJMe/bsBddcdyO0bduOzrdm9Sp44L57oL6+PqG7Rn/YQYOHwEmnnA7t27eHvz/5OKxds1p/sJydSe6Xy6+8Bqpr2sDKlcvh6acmce+RnC0LzfUpEAWmDiQqNNuXAlMCnxH9TNPOM9VqtK8KpmkXPiWVXxonjF/KYEogtE//odCn31CoKAAKeYAQTFveO5f1oJYymPqvrO1BlfGYkpfu2eeeB+MPOYzCLO9DPGEvvvAczJo5w/N1EmBKJjj1tDNgwpHHQkNDHbz04guBebNyJx9z3InUVpJq8MhD97UoMD36mOPg1NPPgn1798ATjz8Cy5YtzcplQTsMKmCDqQ2hccP5YW2jSi7P1AiYRuw7T72fhRi92o5P6o314+SXOokIbDpBiLeUrKnUQvkESHv06g/9B42AyqoqaGish03rVkP3Hn0poCKYGnxb5WQoBFNxvh8bjl27di28/uqLsHTJYqiuqYZjjzsJDp9wJE2NIKHZp554FJYvX+Zc/aTANCe3F7RkMD3vgotg/PhDjaZx5OW6tyQ7LTClWKodzlfZnlQ1z9Rko32enfa15nlNIyvzswimqeWXiqrxWxCYtm3XEUYfdCRUVFbBti3rYfFXs6GqVWsYddAEIGF9BNOW9Dq11opgGg2m/foPgMuuvAbatW0Hy5cthcceeRDq6vZ5bpSDDh4P5553AYXTxYu+gkcffsDJrUcwbbke05Z+7VvK21QEpkrhfH8+adh/0yRTw3mmpGDLl3LA7WVqLchCceUCKKZgygVTtYp8E431eV5K6mG1XKt0cd5Qvu/vVPqXyuSXMt5Sa27ba8tsr0r8v83N8OQjj5TUs0X+5TRo6Cio3bkNNq5bSdVv16Fz7sC0Q6uO8O9H3g692/WFpdsWw/98cgfsbdjLvVanDzkbLhpxJdQ11cFfp90FM9dPc45rXVkNE3ofDUf0PRr6tu8H1ZVtoLysHOob62HD7nXw5pJX4KNVU6CpcI+wE1w66ho4ZdAZsGLHcvifj++g510y8koY0+NgaFvVjo6xaOsCmDTnIVhbaz6vrmOnTnD2OefDwEGDab5j2EcUqtYBUzL3ySefDgcMHwE1NTX05VTfUA/r166D996dDAu+nBcwx59jOu3zT6g3bdy48dCmbVv6Lti6dStMfuNVmD17Fnc5nTp1hsOPOBKGjRgJHTt2hFatWtPjyNybN22Cjz6cAjNnTHe3SY54emVD+QQ4Dz3sCKivq4Nnn34S5s+fGxiVrP/qa6+HIUMPgL17dnvCtn44Ifmhxx1/EvTt14+mBZBxF3w1H1564Z+Bynp/kVPYckQpGP57xc6NnTd3Nrz1xqvCiv6KigqYcNQxcOihhwMZi9jd1NQEtbW1NIWAFMzZXQGiiut07c/rSxjBNK9XTs3uy665pgBoLqy5ze7LvQBHeZKBOgqDhf+2p2X/LgpMQ/JMhY32KVFak5nsZyrnMXUnZ6ryOdt8cq5BVgqfZPuXyrSJUg3jlyKY8h63PIIpWcc1B94Ixw44CfbU74G7P/8NfLXly8DyCHj+8PCfw+DO+3MB1obLsNcQAVICsvfOuJuCZhiYTln+Flww/BJoU2UVo7CfLXu3wB8//RWs3rlS7W0XcTT58SfA1Lp1awphdfssD55dxET+3NjYAHX76mDz5s2RFcCqYDru4EPgrHPOo3PzPuQfejNnzIAXnn8WGhsbnUNYMP3w/fdg/2HDoUePnoEhiN1vT36L2x0grLLeHoTMPWP6NHjhn88K4VQGTGva1MB1N3wTevToBevXr4UH7/8r7Nm9h7vuCUceDaefdS5937/5+ivw4QdT6HEsnBBgP2LCUdw81fXr18GjD9/vaSFkAkzZ60Vgsm7fXiivqHCgnrQsevqpxz3pB+wCCUBfePHl0KVL19A7kgVjBFNXJgRTY6+8TA/kgqkFXbrV+TLhfJU806wVQAV6rrIeU1FFfhYKnzxgbHs4C15Mcun9NnqKnAq3sDNGU8Ej6vSp8rWwoqF+6yS/F7fUPKa8pzuvYHpAl+Fw66E/hpqqGnh/+dvwyOz7Astjj3l50fPwzy//7jnmguGXQr+OA+GTlR/AvM2zYce+7fRfkP07DITrxt0Cfdv3h8bmRrhv+p/g87Ufe861oZZ4YsuhjN5DU1ZMhpcXPg+19Tvh+AGnwEUjr4BW5a1C7dN52xKv4cQbbobOnbvAtq1b4R/P/h2WL1tCh+rbrz9ceNGl0KVrN6jduZOCzrp1ayOnUQHT4SNGwjcuuoxC6Y7t2+CdyW/CF19Mp+OPGDEaTjvzLCD2NTU3w/vvvg1vT36DC6akUIiMYedrkhA5Of/sr51HK823bdtKC2WIF5T9XHnNdfT6zPpiOixesohCHPHmjRo9Bs48+1x67t69e+GZv0+ChV9Fd5eQAVMWpolnkHhMwz6k+vyyK66h3uuZM6bR68KCaUN9A5SVA9Xm04+nwvtT3qbpM6RDwoiRo+ixH30wBd54/RWp20Lmug0eMhQuvfwqqK6uCVSFjxg1Gr523gVUM3IdHnnw3oDnlFzLq669Hrp33496SOfNmw1T3nmb3lPEW026HBx59LGwaOEC+Hjqh1y7W3KOKYKp1K2c+4NkwJQiK3Fl+j2V5V6PKru7EjmeFyqnf+8O5Gsbxetnms1G+x6PqRaYFrnwyS2s4nt8Q8HUn1+qEMYnNxKCaXbfGaw3dE3tKvjd1DtgR912j8FfH34JnD30fNhZtwPu/OQXsHLHcukFDegwCL5/xM+gfav28OGqKfDQF/dwwZT85e76Wrj/i3s8aQKV5VVw2xE/gwO6jIAV25fC7z6+A3Y3xG+Cfsihh9MKcfJ59ZUX4bNPvMBsf19WXgGvv/JiKDDYi5EBHHJsVVUVXHXtDUBa4PCKfMgxBGSuve5GCsZbt26Bh+6/l0Im+bCQR57XhV99CU8/9YQnX5NAzmlnnE2Pf+O1l2Hqh+9LXy+ybuLJrayshA/efxfefP3VyHNlwJTVhkD2e+9MDh2TXd+ihSTP9H4PmJL/2LN7N7z4wj9hzpyZzjikr+t1N9wC+/XoARvWr4cH779HGFonJ4uuG5teEAb6tmbEg8rT2wYrAqUkRYM08lf9pA2m3U84CXqdcZa0mWtfewU2vvu29PEqB152xdVA2rORavwH7/O+P1TGwWOzrQABUwc8mTC9djg/Vp4pv9F+FgugMgem0vmlBIjp/4sGUivkXzimcA/bf+fppcqpxieHW6c7LfmdPyOYZvuFcOrgs+CiEVdAU3Mj3Dv9bpi+7nPHYDYPddbGL+DuT3/j3EcyqyJ5oj+ccDv07zAA5mz8Av7w6a89p9ke032Ne+GeaXfB7A3eNkHkYH8e6q76+A21RT/0qv1CRYBjL5r1CH7+2Se0NRLvc/KpZ8Cxx50ATU2N8PKLL8C/Pv80AKakon3SYw8HiojIbkbXTrwRSAh7/rw58OSkR2UuVWB81mMZNoAqmIryONmwO6nKf+Bvf/GAKcklJZrZHmbWLvIPjcOPOIp6e5+c9Ait+Bd9RNeN7aEZBuodO3Sk3nfyDwm/3uy1WLVyBd2pSKdPquh+Fa1T9fusgOmoA8fAuV+7gHrQ35n8Bkx5L5mNK1T1wePNKyACU1Io5DTWpwRrMM80xwVQRsCU2TrKhTgHBm1wLFBeyI5P3txVvcInnsfXD6b+/qVsfqkXVMPD+GRpTz1aWsVPvEcyr6F8spbubfaDH034T+hS0w2mrf0U7pn2Rwc+x/YYD98c/12oLKuEh2b+Faaukve+kbFlwZSE/3/10X/Aht3rzb/xOCPauYzNPvCzD03KY2rPS3JAX3ju2dC+mQcMGwEXXXI5DdWzXkYZYGZzOlm4kxGWHT+LYBpVhCarLauDCExlx7QB3d+kf+xB4+C88y+CyqpKz3WUuRbsMWmDqap9Jo8nmp9w4ilQUWnl8JL0jRkz/gWvvPSCJ9/a5Jw4VvEVuPRqUvwU3G2JMihxYDKhd3843/pvpmjKXg6nAMoajy2WKpzHabQvLICKUfxUYOvYlflaYBpWkU+MChYbFSDTrqD3ASu7Dal7fvSOTyYKn5pj5JcimBb/gRdZQP4Vesv478H4XofDlj2b4Lcf/zds3L2BnjbxoFvg6L7HQViY3x67c3VnOLrfCTC862jo1a4X3QHLevDKoE1VW6goq4j0mKYNpl27daNbe5KweVSOqT+UHqalCHDs82QBIwwQZcCUzGWDUlixEWnfROC7d68+tELceY+Xl1EYJiGrJMBUJZTPeh9l8gzta0Cq3WXSL8iaRdfNvl52cRwJx/M+YTtg2eeTjgdR/xARPaOy941onDx8b6/V+o1rgtqdtfD555/QFBDP72keFoM2SisQB0zpbw2TZ5qFAihnRyknj5XTGsqhbksm3qYALmMzLaIsUrfO0Sl+CgPTUCil3Z98XlCm4IgFWn8on7cVqR9Mvd5Wa8nk75LKL0UwlX4ui3og6xl9bM4DtNCoc01X+OmE/4aubbqHFh4R8Dx9yLlw3gEXQlVFcN94dlFRofy0wZTYdebZXwPinbGfAX9VftguRLwLJQIc+xxZwDAFpmQLx/vv/YvzfBMP1Hlf/waMPnAMhc+ojykwDSto4s3Neoo//eQjmsZAPipgWtZcBi88/wzM/CKYFuKfU3TdWEiSeUD9/xBAMJVRjX8M+UcjaQl28CGH0gMwlK+vZR7OtMHUBTQDbaNYLyqnVyivACpQ9R7qxXXcpRYgsu2rrEXI9TMNsct/zcKa7GcWTF3YtJfigqYITAOgSiC1MIyJ/FIyxlOPyue45eEB4tmY51A+WQ8bcp+/aQ788bPfwGG9J8DEsd+EfQ37QltJje91GNww7ju0an7R1q/gqbmPwPLtS52epVkN5duV1hXlFbBixXJaVGT3EiU5isuWLoGXX3peek9uEeD4wVTkQWMBjc3LlPGYtm3XjrZnIlXgbAERseG008+Co445jppDcjBJ9TrZd91+DyQRyictkq697ibo1LmzcD/6444/ke4J78+tlQFTe+vKuro6eObvT8BXC+YLXyei6xYXLO1UAGKIrBeXZ7TsP2iEC5Y8ICs5pmzxmf8fWZJLwcNyosClV18dUhnvAp5ynqlEAVQWK/PleplGeEzDQgs8zyTxhHqgj9wwivml1imsR5WF0HAwVS18MpVfSkquEEzz8WbwV9+fu/8FNLz/1Zb5cOcnv4SGJm8PUrIqkn96aK8JgRQAe8VZBVMbdEz92IkAx9aDBc6oqne7+MkPWTJgansoSUj+/SnvwuQ3X6PTs7mnYZXrSYApmfvqa2+AofsfAHv37oGnnngMlixeFHgoSMeCidffTNt1+VMoZMDUrt6WTb8gBoiuGym+ueAbF0NlZRW8/dbrysU3rLdYtRCNFcgB5Po6eO4fT8PckM0TTL1psgKmZD0y197UunGc4ilAwNTqX5p8nqk/ZE7hNFAAVbyWUTwwJVfGa7cimPIKi7jV7rHB1N5tiSma4lXea1TkO/CrkV/q9eAimBbvUVebuV+HAXDbET+n3lOyWxPxmHaq7gLPzJ9E/5v3+f7hP4HR3Q+ije9/+/F/QW2dWzFPHvYj+h4DV4yaSPukZimUb+dgpg2mbFujsPZDbP6rv5JbBKbkxXXBhZcCKbqp3VULTz7+CKxcYbX3YiveeesmvUxPO/1sumd9ebm5HFMyN2lQTzYzIG2owroJnHDSKXD8CSfTly9p30U81vZHBCcDBg6GSy+/kvYTlUlBsMcVgSl7vTZu3ACPPfyA07pL5uliYTuqo4BoLLuIihQEsf/YEJ1XCt+Lrn0prBHXAMCCqQth/Eb7zvcR/UzZPNMAiPo9qQpbk2ahZZS1Hg+Yind9ShJMk6jID80vJd5ZFkwV20TZ45aix7SqqjXYyc3kIWnbrhMMGzkeKiorYfWKRbBmlduqhlRgNzY0ZP7dQ3qGfu+wH8OIbqNhX8NeqKpoBdv2bvEUQ/kXYbdyIg30X/rqOXhtyYvQ2NQIQzsPg2+MuAwGdxpKtxklnyyB6SWXXgnEG0ZC6qRRO2n8Tj7btm0J3ZUo6gKKAIc9l4Z3zzyHwh9psP/aKy/D/Plz6CGkQf4ZZ50NHTp2ottsPv/c056tRVkwnTbtc3j1pf9z2kWR/NGTTz2dbjdKXlz+RvPk70iIf8DAQXTsd95+k/ZnJcVCo8eMhRNOPJkWg9kfGcCTaRdFxiOAdsVVE4GkUJD3wupVK2n/WALN7dt3AAKlB48/hNqyYcN6ujEAafzvB1Pyd8RjuHjRV853pKXT+RdcRNs1hcF+2LWTuW4kveDEk09zrte770yGuXNn0fuEwDy5JmPGjIOBgwbBP//xdGAzhoMOOphCeVWrVlT3f33+GUz96H1qKzl/wIBBNL0iqsE+uyEE6eP63ntvw78++zTQKizzLxkNAxFMNUTL4SkWmIZ4BZl8zchwvmKjff8OUE7BkpP3yeSJev6O3Q7VEls7x9RatGftrA7spQwWR5XZxU/6YKrTKoq3BSgxtNiFT9SuiN2erGwDa8WlBqYEPkeOmQAdOnaRevxXLP0SVi6L3kFHaqAUDjqy77E0r9SGSbJT01+n3RU6c5/2/eB7h/8UulTztSBgu2H3BiC7R2UJTAcMGAgXX3ol9SKGferq9sGa1atpHibxXLIf0bae7LH+3p3k5XLO174O4w85jMIO70MKr95681UKzeyHBVP7PUCKtkj1cqvW1XS8sO1MyfEsJPHm3bJlM32uCeT5wVRlm0xeWycCV5dcfhX06dM3VPONG9bDE5MeCexWZcOJfaK9VazdUoj8PYHWfzz7FDdNIGxCGTCVuV5k/F27auGRB+/j7hJ29LHHw4knnwpVleEFgqIer7ZHOeyeEZ2fwusjkSkQTBORNXOD2mAqG853wt2ifqYpF0C5domLnyiAWhRKrwdvhyr2QhUdTD19QukvkGVemMdUpyJftvBJt38pbenf3Ax/f+yxzD0EcQwqZTDt2LoT/OjI/4KebXsB2SaUQCnZ5z7q06tdH7hwxOUwousoIDtJNTU3wZa9m+HdZW/Bu8vfgPOHXQKnDDojU2BK9i6/+JIraUGODTlkjeRHvxVtl+S25uCFYOOAqa3l/gcMo1XHvfv2pcBCnpU9e/bA0sWL4K23XgvAmf3i6j9gEEyYcBT07T8A2rVr6+wZT0B67Zo1MOW9tyO3Eh02fCT1rHbv3p2eS1ogbd22Ff712Sfw8UcfwLXX3wwE3E2DKbGfeAgnHHUMHHLYEdC5U2eqt3/+xsbGwO1G8mMPO/xIGDlyNHTt2s25RuTc2tpa6vH+YMo7Urs9sYPLgCl7vY4+5njo3bs3tK6uofcIuXd27NgBX86bB59++hH3mtnnk39UnHDCydB/4EAgKQIkJGifP2fWF/DhB1OE9tvXjqR7+CEXwTTOWx3PLbYCl1x1VeG9Gz/P1PWEBqGPF9b3F0AZqcyXqMo3CqbcUD1zVUWFTyxgWgVRco31ZcHUM3+M/FLLI+raZzlJbVvt/Fb+bk+2x7QUwbTYDzDOH08BNteSePYmPfZQAChIWPywIybAiSeeQkOwuB1iPM2zerYNpiotprK6llK1Cz2mpXplvevyg6n9D3Enl5IFvUJ6WJxG+6oFUCysBjyXso32eZ5Ra6GOGKq9TAvtopien2yTfAUwZXM6KWzGAFOZVlG6Ffkm8ksRTFvGSyVPq5Tdu53dalJ1B6U86dGSbT3jzHPgyKOPhdqdO+HRh+/nhuFbsj5ZWDvbKuuxh++H1atXZcEstMGwAi6YmsszjV8Ala3KfF4v0xyAqS//1d5BiqnU93t7QwufmKb7Vj6pdRc6HlTJ/FIEU8NPLw4XWwG2ZROpTn/u2b8HPKakIOfsc8+HESNH0Vv/3bffpDvP4Cd/CpBiM3LNP/tkKixbvoQWLZHUgGOPO4l2IKisqIQZ0/8Fzz/3TP4W1wIsJsVtl195DVTXtKGRi2eemgQ7d7qFcS1AghaxRBZM08wzVS+AYjsFFL/JfmbA1F/4ZAGj5Xu14ZH+rwEwjZtfSuwotRzTFvGWKOFFkgpxUsU9+sCxTi4pqc5vqLP6tLIFNVGFRCUsUUktLWr3JvIuJe2rnn7qcWF+Z0mJkqPFEHA47+sXwriDx9O8XJJXXLdvL2zatBkmPf4Q7Kp1W9TlaFloqk8BAqbkY7dCitvPNCzP1O91VAdTaiW1ky3AKvwts4Z0dn/SB1Onib51JZRD+YLCJx6Y0jns8wpFSJ65Jbci5YJps3x+KYIpvn+yqAB5oRAv2pFHHQM9e/WGmppqZ4tOu6Bm5fJl8NFH7zt9QLO4DrRJrAApNCK7Qh04dhx06NCRFlyRoqPNmzbDZ59NpW2XeAVX4pHxiLQUIM/rIYceDkdMOBq6dutKi/Z4nR/SsgfnMa8AD0xZULX/bKdjevqJMjmeVt4p49W0TnSAkVf5TiHT2dPegmNvTqm1XlGeqcmWUaydttraofywHqZZaxXlLZAqeFp90OyG7V2gtttE2TDsrte3DSoDvk8//rj5uxhHRAVQAVQAFUAFUIGSUODiK6/0AKG3CIgFy8JyCzDJei0pXhbA1AFZl+p8Oyd5c1lNVua7NpltGVVUMI3TKspURb5a4ZObQuBPKSD2IJiWxHsDF4EKoAKoACqACiSigB9Mw/JM3T73lpfTD6YUSJlG+yYLoEQeUzq3vSOT47kteFsdjyynZ6nPq8vzkHo9tkzKwyP/eM1qvuTZq957jWJ5TO2cUCf078Ti6ST+HqbFrMi3+6b6810RTBN5ZnFQVAAVQAVQAVSgZBWQBVOH4UI8pkmCqQuH8gVQzm5SBsCUhVMnF/eRf7xqlRhJgCkLqFavUuvj/3v6dxR2nQomd3w3SdQImPKg2cpF9dlnoCKf1Qg9piX7LsGFoQKoACqACqACsRWwwdQLf2F5nYXCojCPaUieKa9HKJtPSr2dNEWV9WqaaRnlpgpwepY6tG3JKNPL1DnGKJj6vKKyYJpmRb4NzZ7G+pJbkSKYxn5OcQBUABVABVABVKBFKKALpg7IxdiaNI+V+ZkAU38Y3+u5tRDS83cptIriFz4VcJbxuqLHtEW8V3CRqAAqgAqgAqiAlgIETG3IZFtGsR5U93vXY8qCKf0zUwCVRsso3vys19PqEGBJ4vea8uxjz42qzC8umCbQKiqQihASytdrFcUWQll/RjDVek7xJFQAFUAFUAFUoEUoEART8Q5Qui2jePBX9JZRituSxgNTzR6mLBRSH6Qnr9VfBU+PoDcvbfEk6GGq1CqqMLR7jqiHKYJpi3iL4CJRAVQAFUAFUAFDCiQBpjaAylbmF6tlFGtfOh5TxhvJAmZhqyZa+GT9vbf4SQdMTbWKosVQ1G7+VqS2vf5QPq8inwzx9CTsY2ro2cVhUAFUABVABVCBklPg4iuudAqP/M3t7dC+A5o2yRnuZUrHFxRAybaMMtHLVDqUz20HxdwiUWFyGTCV7WGa5VZRfkBGMC25dwguCBVABXwKVLWuhJ4DO9C/3bymFnbvrEONUAFUQFIBFkxdr6GVn8mHQUFlfkK9TL22+XqS+nJJ7Wb/ohxTC4i9O1SxnlNWQn+T/TJSlR8Fpun0MLVD6Yyn1fK5esP9VsdV6xumEImFY7tVlHU2ky7QVJgjxGMq6mGKYCr5JOJhqAAqkBsF2rRvBT0Hd4QlMzdybR4woiucecMYqKwqhw+fXwgz3lnBPa730M6wbf0uBNfcXHk0NA0FigWmNgB6KvOlWkYRYC6n0rBN/i3I9AKryV6mxsE0bg/TYrWKcuBWo1UUhvLTeKRxDlQAFUhSAeINPWPiaBh4YHdYMXcTvPnY3ABYisCU/Dgdf+EwOPCYvrBx1U549f5ZsH3zniTNxrFRgdwoYBxMQ3qZ+kGUC6Z09yj/Dk1Mdb27/ZRnG1Wnh74PTO3KfNlepsGtR93LmDiYhuWXFvyfliW0/z3bCsrXFspq+W8dah/HtIoK74kq+wAAIABJREFUpBb4PagqFfkhYOpNKyjkpzpuVcwxzc2bAQ1FBVABrgIETE+9aiQMPWg/+oNFgPLtJ+bDivmbneOjwJR4W0+9ahQMGNmVnr95zS5445E5sGHlDlQcFUAFAMAGUy8o+mGQ3XHJbMsoZ14bKhXA1D5XBKb0OKuDv3PNw1pa2Qf480y1wdTvGQ3s+iTbXL8EWkWhxxTfOahAcgqQ19shXbrCST16wIebNsJHGzc6u8wlN2vLHfmIs4fA+FMGQFWrCti3pwGmvrgIZr63kgoSBqY9B3WCU68cCV16tYXmpmZYMmcjvD1pPobyW+5thCvnKMAHU2wZpQSmHvgsiMzzTnK3IzUEprZTUrtVlOVm9W6XylbkBzy2iq2iCmCNxU/4HkIFklHg8K7d4KejRkHr8nJobG6G386bB+9v3JDMZDkf9dIfHw49BljFSdMmL4MPnlsIx1ywP4w/eSD9u40rd8ITv/pEuMqh4/aD4y8aDu06tYbabfvg5ftmwbql27hgSmD1tGtHA/GY1tc1wrS3lsMnLy8WznH2jWOBzEM+i2duhJfu/QLGndgfjj5/f6ioLIcdm/fA/90zg3pe8YMKlIICFEzJp5Df6d+WM6wyP81eptS80GIsp/IpkGOaZJN9T/GTFJim2MPUX3BkMaWvIMrfD5Wxz1lPCJharaPcgiv+rk/8XqqlCqbl5RXQvWdf6N13CNS0bUdvxsaGetiyeT2sXPol7NmDPxpZf2G2q6yCM3r1glN69YSe1TXQqlDJuaexAWobGmHe9u3w10ULYVsdv8J6cLt2MHHQENivpjX81+zZsGZPujmDp/TsCd8bNhzKC6GhuxYsgNfXrsm67EWx75ybD4IhY7t7wJSFPVkwJQMQL+jxFx4A/3prGSyaYf1DIMxjevTX94dBB3aHKc8s8IT+o0RggdkGU3v81jWVCKZFuYNw0iQV0AVTCn3Obk822xZC/sye97q9TC0YJWfbOadhXQJcMLX42k07kAZTm3yZgipRy6jEwTQPraIo8DJ5r3Y3ALuHKQ+QSxFM23foDAeMHA/VNW25z2pTUyMs/HIGbFq/OslnGceOoQDxNv5wxHAgcBr2IUD6/RnTQ4Hz9F694bvDhlFwjTouhpmRp3aqagU/HjkSDuzcGWZv3Qq/mTcPttVjmyKeaDaYNjY0OVXzLJjaAMieO2pCb9ivv+VlFX1atamE/cf1gPLyMlg6ZxPUbt0rOoV+v2HFDpj7sfcfEyyY2t5dFkxVIFrKCDwIFSiyAn4wZYHQ9VK6BUlu/REDphYRuh7LHLWM0m2yrwWmdn6pBXRO0ii9BfzFT1FgGl6RXxiJLZDKUKsossZnJk0q8i1vdvrKqlYw+qCjoG27DrCrdhssWTgHdm6ziiA6de0BQ4eNhVata6jHdO4XH8G+vel60cyutjRHG9quPfxyzFjo2KoKNu/bB0+tWA5TNqyHnfUNdMHtqyphQJt2MKZTJ3h17ZpQj2mxwbQ0r04yqzr58pEw+ug+wIIpAc8TLhkOla0qnJA5OzvrZU3GKjdUz45/2OmDgOSzlleUOWkHpM3U2TeNgTbtWkmnHSRlM46LCphW4KIrrghtbp90L1MbgnVaRlEMJl5bt1kplcbTMop+bynmr8z3FDNZhljH+f6X1Zv9rmTANAjIBWhm+p2G7fqk2sO0FMGUgkvHLrBfz36wbPFcaGywYMb+dOvRBw4YcTDtcbZ04WxYs2qJ6WcYx4upwK0HDIczeveC7XX18LNZM2FR7U6tERFMtWQrykm2F7Khvgnef24BzJqyygm/k/D4nA9Xw+Qn5nlsk/GYtutcDQNHdaW5n+TT1Ngc22Nqe3IJmE5/azl88PxC6Nq7LXztlnHQoWsNrFywBZ67a1pRdMRJUYEkFEgETJmWUTyPZKDC3YZBwe5PLDiWLpja7Z18RVF2VZLbIF+tVRQRj9dc35NPWrjD7Gb7Hq8t0xXAzjGVAVN3fMsrXGoeU9FD2ap1NYw5+FhoXV0DG9avgoXz8AdEpFma39dUVMBvxh4Ewzp0gCW1tfCjmTMcT6nIjoO7dIHbR42G6ooK0aHO9/68z941NfCHcQdDp1atgHz3xto1cFT37nDlwEHQt00bmsm0vb4enl2xAl5YvQqa3CpHOqYNw34D9jY2wh1z58D0LVtCbbtp6P5wft++MG3LZvjZrFkwsmNHuGnIUBjavj1UlJVRHSavWwuPLVsKexobueN0rGoFNw4dAod16UY9y2GfKG3LW7eG/pdcAe1HjoCG7TtgxZOPw65lS6U11TnQBlNSTU96iC6fv9kDpnbIXHZs2pf04mEwakIf6uT4avp6GHxgd9pgf/vGPdTbOWfqGlq1X7/P+49X0Rw2mJLj7Gb9LJjy0g5EY+L3qECWFWDB1AY/O7dT22OaoV6muk32hTmmDz/7ihOZly1+CrSKsmiR3h9OKD9jYOrU6bM9VDV7mLZ0MN20YTUsmPuvLL8PWpxtBPx+OXYsHNy5Cw3jE0BbtqtWSgfTYHrfokUwrktnGN+5i1PAZBtCgPTF1avhb4sWelpAmQHTLXTN5/ftF5iXzP/xpo3wq3nzoL6wC5xt0/guXeEnI0fQvFxi3+5GC7jaVFQ649Q1NdG/X1a7C/7fnDmwq3AMK3C3o4+FXud8zQlX7V6xHBb/7a/QnJP82AMO7gGHnzMEuvRoA/t2N8DHLy+Gbet3052fqqorYd+ueqhuU0l7lhIoXbFgC0x7YzmsWbJN6j7Dg1CBlqaACExtWLU9lNZ/m+1l6gnlG26yHwam7ro0tyVNAkwpo3oa6LvAmqnm+s2KraIs8m6RHlPiKT2QeExbV8PK5QtgxZIvW9o7JvPrPb9fP7hh8BAKU6v37KEAJQun7OJ0Qvmsx3RXQwO0rayEVbt3w58XfgWztm2D7q1bw49HjoIRHTrA9vo6+PEXM2FpBDjbNqh4TIkvtKy5GXY01AOB4/c2bIAuVVXw/REjKLDzxiKFVr8bdxD0b9M2oFm/Nm1o26pBbdvBxr174YdfzIB1e8OLf7ofdzz0OvMcJ59q77q1sPjev0Dj7t2ZvncIkB5y+kDo3qc9/RXZsnYXvDVpPrdd1PplO2D8aQOg/7AuQBr0kx6m2zft0faiZloYNA4ViKlAOJgm18uUt8MSzRdNsMm+6u5PUR5TCrVRYMp6UEND5faFYzymJsHUCsdbkwhbRdGDku9h2hI9pvv16g9Dhx0EzU2NMHfmJ7Bju7s7TMxnF083pABpC/WTkaNgQrdudETi/ZuxdSs8sXwZzN++XbpJfVwwJfN+umUz/G7ePE/o/Mhu3ah9JLz+xwVfwlvr1oWuXAdMyWAb9+2D/54925NfS9pfkTSHDlVVMGnZMpjEhNdtm8i5d86fB1M2eveMt78nsH/n/Pnw7ob1oTa36twZBk68Hqp79IKmhnpY9/qrsOn9KYaurtlhSA/S8acOgGGH9IK2HVtRLy/JUyUh+g9fWEiBk3zC2kURKCVN+Ucf1cc5H72oZq8RjpZ/BRwwpbRlwWgWe5k6RUy+bUmp2TR1wLoWnuIn60urB6pzgKHdnxBM+a2iLMbl9zBtaWBaXdMGRo2dANU17WDrlg3w5ezPgLSOwk/2FCBweu2gwXBWnz5O/1JiJQnv/9+q1fDSmlWheZb2auKC6edbNlNvLQl/sx9/HmpUb1IdMN3d0Ai/njcHPvflo5Kc0d+OHQcEUJ9ftYqmEciuVcVm+p6uqITW3btD/Y7tmfSUDj+8Fxxx5mDo2K3G2TebVPQvm7sJ3n/2q8A+9x271sCYY/vS3NIF0zZQL6r/w3pcSWiPQO3G1Tvh4xeXwNI5XtDP3hODFqECySmAYMoP5TvAy0jv8fQaAVOmkMHyapoL5St5TA0214/qYdqSwLSisgpGHng4dOjUFerq98G8L6bCrlrcCzu5V5mZkUm+5Ll9+sDX+/X19DQl/UD/snAhfLAhfCeluGDqhz+dFemAaVhhUhSYnrBfD7htxAjqXf71vLkwddMmj7kqHlOddaZ9DvGUnnvLOOg5sAPs3VUPi2dthGlvLoMt6/gbZxCP6WFnDqaw+emrS2jlfNin9+BOcOTXhkLvIZ2gdtte3MUp7YuL82VOAR6YulBW8DZ6Gt27LZiSbrLvgiDT9imux7TgRWXBk/pQOW2iIrclNQmm/h6mxJ6winj3u+iqfKNgqlmR79jK9FJtCVX5ZBeoIcMPgv169KUeUmyun7n3ntAgEoImfUuvGzwEhrRrR/NPyTaff164AF5bs5Z7fksC026tWsFvDhpHOwf483LZHNMVu3fBv8/4oiQa/Xfv2w7adaqBZfM2OSH7sBvJ7j26d089vPy3WbBm0VbhPUfGb9O+Ne0QgB9UoCUrQMCUcllIqyadynwrtM405bcFDk0TKKQQuPF4b49S2rPUGsQLq97eo54m/+4Jwl6miYGpp1rfn8NpURtdVBbBtLkQTjTZw5SstdTB1A+li778AjauX9WS3zG5Xjt5OZzYoyd8a/8DoE1lBUSBVksCU3JRLx8wEK4cNIheX15Vfm1DPfx63nzajirvn/Zda+i2o207VkstpaZdFQ3719c1wtb1u0A2g2fX9r3w3rNfwc7NuBGHlNB4UEkqkASYUoDU2P3JzQP15rpaHQHSAVMWfmN7TNMCUzcjIDy307M9qC8P1AVkxlNrAEz9PUxLHUwrKith6PCDoFv3PugpLbHXJQHTc/r0AVI5//NZM2H+jmBaRksCU3u3rKrycpixdQvtgdqxqop6lkn/08+2bIL7Fi2mnQRK4cP2DU1yPTs278FQfpIC49i5UMAPpjaYxe5lahhMLbuS95iWHJi63lh/6J/5b06OqarH1AXfgg+Y2TnKbhVFjnn2iSdy8WCoGolQqqpYvo6/YuAguGLgQNjT0Aj/NXc2zNwaDM3aYBp1jH/VbJFQnnJM7eb807dugZ/NnCnduSDsqme9+Km6XRWMPbYfkFxT0adNh1YweEx3Z/enur2NsGTmBiDN/EWf3TvrYOb7K2Fvbb3oUOXvyY96t27doaGhAbZuDc95VR4YT0AFDCtw4eWXW2HzQiifB6YurLEV+24vU3ZbULflk7UjmzV24SMI5dPjmZQCNmyfWTCVba5v4Zr1CW4DakNiSPETk+Ppns96R22Fgx5TFkz9bazibkfqjkcKt4Lg6/eYliqYslDa0FgPC+fPgC0b+XmIhp9fHC4FBUjF/i/GjKU5pySf8rYZ02FrXdATeEiXLvAfo0dDVVk53L9kMTy/cqXQuryC6S/HjAHSYN8EmHraRdXVwep/Pgtbp+dzhzRSXX/+t8dB/xFdYdf2fXRL0vZdqmHdsh3w4j0zgIBnMT7kx/TiS66AkaMPpL9EM6ZPgxf++az7W1QMo3BOVCBEgWgwFfQyLQAtF0wNbEuaKpja5MvksUbu/mQXPyUJpuyuSyzQWnPywdQDiEzRUdztSN1xFZvr+3qplprH1OMpbWyAxQvnwLYt4T0bmxqboKGhOD9O+BYMKtCjupq2ifpi2zaYvW0r7edpt2siQDq8Qwe4ZtBg+r/k89SK5fD4Uv52mWzTeVLFf/+ixfDBxg2B9k+sFXkF01sPGA5n9O5Fm+8/uWw5fLjJ6lZAgD1s+9Kw+y+vDfZ56yHbkhLPKvnMeHcFbbp/3EXD6Nakqxdto9ufFgNOO3fuAhNvuBk6depMbdu3bx888/cn4KsF8/G1gApkTgEPmFI4i9fL1NNHlPWQ+sDP32Tfs/sTE7K3Uwrs00XFT9YSXM+u3cfU/nt6AXwV+KxH1/raV1TFXDXnO1UwdfYvVfCYisDUGz6n6Or1XMYEU+52pKq7PpU4mLbr0BlGHTQBKiuqpB5u3JZUSqbUDmLBMGpSUtzz6to1dGckf59R9jySh3rz0P1pM3ze564FC4DtQxoHTNl2TiLBeLs32eF4nXZRA9u2hf8+cAwQsA/7kO1HZ2/dDg8uWQQrI3ZxyvuWpPRHo7wMjvn6/jD2uH40hM96SI/++v4w7oT+9O9JIdQH//wKlszyttcSXb+431dVVcEVV02EwUOGOkO9+cZr8MGUd+IOjeejAsYVMA2mHjBMAExdcAxuBMA22Xe9uEzhlK/JvgeOecDK+W1BMI0AU1EP01IM5SOYGn8npTpgTUUFXD1oEJB970nxDuljakMlaQ9FPKhfbN0C/1y5ilbky3xIIdCNQ4bAgLZtoaai0nNKqYBp35o28N9jxkCfmhoK6rsbrfzJyrIyaFNRSYug7E9YA3/7+/LWraH/JVdA+5EjoGHnTlj1j2dh55fzZKTOxDGkzdMJl46AXgM7UkDduKoWXntwlqfH6YRzhsD4UwZSzynZKWrJrI3w0fMLA435k1xQjx694Oprr4f2Be8/gmmSauPYcRQIA1MvANpeRKYFlFMl7+aSBsAQwdRJDvUUB8jmmGbNY2q1jnLzYfkpBRFe26YmePbJJ+Pcr3guKoAKFFkB1lNLvK3/MXsW3SGL/ZA0CNKEn3hlSZutTzdvgv+cPbvIlpubngDokLHd4eAT+0PPQZ3oDk+kmT4J17/12FwucA4dtx8cd9FwaN+pNTWE7BxFPKvzpq6Gr6ZvALI1adKf62/6FgwYMBAa6hvgheefgZlfzEh6ShwfFVBW4MLLLnNbOyn0MnX73FuFU/5tQe1epm6I3htC1w3le4E52MeUfq8YyrfO4YT4i+Ux9TTXJ4YFip/sPE+maIpeerlQvr9QicCmpzCrUFHvD+XbYGq3p0IwVX7e8ARUIPcKEO/y7aNGQ3VFBfx54Vfw8urV3DV1qKqC3x00DkjYn/Qy/dmsWbldO+lj2ndIJ+hF/v+gjtC5Z1vq/bQ/tdv2wccvLYK5U9dErrGqdSUce8H+MPywnkD+bH8I1O7ZVQ+kXdSyOZvgk1eWGNeqTZs2cN0Nt8B+PXrQqvyH7r8Xtm0TN/43bggOiAoIFNAFU4fj2AIoZr96EZi6gOnLaQ2BY4YbmRxQxlvr0GWhst/OFaVeW0sEt09qMIcUwdSX+0qLpRwitjoJIJji+wQVQAVGdOhAuxS0raykVfl/mD8fNvm6FJCUiBuGDIFTevakb5G/LloYCrB5UHTYoT3hpMtGQqvqCg9Mbt+0B2Z/sBqmv7NcuBsUu07Sdmr8qQPggEN6QbsOrWgKAPmQ1lJvPzkPFny+zqgsHTt1gq9fcDEMGjyEvsvfmfwGTHkP80uNioyDGVMgaTC1ATQK/GhLKbvgCMGU8XoyYEiEdCvreduR0iPc4qcm/65S/JZOvOb61IPqgKh1ryGYGnvmcCBUINcKkKb6Nw0dCmf26u3kku5pbIB9hU05yPdtC7m1pGjsxdWr4b7Fi+juUHn+nHXDGOizf2fYtn4XzRGd98laIxX2xBs7+sje0O+AzjQ/9d2nvzQm04Qjj4YTTz4VWrduDWVl5dDY2AAfT/0I3nz9FWwVZUxlHMi0AkbBtOC1dEP78tuSesC0UORoQ20h0B66+xPbror1jLpeW0u1kvCY+sPnFjTatwUfTLOy6xNp2o85pqYfYRwPFUhfAfJqH9GxI1zYvz+MaN8BSNjeLnjSLRpLfxWlP+Mxx50Ip5x6OuzbuwdWrFgBk996Hdau4adelL4auMK8KMADUxsIi7n7kx3Z8LeLcmG1gJqMt5UtvnKOK7VQfl7BlNpNdn7C4qe8vBvQTlQAFUAFUAFUIHUFCJhavT6jd3/i9w81v/uTu3MUmwdq/7ng+XQrryy73SRSj2e0hXlMfeF9JpSftMfU20+1kAbgVEjRBAMrbIRgmvoDjhOiAqgAKoAKoAJ5UkAWTF1PZbLbkvLB1PaOIpgW8oJ4OabB7UiJXA4UMsVN3t2h7FxUd6tUEnK3z2U7AoQVPyGY5umRR1tRAVQAFUAFUIHsKpBVMPXvQEUzRJ3eqXbv5oKnFz2mFkbS/1soXHLrpkT72PvA1D6/ALUIptl9eNEyVAAVQAVQAVSg1BRIFEwJMDppAgXlmO0+/Vt/OukEloPUG6ZHMBVV5euDKa+HKesx9fRVpeDqele9vVMLZzFwS3vyYyi/1N4buB5UABVABVABVCARBXTAlHKjXVRk56Y6fUN5fUQLOaLWiXQdnhZR7N+5FUwIpvy96glGqofynd2mPG2nrJJ+meb6LqgimCbyJOKgqAAqgAqgAqgAKgBJgKnl8LR3g2J7lIp3f3JbOsl7TG3QLemqfG8BkxyY2sjp9j+17njPf6uAabO941SYx1TgtcXiJ3zloAKoACqACqACqECEAgEwtagy1KPp9hRlcz6ZHZgUdn+S2ZbU2w3AWgi/QwAxuvB94Q8lVZWPYIrPMSqACqACqAAqgAqUugIIpjbMer25XgB27wInL/bhZ1+h7kE2RG4fFrUXveecQksl17NZCK37/p7madp/R/+X9Uw6s3q9oYXczoCHFD2mpf5M4/pQAVQAFUAFUIHcKpAnMLVgET2miYCpA9jsdqSUalkoxlB+bp90NBwVaIEK9BjQAarbVEHt9r2wec2uFqgALhkVyJ8CaYCp7X2kkXZO8ZPzvf0dzSUI5pgimDoeWn2PqaiHKS2GonmnhZIoBNP8PdVoMSrQQhQYPLY7rFuyPXTP+st/egR079ceFs/cCC/d+wVXlS4920JFZRndpx4/qAAqUHwFUgfTAl1yW0UhmMYL5Xuh02rTRJ2ebG9SNiXASRlgUhJCwNRurm+Nh8VPxX900QJUoGUrcMipA+GIs4fArh374O0n5sOK+ZsDgojAdNihPeG4C4dBeVkZvPvMl7Dg83UtW1RcPSqQAQVMgCntVepU4VuLYqvyPR5TRTC1z3WLrjCUHxrKNwGmol2fvGDq99wGq/IdOC7sJvXsk09m4LZHE1ABVCDvCow7aQAccdZgaF1TCfV1jTDtreXwycuLPcuKAlMCteNPGQBVrSpg354GmPriIpj53sq8y4L2owK5V4CCKQHJ8kJlfUgYnZfb6W5Zz4CpRaUUTD3jUngtfJj97VnPqfNnxgYEU0qCcsVPaYBpwcka2BrV+nsE09y/EXABqECOFOg/oiucdPkI6Ni1BpqbmmHh9A3w2sOz6Z/JhwemVa0r4dSrRsLQg/aDsvIy2Lp+F7z79AKuxzVHUqCpqEDJKBAHTC1otP6P4yFFMPVDJKeJvX37+KvyCy9Tz05LOQPTUDhGj2nJvDRwIaiACQXOvnEsDB23Hx3q/7N3HvBRXVf+/2mKeu+9F4SECsUYm2aasY1tMO4m7m2T/e9ms9n0skk2ZbPZ7G52k9hxt8HYxhhsYxtjwIApxhhUQAIJCRXUe2+jkf6fc0dv9GY0I42mqKBzN5/Fmnm3/d67M98595xzJR/Q7DXRWL4lCUqVAh3NvXj/LzkTBi0RlN78aBrCEnwxpB3Glx+V4sz+cpNg6uKmxh3fzEJEoq+A14rCZhx4vcCsj6o0z4xVkVi5NQUq9ei46L07v5kN7wA3aAeHcHzPZeQcrrSHNNwGKzCnFRgPTOXWSvPR8DMcTIU1WDp5Skp0qrfd6nOiGgdmjc7d8PGwOV2UQXopBtNrYvEpFEoEBIYhODwaXl6+UKrUwqI8MNCPlsZaVFUWY6C/75qY67U2iXA3N/wxeyF8nZ3HTK1bO4iyrm4crKvD4fo6DIz8uHKEBm5KJR6PT8B1AQHYUV6GA3XXvq/jiq1JWLQu1gBMY1IDcOtTGWJ73lIwpQbICrrx0XR0tPbi6DtF+ltkymIalx6ElfckC39S461/c/fW3Lik9hlMHbEquM25qgCDqenjUq0GU+OjP8WDZXy6kvS0MZheE+suKjYF0XHzzM5lUKvB5Ys5AlK5zCwFxgNT+Ugb+/rwm8ICXOzocMgE5OP476Ii7K+tcUg/M6lROZiePViOL3ZfhhwAG692YsdvvjQYcmicL1IWBUOh1PmeTVTiM4Lg5e8qIu5rSlonuly839M5gLxjV9HXpdFfb25cEpiSj+rHL+SjwkQAlkWd8kWsACugV4DB1DyYmoLTCS2m1oKpLm++0VGjJlM2mU+wPxN8TOfiVn5EdBI8vXxQW1WGrs42DA1pQVbUwKAwxCSlw1ntgp7uTlzIPQHNQD9//MwgBeRAuKeqCs+XXBajoyjtOE8P3B4egTUhoXBWKNAzqMVvCy/gTEuL3WcwF8H0uo1xIqpeoXSCBKbhiX7Y9EwG3D2dYQpM5Vv9dr8JIw2astSGxvpg0zOZ8PR1MRjXvd9dgvAEXxE8xWDqqDvC7c41BeYCmAofWFlAlpRLVQ6eprbyHQumUhSRCBmi3KFmwFRKJ2rByU8MpjNv+QaHRSMxJUsMrOjCGTQ3sdV0Jt0lc2AqH+MSf3/8cH463FVKYTH9UV4uerVau05jLoKpBJkEpuc+q8AXey4jINxD77d5tagFu//7rIHOllhMyQ80LiMI7l6j7hm2Wkzl46qv6MDO350W47r92SwkZAahq60f+57PQ115u12fC26MFZiLClxTYCpIUpYRQEobYAymOuIUt3s0E8DY1xhMZVAs5TGdKCp/PIspvffuzp1zap15evshLWsZVEo1LhGYNl77W7Sz6QZbAqY0n0fj4nF/TAz6h4bwm4ICnG5u0k+TPkpiPDyxOTICGb5+CHRxERbWoeFhdA5qcK61FW+UlaGmt1dfx0utwr9nZiPe09Niuc62NOPH+fkmr49yd8cT8YnI9POBm1Il+m7s78eeqqv4oLpa/D1RCVq1GiHrN5JXPhoPf4b6Q59NVMWm9yUwpUakwCE5AI6XFN9cx/OWhmH55iR4+DijuqQNrh5qBIZ7orWhBypnpYi8P3ugHC11kzsFyty4JDCdjD+sTaJxZVZgDihw9wMPCDgzlS5qFMxGLI6j+aFGgW4mReXPJDA1DnKSvhbkR39Kz9e1bjEVcx5J3D9XwVSpULHFdAZ+oFoKpgSQv8vMgreWQO4VAAAgAElEQVRajQ+rq/Hny8X62Vjip9o1qMFvCy+C4JKKvcCUPn/viIjEEwkJAoYpQKtHOwgXhUIAKpWizk78PD8fbZoBs3fANTgE8U//HVTe3uIabW8Pyl99Gd1lV2bgXRs7JDq9iaL5Y9MCxZuXc+qx/5ULePAHS8XJT/09GgGmFO1P0fhN1V3IPVKJwi9r9amlZsVEeZCswBxQQAJT3Xa3Lu2TdBzoXAXT0XnLk/nrHgaLfUwdDaajlkkZ3hqc6mTdyU8TJdi3xmI6l8E0IioRsYlp6O/vw4Wc4+jrnZylZg58Bk3rFC0FUwLS32dlI9bDAxfa2/HDvFxoRqL0Q11d8cO0dJxtbsap5iZUdHcLQKRI+61R0XggJgZKJydcaG/DT/PzTboBWLuVf2NQEL6XOh9qJyccqKvF8yUlon0CVvKN/VZSsnBBONbQgN8WFkhe62M0dwsLR9zTz0LlobPgDvX3o2LHG+i8VDit92eizglIl92egLgFQSKVU1+3Bqc/KUPOoQpRVR6Vf2hHIRZtiEHK4jBhUaUPc7q+NL/RKivqRGPj91kBVsA6BWYjmBoCs+GWvD228hlMR/xe9bFXIquAZPXUPWg6MB578pP8+FNRRfjPzj2LKT2WwaHRiE1Oh8JJgZJLuWisr7JulXIthylgKZjS/fx1ZiYW+vnjSlcXvp+Xg07N4ITjonrfTpmHm8PC0KHR4Ad5uaK+cbEGTAl8f5eVjRQvL+S3teEn+XljUlrdExWNx+Lj0acdws/O5ws4NlUI0iLuuQ9+ixYL60RHYSEq3nwDw+NYWSecvIMuoPx/868PQ9bqaARGeIp8gGQFpa37z14vQHvzqMuEuZOfkheGYPHNsQiK9NLXZyuqg24YN8sKTFIBc2AqwZnOQjiztvJnDJgaWEVHhDfwsdQRnA7kjN4ffV2Cu8kFP81ki+mou8LcAtOE5Ez4B4aIO61SO4vI/IH+XhRfzEF7a+MklyZfPhUKWAqmNJZfZ2RgkX/ApMCU6m0MC8e3U1LQp9XilwUXcM5EVL81YLo0IBA/SksDJU4ia+jJplG/V0m7SDd3/OfCbPionfFiaQnevTr+kZvO/v6i6oADMg/Yej/9gt2x9qH5CI3zEdZR8bk6NCz8RU+8fxlX8sfOn/Kkege4oqGyAwWnxvp3G1tc6bOru30AF45X4cuPZocbg626cn1WYKYpMJfAVACtdDCqqeAnHfGKWyQ/KtX4ngmXh1d2fTTMYMoWU/nDkZK2GIHBEWPWOG3fl5cUcET+TPv0AzCbwXRbbBy2xcaibWAA38k5ZxBcJUkt92X9rK4O/3np4gy8C5YPafV9KchcGYWhoWHUlXeINFNX8kz/6HP1VGPNA6nw9ndDaV69/jQoU71RBD+lrkpZEiqgl09xsvye8JWsgL0VYDCV5TF1FJjK42GNg5/EFrlkLDWVx9RMuqiZYjE1HIdu236uWkzli5OspZ5evoiMSYavf5B4q7KsCFUVo6fS2Hsxc3uTV8BSMJ1oK5/yni7y88fqkBAkeXmKICmpqBUKeChVdreYPpOYhC2Rkbrof80ghp3GRt7TuD1VauHjOl5U/+SVm54aBJvRKf6oKm6d8BhRKfeou48LznxyBac+LJ1w0HSCVHxGIIrP1nNQ1IRq8QWsgGMUmAyYjloSdYFSeo4bCZqSXjPw81Todlx0gVUjZSTQarS9kfelNs0EYMm4caR/+Tik40bNp4sS9c1YTHXvOchiymA693xM9c+6QoGklCwEhUZxAJRjPsNsatVSMPVzdsYfshciws1NpIr6+fnz+n7DXN3wk7R0JHiNn/rJ3lv5EphaKsCxxgaR6mo2lxVbkhCRrHM3mKhQBL5/qDuclAq01XdjoM+y3LND2iGcO1SBkpyGibrg91kBVsABCjCY6nF5ZoGpZEmVByDR/ZeCjthi6oDV4KAmffwCMT/jejg5KThllIM0trZZS8F0ob8/fpaWDlelEtvLy7G9vEx0SSma/i0jExm+vsIi+mZ5BT6pqzYIjHKUj6kEpuNt5Vury0ytJ+UNdeT4+Nx7R6rLbbMCEytwLYIpzVokvjJKsC+9LlQx8iXVvTeDLKYMphM/vLPlCj//YKRmLAVZYgryTqKzw7Izu2fL/GbzOC0BU9qK/0laGijYqF0zgB/k5qGsWxdZn+rtLcDUQ6XCWxUVeNVE3s/JgikFKFGg0kRlfWgo/illnojENxdUNVEbxu/P5OAnGmvasnAER+tyrY5XKFI/MSsY7t66058oSKrqcitaaidO10brtOhsA+rKTGcwmKjvid738vaGu5sHmpoaoLXzCWIT9c3vswKzQQEG0ym0mBrnNhUfmGZ8TGcymI7OY9SfVOceyz6mxoueTq5ImpeNoJBIdHW24ULuSWgHNbPhs2FOjHEiMKWPh3ujo/FwXLzw03y/ugrPXb6sz7Iht6T+3+Vi7KuuNtCNouG/Pz9VpJkabytfnic1t61V5DuV8qSauxGUP/U/srIR5OqKU01NIjKfINWaYpwuqvXc16h6561Rf3FrGp3GOtfdEoelt8aLERCMBkZ6or97EAffLJzWLfrFS5bi1tvvhFqlRn19Hba/9jLa2viH6jQ+Ktz1DFTAWjClqQi/0Wk4+UnqW5fGamweU/G+hRbT0bamwGJ6bYOpPEJfJDDVWSrmaB5TpUoFH99ARMelwMPTF0NDWs5lOgM/AM2BKeUIJei8PzoGCZ6eoOAmUycokc8p+Z6SDypZUX9feFH866t2xq3h4aA8om4qpZj5eGBK7/9j8jzcEh4G7fAw9tVUY2d5xbinNVGdpxISsCUySje+jg68dKUUlzo6BKCSm0GMhwfWhoQizM0Vf7h00Wzu1dmaYN/UI5WYHYx1D84HBUrVlbXj4PZC3PZ0BvxCPMSZ9od2XETZhelJ33b/A99A2oIM/bBPf3kC+z7YOwNXBg+JFZg+BUyCqY7sRsDTVPqk0dcYTI3unak8pmNymApik/Kbmo7Kn30W07kJps4urshYuBIurm5mV/GgRoOSohw0N9ZO30rnnk0qYMlxohT1frypEX8qKgYdLSov9FFIvp53REQIODQuVDevrU1E6qucFONuudOpUr/KyESQi4vJsZqKqif4pAT+q4ODTfYvNVTa2YXv5eagW2v6UIDZfiSpNE+C0tX3zoOnrwv6ujR6C2lcehDWPpQqXu/vHUTO4Uqc/vjKlEfer1q9BmvW3QzFSFRwRUU5Xnz+z7w6WQFWQKYAg6ksZ6kAcgfkMbUvmOq26iwNfjIGZYO/Zcn/5aczifZ1xzaN9iM7+cn0Vj6DqfyTRTMwgO7udjTUVqKluQ7awYlPCeJPpqlXwByYksWxqb8fXzU344PqKpM5QqXREpASmJLlkqCS/u7VDoqjSylQqlOjwR+zF4rAqYl8QWnr/+nEBCz294eXSm0Am+bSPdFH1mL/AGyNikKSt5dITUWFxlDZ04vDdXU4VF8/BqqN1Q5atRoh6zcCTgo0n/gCdZ/smzVb+ZTmaeXWJKReHy7ykPb3aHDs3WKDpPrRqQFYv20+vPxdBZA2Vnfiy32lJhPzO+pJpC2+bzzyBJKSU0QXDKaOUprbnc0K2BNMdVxHplajlE0j6aEmShcl1RcpnUYstvo2R9I8jcYzSQA5mo5K3Ad91ijLgp9G2581W/kWgOnQqDWWwXQ2L08eOyvACoynQHCUNzJvihKBTi5uOiDvbOvH0XcumfQl9Qlww/qH0xCR6Ks/irS9qReXc+qR/0U1OmXHmTpK+RWr1mDDzbeI5vPzcrDr7Tcd1RW3ywrMSgVmLJgSYyrk1ktZ3lSDk5kYTEcePFkg0iTA1MCaK0uOzxbTWbmeedCswDWrAFlFw+N9EJHsh7A4HwRFeMHFQ6UPNBjUDOHilzU4tvsyNP3j71Ck3RCO629PhKePs74+/YjX9GnR2dqHpuouHH+vWECuvcsdm7diyXXXY3BwEB/s3Y2cc1/buwtujxWY1QpMJZjqDZpmEuwbWEwZTPXRQ+IBGz1RaXTLXPe69PxZDqby06dMgancv3XU4ipZake396UofGl8BuOc48FPs/pTgQfPCsxABejY0K3fXoSA8NGDDOjziaLtS/Mb8NXHZWifhMWTLB/zrw9D5uooBIZ7QaHUWT+ozYITNTi4o9CuKiiVSqxdtwHX37hCROVfKS3B9tdfhkbDWTrsKjQ3NusVsAuYCgumzHJpvJ0uB1EdfQrddFH9Y306pdOZLLGYSpH58lOndAB8DW7lS8n1DUGQwXTWr0KeACvAClikAEEkpYHqbh9ATUkrCk7WoOFqh0V1x7uIrLHJC4MRnxUEtVopIvcnA7njtR0SEoYHtz0MH19fKJUqAb6VFeV4e+d2dHbaPnabJ88NsAIzTAEG0xkW/KS3UI7mW9L/ip+pYCrlMDVrMR3JrUjjf3fnzhm2BHg4rAArwAo4ToGw8Ag8+vjTUDur0dzUhBPHjyIv59ysCSxznDLcMitgWgE9mIqtc4XsLHlDi6bOMilBnFG6qBlqMZWssjRwfdCUPjpKllhfstoaWXP19Y2kE5beV3Z9NGyQl3TkIlvTRV1LYKo/PIDBlD9/WAFWgBVgBVgBVsACBYzBVMCYLCpev0XOYKpXc0aDqS7tk26s+uT2BumlRn1RyUHVHj6m5iymDKYWrEC+hBVgBVgBVoAVYAX0CsxkMDVM8m86Kn88H9M5ZDGdIIeoQ8BU3ucIBkt5UUfgmMGUP2lYAVaAFWAFWAFWYDIKTASmergzsJiO2FXlW+QOCH4yPn1KcicYHZN8HPqIKzF9fQCVzv/gWt/KZzCdzEPP17ICrAArwAqwAqzAzFSAwfSaCH5yLJjqcpqOHp1qHIQlbeUbnio1cnoUWWvZx3Rmrn4eFSvACrACrAArMMMUsBeYCquklKLJTumi2GKq2yEXZfw8puODqTxIa7QdXRJUS3xMGUxn2Krl4bACrAArwAqwAteoAjMFTMX2u/7o0tFteXmu0zm7lW8Y6W8qwf5YMNX7d8pOczIE3MmDqZTMny2m1+inAU+LFWAFWAFWgBWYZgVsBVMdUOr+ny0WUzmYiv8eJzOAdK1OOqMk/TJrrf662e5jag5M5ac+GUCnCMw3gtWRB82UxdTgJChhRR09dUpcP7KVbwuYSn1wHtNpXvHcPSvACrACrAArMIMVIDDVQ6Fi5PQmGRSOQqA8j6kxEE4Mpvo+9CRrnCfV6CQoM2AqVTdMYyU7PYrBVJcuakIwlXxGZRH7YmtfD6K6p9ZWMNWlrxpNUcVgOoM/DXhorAArwAqwAqzANCsgB1Nd9LrO8in5d1oFpjpulVlQZQn5pflKfUmZ742PKGUwNbRaSpAoOZ3qLJ+SmpZt5RsGJ43UYTCd5iXI3bMCrAArwArYSwE6XjYgzAP1lR0YHtJ/SdqreW5nChSYbjAdBV+2mBpYFo230xlMp2A1cBesACvACrAC066Ak8IJKrUSmv5BMZaY1ADc+lQGVGoFju+5jJzDleJ1glC1swI9nQP6McelB+GWx9OhNLp22ifFA7BYAQbTWZAuyl4+pmwxtXhd8IWsACvACrACRgrc+8+LERDhZbMuA72DOPB6Aa4WtYxpKz4jECvuSkZnSx/2/F+OsHqaA9ONj6cjMSsEBaeqceTtInHtdRvjcP2mBAG1+/6Wb7IPmyfADThUAQZTBlPhRyoK+5g6dLFx46wAK8AKzGYFHvrR9QiKsh1M+3sH8fEL+ai42DxGjpQloVj74HxhCc07dlUApykwXbg2BjfcmQil0kl/HTW28bEFmHddKFpqu/HOH8+gr0szmyWfk2NnMGUwZTCdk0ufJ80KGCrgo3bG1uhIuClU2F5ejnbN6PYoa8UKkAIhMd5wdVdPWoyIJD+kL4+Au5ez+L5prunCJy+fR3NNt8m2Vt+XgsyVUdBqh3Hy/RJxvXwrv7O1D+senA8XDxWunG/EvufzhbXU1VONe7+zBP5hHrj0VR32v3J+0mPlCtOvAIMpgymD6fSvQx4BKzCtCqgVCvwqIwNZvn5iHBfa2/DT/Hz0arXTOi7u3H4KZKyKxMqtKcJPs6O5F+//JUc0fuc3s+Ed4Abt4JCB/6Y9eqZt+RvvTIJ/qAfIb7SrrR+nPixBwcmacZsnwNw8Mq4T719GV2u/AZgGR3khZUkYGq524oO/5Oh9TGPTA3X+pSoljrxzCReOV1s8jQd+sFSAN5WzB8vxxe7LWLE1CYvWxYrXGq92YsdvvrS4Pb7QegUYTBlMGUytXz9ma/oFhGBe+hIoFEpxTWXZJVwtL3JAT9zktaCAm1KJx+MTcF1AAHaUl+FAXd240wp3c8MfsxfC19nZ4um3DQzgOznnUNPbO6aOh1KF32dlI8HLU7x3pasL38/LQadGF3zCxVCBeE9PPB6XgGA3F/zr+fMmNZ1pmknb4S5uKj2YksVS2p63J5hSX8tuTxCgR0Da161B/rEqnPm0XB/QNJE+Lm46y2x/r8bkVj4FObU39aClbtTquuaBVCxYESHSC01UJPiUrrv92SwkZAaJP6X3stdEY/mWJChVCgbTiQS14/sMpgymDKZ2XFDUlNrZGWmZy+Dh6atvmcHUziJfY83JQfO/i4qwv3Z8i5K9wZTkXB8aim8mJgtl/1JSjM8mgONr7BZMajobw8Lx7ZQUjAf7k2pwCi6Wg6nc+ieBqTm/T9p+DwjX/WCpK+8Qvp833pmIorP1qDThI3r7M1mIWxAIhdIJg5ohFH9dh9MfXUF7cy98Atzg5e+Kqsut8Apwg3+wOwY1WtRcaRdb8QuWR2DZHYkCBOWFQJP6pTSSgwNaDA0ZCpb7eSVyPq/E3d9ehEALg7PMgakc0OVgWprXiA+fy52CO8VdMJgymDKY2vlzIDYhDRHRidAM9EOpVEKhVLHF1M4aX2vNTRZMzc3/1xkZWOQfwBZPBz8gsxFMQ2N9sOmZTHj6uhhY/+797hKEJ/jCHJhKcEaQ+emr57F4QxzC4n0EdOYcqsSpfaUG+UIl0K0rb8ehHYVorOoSdyM0zhcbvjEf3oFuOPtZOVTOCrFNLrkVkPVWDoKTuYUEmT2dGtxwewK0g8M4uL0AxWfrDZqQxlV2oRHv/3ksYK57aL7wg5WDadqycNx0/zyonJVgMJ3MHbHtWgZTBlMGU9vWkEFtbx9/pGZeD4WTAmWXLyAyJhkurm4MpnbU+FpsisF0dt3V2QimAeEeen/S+ooO7PzdaSG6tIVN/p/7ns8DAaW8yMGUIukph8tN96XAL8RDAGl1SRs+e71AWESpSAAot0gmZgdj9b3zBBQT+OUdvSqupch6OZiaegoWbYjF9bfFQ+2sFHVPvl+KCyeqxRa/VMgndcvfLxSuAwN92jFgKg+KKslpwL6/5Y3pSvInJeA+trsI+Uer9C4E5P5A/qoHdxTOrgd1lo6WwZTBlMHUTotXqVIhdcFS+PgGoq66HFcripGxcAWDqZ30dXQzCicnrA8JxZaoKBAoOo+c0TwwNIROjQaH6+vx0pVSs8OgqPanExNwnX8gvNQqDA0Po12jwYG6WrxVUWEQSETv/3tmNshX0dJytqUZP87PH/fyyVhMxxvDeH1JUPZhdTV2lJfje/NTRdBU56AGv794CedamvGNuDhsjYqCykmBz+vr8KfiYpCOxmUympmq+0BMDFYFB8NHrQbdv17tIIo6OvF6eRkK2w0Bi+pb8gPAFHQu9PfHz9LS4arU+YxbUiZyyfDNyEL4lrugcnNHy9kzqH73ndHPYks6mOQ1cjCVW/8kMDUHiMZgSimeaHt/w8NpiJkfIHxIO9v6cfSdSyDok4Pp8T0lWLYpAdlrowVYklX2y4+uIOdQhT6wyFy/1O66h1KRujScTqUU2/jDcMKQRivg89h7xbh0ulaocN0tcVh6a7xwARAWz70log+pyOduvIUvXSOBqdxyLHd/MFdvkreBL7dAAQZTBlMGUwsWiiWXhEfGIzYxHX193SjIPSl0zVi4ksHUEvGm+RpftTN+kZGBFC/zORrHg7WlAYH4l9R58FSpoR0eRtegBiqFAhRURKW+rw8/P5+P8m5doMa1AKa5ra0CtpcFBurvXlFHB75obMBj8QlQjgSgkB7/eemiAHt5maxm5uqaenToR8EH1dX4W2mJ+IEglZkCpkp3dyQ8+y24hoaJoQ0PDqJq9y60nj0zzSthbPemwJSuInBccVcSMldFCX/SK3lN+PD5XAMw7e0aFNvr9D5ZVA/tuKj3S5VA0BSYUhT/+m+kITTOW2zNF5yoxrylYQJuKZDKzUuNIe2wsLwWf12P257KEL6rdAKpwgnC3/ToO6PBpuYS9M84sXlAQgEGUwZTBlM7fBh4eHpjftYNUClVKLmUi8b6Kji7uDKY2kHbqWjiH5Pn4ZbwMPRptXizvAKf1FXrI9Ip8j3J0xNuKhWONTSMGU6ipxd+nZEJH2c1zrW24N8LL+pzgC7w9cUPUucjwMUFFzs68KO8XJMpmCwBJkt0mIzF1Lg9OSxbYjElrSgo5e2KCtD1v87MFBZSzdAwGvr68IuC8/heairSfXxFIBXBqVRs0SzNxwe/WLBA/Aio6e3BCyWlON2iS9Se4euLv09KRqS7u/iB8EJpCfZWVdkMpsZa2bqVr/L0RPyzfw/X4GAdmA4Po/bD99F0/Jglt3lKrzEHptIgstfGIDrVH5+9ViDSNhlbTG99YoHIfXpwe6F+u5/qmgJTgl2yfGatjoKrhxr9PRoce7dYpJmS8pie2FsifFwTs3Ta0elRbp7O8A5wRWt9t/Blpdd2//dZvU40xuWbE0XgFJ8GNaWPj1WdMZgymDKYWrV0Ris5KRRISVuMgMAwAaSXL9ExekMMpjbqOlXV5amSLNkul4+Ldhh/nJaO5UFBqOrpwQ9yc9A0YJiY/sagIHwvdT5UTk74r6JLOGgi2n02ginpIME2bXH/IXshItzc0DOoxc/O54tcqM8kJmFLZKQAV8kNwRbNKN/qT9LSQNbWxv5+/DQ/T2+Flu4LWb9/m5WJOA9PVPZ043s5uWgbOSzAEp0tgU5Lrpno+Q1etwEha9fBSalCT9VVVLz2MjQm3A8masfR708EptQ/AWVYvC9qSloNwDT/SBXcvF1QV9Y2ZpjGYNrVOoA7v5UloJN+8NDJTQfeKBR1TVk8l9+VhOybotHV3o9ju4rh7qWGp58rltwSj47GHuz+0zl0jvi9SoFNbQ2GrztaO27fOgUYTBlMGUytWzv6WkGhUUialwXNwAAu5J5Ab48uCpUtpjYKO0XVKYfo7zKzkOLtLSDnx/l5aO7vt6h3gp/fZWWCfCVfLC3Bu1d1QR3y4q1WixyhsR4eYyyH0nWWAJMlA5pKi2n/0BB+f7EQJxobDVwTyKr828ICESRjCkxt0Yx8culekabkt/tq2RWTspCf8FPxCcJqSmM52dQkrrNEZ0ug05JrLLlfah8fKFxcMNDY6FD/UkvGYu6aicBUJNHfkgwff1d8secy0m+IEMeW5h6pRGisL4IiPVH4Za2wfNL59VIxZTGlYKilt8Wh+GyD/nrawg+M8IRS+HwPo+hsgx50jXOZJi8KwbptaaILKTKfoPmBH1yH4CjvMZZUW3Thuo5TgMGUwZTB1Ib1RRH3aVk3wNXVAyVFeWioHXW4ZzC1QdgprnpPVDQei48XATTkH3qwrh57q66irq9v3JHcFByC76amQjM0hF8WXMC5lhaT10vAeKG9HT/MyxXXy4slwGSJJFMJpvIcnnI3AHnQjykwtUUzS+umenvj3zIy4aFS4f8uF2Nfte4EIEt0tgQ6LbnGkvs1G64xB6YEnKvumSdSTUk5Sy+erkVojLcAUwpMCkvwhU+gm5imPECK/ja3lU+BVd3tuh+G9N9bv71I5FGlnKl7/o92o0Z9ho31o9yoW/9hIXyD3fVR9FEp/rj1yQy4eKhx5pMrOPWh+QDG2XA/5sIYGUwZTBlMbVjpCcmZCI2IRWtLAy6d/wpDQ6NHODKY2iDsFFclIH00Pg5bI6P1QTs0BDov/vP6BrxbWTFmi57elwCFAmx6tIMYlAXayKfgrlSJKH9zJypZAkyWSDIbwNQWzSwFQrmee6qq8HzJZQZTSx4gE9cYgylthy+9LR7Ji0PF8aYEirXl7fh850WRs1TuY/rlvjKsf3g+EjODBbxSwFJJXgM+e70Q12+KG5PHlPKGBkfrjgWlQlBLkf9aqpdbj/7usSeRdTT3iZOapHLrExlIXhwCGueeP51D5k1RIj9qX/cgPn4xX1hNucxsBRhMGUwZTK1co9Kxo0NaLQrzT6Gzw9CPisHUSmGnsRoBzf0xMVgaECC256VCqY62l5Vj19UKsUUtFQmULB0yRa3/wEQA1FwEU2s0YzC1VDX7XScH0/KCJsQvCITaRZdtgoKSTn1YgoKToyeVmcpjStvxK+9Khru3bk1RhH5taTvmXRdqkMdUfiyopTMwPsOekuRTzlRKCvH1gXLQ9j7lXK290o53/vPMuBZXS/vk6xyrAIMpgymDqZVrLCo2BdFx8yZdm48nnbRk01Ih2t0DWyKjsCY0GC4KJcin8jcFBTjdrPNXpCKBEkWoj7eVP9EE5iKYWqOZpXrLt/LlrgWW6GwJ/FpyzUT3fLa8LwfTwpM1WLAyUgz94pc1OLb7soHfKL1uCkzpdXkKqI6WPlRdakHajREGYCq3mJKllLbkyQWgLL9xDFBK71cUNmHP/+bo5aRk+tLRpAO9g1CqdcebnvywFGcPjFpWZ4v+c3GcDKYMpgymVq58BlMrhZtl1QhyfpWRIdITybeFaRqZfn7417QFcFEq8L+Xi/BJjS7h92SLHJgogIoCqawps2Er3xbN5MBpLtiMdJOCnyjP6k/y80T2ACpynbeXl2N7eZmBzORu8cP5aSI3q9yH1vheSGDaO6jFvxacR15rq+qO3oYAACAASURBVDW3C7Mt+OmTl88jJNobV/Ib9EeNyicu9/E0lZCeApEo4T5ZLyNTfMds5Uttpd8YgVX3pojo/C/eK0beEcOgQul9up7yldJJUPIiT7hPr1Maqb3/m2OQrsqqG2ZBJTd3N/h4+6KlpQUDA5YFUVrQ7Jy6hMGUwZTB1EFLnrfyHSTsFDcb6OKCP2YvRLCr6xgwFRH9WdkiMX9pZ5eI6JdSE01mmPLI/dy2Vvw0P39MgJQl7c0GMLVFM3ldc+m5Ap2dxT2hXKbGWsp1Pt7YiF8XXNC7ZlAaKwrWuiMiQgTBjQemi/398dP0dKidFHjhSin2mMjGMNH9kqeL6iotQfmrL2HIwmwQE7Vtz/fHi8qns+4pB2tzTRcUSgVSl4UhKSsY5Gr95b5SfLXfEPzl4zKXYN8nwA2b/1+22H7v69KIYKX841V6iylF19/2TAboOnMBUV6+Lrjr24tEG+TX+tUnV8SJU44uSckpuPueB+Du4YHOjg68vfMNVFSwlXayujOYMpgymE521Vh4PYOphUJN82WUQP/+6GhxlGVhR7vIj0nBTAQqYe5ueDI+EdcHBEAzPDxmK5+GTon5/z4pRQRNUcL3l65cEdH5ZK0jwKHcniuCgrHQ3w9/uHjRbKS/lOSfUhztq6nGzvKKSUPubABTWzVbExKCf56XqtebjjvNb9P5d1OC/X9ITka4m7vIp/rLC+cFnMrLj9LSsDIoWLhmkNX1o5oa+KvV+GZyirjPw05OcBoeRodGg+/knENNr+4MeHmhXKm/z84CuXvQDxFK8k8nXpk6dtXU432tJNi/97tLRFS+cWlv6sUHf81Bc43upDNTxRyYklV14ZoYZK2NhqePs7Ca9nQMIP+LKhR/XYebH01HSIy3sH5+9Hw+Gq7qrOHysvq+FGSujBL5VanUlXfgg7/kiAMAHFnWbbgFq1av0XdRcrkYr73ygiO7vCbbZjBlMGUwddDSZjB1kLB2bla+vWuuaYLFXZWVeK3sikHwE11PX32PxMXjnmjDiH7jtig36j/nnDMLppTn9FcZmQhycTE5DEuS/08GTCcTuCXv25R/5WTSRdmqmSV6U8ovAlZTJ3XJT44yFrqxrw8fVtfgwdgYcQqYOTClerdHRODZxCSDLA7y9uS+rcb9XAtHktKcNj6eDsolqi/Dw2ip68GpfaX6o0fNranxjiQVz4jCCQuWR4iE+RKgkvWTovvJknrwzUKU5Iw9iW3xhlhcvylBnzFALFA6Fpjg9K+5DoXTBQsysGXrfVA764K8mpoa8fKLzwnrKRfLFWAwZTBlMLV8vUzqSgbTSck1bReTxfTvEpMw38cHniol3EbOtyeraeegBoUdHSKZO0XUj1coQT9F9M/39oaXSi2spWRBq+vrxZH6BhyorTGZckreJmUCeDoxAbRVLLUhvX8tgak0J1s0o7rbYmOR7uMj7hndr3aNRgSnbS8rG1drcr34ZlIyEr28BFiSdfVUcyP+VlKKWE8P4TfcPzQ+mNIc6Jl5OiEBMR4e+udGmtt4YErX+GZkIXzLXVC5uaMtLxdV7+2adVv5tizaicBUatvFTY1NT2cgap6/vjtK1E9QeubTcrTUjVpll92egEXrYwWUErweeacIWWuiERrrLb7nCE4/eem8Q31NN92+Bdddv0xYehlMrXtCGEwZTBlMrVs7XIsVYAVYgWteAcnHVKFwgmZgyG4nVCmVTlA5Kw2i8uViUnL9RRtikHpduEgzRWBJOUvVzkp92int4BByDlfgxPulWPdQKlKXhustqp+/cwlFZ+pENoBbnsgQJ1BRMU70b+8bmJGZjc1b74FapcbVqxV44bk/200ze491prbHYMpgymA6U1cnj4sVYAVYgWlWQAJTpUqXdsnepaO5F+//ReePSlH9KYtCkJgVLE6Pkvrs69Yg98hVnP74ClRqJW64PR6p14djUDOEgzsKcd3NseKUKeGP2jmAo7uKBJRKxRhOySWg6EwtPn2twN7TwQ3LV+LmWzYJD4JjRz/HwQOf2L2Pa71BBlMGUwbTa32V8/xYAVaAFbBSAbJc0pGgZDG1Z6HTmdJuGM1j2t0xoM8/Sv2QhbS7fQCXztTi9EdlY/KlUlS+h58rlt+ZgPBEPzG0tsYe7H+lAHVlhoed0Hs0jw0Pp4mTpAYHh0ymmbJlfgTFtIW/du3NcHN3R0NDPV59+W/sX2qFqAymDKYMplYsHK7CCrACrAArYL0CmaujxNZ7d3sfjuwqRmdzLxavj0HWmhjUV7aL06Su5DVO2AFZQylSv6u9D4e2X5wwuOm6W+Ph5qEWVlV7FA9PT2z7xuMICQsV2/dUGhsb8M5bO1BXO3oilj36mittMJgymDKYzpXVzvNkBVgBVoAVsKsCXt7eePzJZ+Hn54f2tjacOXMap058Aa1Wa9d+5lJjDKYMpgymc2nF81xZAVaAFWAFWIEZrACDKYMpg+kMXqA8NFaAFWAFWAFWYC4pwGDKYMpgOpdWPM+VFWAFWAFWgBWYwQowmDKYMpjO4AXKQ2MFWAFWgBVgBeaSAgymDKYMpnNpxfNcWQFWgBVgBViBGawAgymDKYPpDF6gPDRWgBVgBVgBVmAuKcBgymDKYDqXVjzPlRVgBVgBVoAVmMEKMJgymDKYzuAFykNjBVgBVoAVYAXmkgIMpgymDKZzacXzXFkBVoAVYAVYgRmsAIMpgymD6QxeoDw0VoAVYAVYAVZgLinAYMpgymA6l1Y8z5UVYAVYAVaAFZjBCjCYMpgymM7gBcpDYwVYAVaAFWAF5pICDKYMpgymc2nF81xZAVaAFWAFWIEZrACDKYMpg+kMXqA8tNmnQIq3N+6IiMSljnZ8VFODoeHh2TcJHjErcA0rEBQcgjVr1qOruxOfH/oMPT091/BsZ9/UGEwZTBlMZ9+65RHPUAXiPDzxu6xM+KidBZBuLy/HmxXl0zbaZxKTsCUyEm0DA/hOzjnU9PZO21iuhY4zMrOxees9UKvUY6Zz4NNP8MXRww6ZZlh4BB59/Gm4u7vDkf2YG/yKVWuw4eZbxrytGdRg7+5dyM/Lcci8pX4JHF99+W+oram2uR8vb288/uSzCAwMEm0VF13CG6+9ZHO73ID9FGAwZTBlMLVxPUXFpiA6bt64rQxqNSjIPYWujlYbe+PqM1mBTD8//GvaAriplGKYe6qq8HzJ5WkbMoOpfaVPnZ+OTXdsgVqlEg0rFAo4u7jAycnJocA43WC67IbluGnNer2YSpUSzs4umAyYxsbGYfWa9YiIjIKrq6v43unt7UXxpYs4eHA/2tvaxtwsR4BpaGgYHn3iaXh4eIr+aqqr8OLf/gKNRmPfh8UOrcXFJ2Dt+o3w8vLCW2++YRcwt8OwHN4EgymDKYOpjcuMwdRGAa+h6s4KBf4xJQU3BYegqqcXv7xwHlW907dNyGDq2IdLbkF1pCVzusHUWEUJGC0BU4L2TXdsxqLF10Gp1AG9cenv78cHe3ePsbw6Akypb7L+LrthJQYHB/DhB3sdZvG19elz1PxtHZej6zOYMpgymNq4yiQw7WhvQWH+KWgHB21skauzAvZRgMHUPjqaa4XBdOKt/JvWrsfqm9YJ63JtbS32f/wByq6UwtXNFStXrcXSZTcI14juri7s3PEaKmSuL3MVzKTnba7On8GUwZTB1MbvLgZTGwXk6g5TgMHUYdKKhhlMxwfTqOgYPPiNR+Hp4YmK8jK8/upLGBjoN7gpWQsX4Y7NWwWclpYU47VXXtR/J81VMGMwfUBIQNZ2ODmJf+n/xP/oNek9elX2Gl0w+r64SNSTXtM1MfK3rB1diyPXG7Sv60/fpmwM+jbpNV3V0X4MxqEbt7hGf600L8PXRSP6oYy0KzWun7O8n9GlJMb5yq6PhslHxrhIr+nfGx6GdJXB9SN1pXfFn3St0etU2bBNXWv02mj38teoAv3P6LWROlJdqbKu25ERjvQv6upfor/EIPT96a43Hods7PT+yBjEtbJ5vbtzp2O/KaahdQbTaRDdDl0Gurjgj9kLEezqiv+7XIx91eMHVoS7uYnrfZ2d8d9FRdhfWyNGsdDfHz9LS4erUudXKi/y60wNWQLHsy3N+HF+Pub7+OCZhEQkenlB6eSETs0gDtbV4vXyMvRqtWZnHeXujkfj4pHh6wcvtW67tFers9y7KVXjBj9RoNYDMTFYFRwMH7UaCicnUbeoo1P0W9jeru/XXprJJ6JwcUH0/dvgNT8Vg+0dqHzzDXSXl9nhDptvQqlUYvWatVi0aCk8vTzh5KQwefFEW9XWgCkFMBFwZWZm6/vWagfR3NSML08dx9dnTo9+Jo+Myngr/+yZL0Ub2dmL4O7hIT6PW1tbcfDTj3H+fL7Jufj6+mHp9TcgJXU+fHx8hI8oFZpjc1MTThw/irycc2P6NtWYpVv5BJxLrrsemoEB7Hr7TVy8WDCmOfpCfeSxJ5GQmIy+3h7seONVlI/cf2Mwpcrr1m9EXFw81M7OIN0qysvxwfu7xRzkxTjIydzTMJELhqlnhTSrvnoVn+7/CFVXK8d9Vqn+shtXYMmSpfDx9RXuDENDQ+jq6hIuBBQwJ2UFGC+4ztrxO3QhOahxtpiyxZTB1MbFxWBqo4DTVN1DqcLvs7KR4OVpUZCSFNhEP2p/WXAB51paxMjtA6YtKO/uwpbIKAGGxuVUUyN+U1gIzdCQwVt05Tdi43B3dDTIv9VcMReVvzQgEP+SOg+eJqLMqS3KLPBBdTX+Vloi/ttemsnHGbh8JcJuv1NvbeiprEDp83/FsGbAIU8GAdq2Rx5HSEioHsy0Gg2cXVzFdjOV4eEhkN/jwIAG+z7Yg4uFF0yOZbJgGp+QiLvveQAETaYK/ZCnbe63d75hkMJIDqbHjx1BUso8/fjl7RCoHTr4mcnsAE8+8y3ExMSa1ZTmnHPuLPa+t2tCOLUETN3c3fDEU3+HkJAw1NfX4qUX/oreHtNZISi4auNtdwh70oH9H+H4F0fFOOVgevL4UfG3i4sOqOWlo6MDO3e8iqqrV/Uv2wNMAwID8dC2R0HppejeDPT3C0MNjYF+zJDeRz4/hCOHD5rUNTIqCvfc9xD8/QPM6i4HYwZTnUwMpgymDKY2fv0xmNoo4DRW/3VGBhb5B0CyWI43lBsCA/HD+Wno0Q7in8/lmA1qkoOqpRZTsoU6DQ+jY1CDv5WU4EhDA/zVanwnNRUL/fzRp9UawLA0ztsjIvBsYpL4Qi/saMdzl0tQ2tUpIC/CzQ1PJSTiuoAAkxbTNB8f/GLBAgGlNb09eKGkFKdbmkXTGb6++PukZES6u0M7PIwXSkuwt6pKvGdvzYJWrUbYrbfr9sIA9NXVovS5P0ProNyS9z/wDaQtyBCWwqOHD+LY0c/FZyBZMu+4cyvmpy8Q+0GffrIPJ48fG/fpnAyYEqCRZZCAqbenBydPfoGTx7+ARjMAir7eeMsmhIaFi3uXl5uD3bt26j+b5WBKwExgJPlr0hZ5amo6Nt25WUSat7W1itRKxhbEbzz6hNhKzM89h9IrJejs6ABZ89LSM3DrpjtE3b6+Przz1nZcLi4ad96WgKl8zGQZJIupuULzf3DboyJaPy/nLN7d9ZYBmJKFUTukhVKhxPn8PBw88IkA93UbNgorMP2gKCy4gLfefH1CqBbPtyztlzmLKVmUH3/qWURERKK7uwvv792NiwW6Hyhk+bzvgW2IiooRP2DefedNXLpYaDA9+gH08GNPIigoWFhICwvP4+jhQ6irqxXW6qioaNywfCVKLhfh1MnjJqWZq64MDKYMpgymNoKRqah8+lU90NeH9rYm1FwtRXfX6Haojd1xdTsqIG2lF3V04Ad5uWK7nLbC/z0zG7R1L7eMbgwLx7dTUlDd24vv5pxD64Bpi541YEpTauzvxy/On0dJV6d+hvGenvhdZha81WqRE3W7bIs7xNVVWHzp31NNTfhtYQEGjCyq5nxM1QoFfpKWBrKYUr8/zc9DeXe34Rer2hm/zcoE5Wat7OnG93Jy0aYZgL01c/bzQ+zjT8I1JAxDgxrU7f8YTcd0FjN7F7JcPfbEM/D18xMg8eb2Vw1ARv5+yWXyd3zBbmB69z33IzN7kdjWpgj03NxzBm0TrDz86BOIiY0bs6UthzyC6MvFl/D2zh0G/poEOTffskm0aQlUyztfvGQpbrt9M1QqFb449jkO7P/YZjCVw9+hg5+atSpSR/L5yXWX50+lHxKHDx4AWYylIncD6OrsFPeLwG+iYgmYSnoOabX46MO9wsVCXsiaSrllCUCNfWPpOul+E5Qe+fygSOQ/2cJgyj6m4ue6Cb9X42eJfUzZx9TgmZgoXRR9kTTUXUVpcR6GjcBhsh9UfL19FdgUESEsgwRl38vNQYdGg3QfX/xyQQbcVUqDLX5TQGZqNNaAac+gFr8tvIAzI+4BUrsSJBOgGudEXRcain9KmYd+7RB+dj4fF9rH5oE0B6Zy4H2rogKvll0xKeyWqCg8FZ8grKYEviebmuAIzZyUKrgEBUHT0e4wS6kxAJmzlElb3hQd/uLzf7YLmMqB1xTESJ1kL1wsAoGMAVEObrTVv/31V8YEEdF282OPPy0ssuR68Ob21yxeLPL25RZLcw1YYjG1BP70z7ks6b1cd6mf8eBOcgMYHtJi3wdjAdLUHCYam1qtFkn4I6Oix81zes99Dwrra1trK1556Xm0jOw4yO8F+aC+/OJzVuVJZTBlMGUw5eAniz/IJ7pQqVLBzy8EkXHJ8PDwFlaZyrJLqKoonqgqvz+FCiz298dP09PRO6jVn4y0LTYO22J1vnhXurrw/bwcEYT0z/NSsT40FKebm/Dz8+fNjtIaMJX3I294PDD9VlIyaCtfDtXGgzIHppRn9bupqcJnVW4VNq6f6u2Nf8vIhIdKpQ8Qc4RmU3XLJ4I3R1lMk1NSce/9D4kt+PGCbeTjk29/W5LHVO7TaQlUyzWf6WA63slPlmorn+9EYCq/D+OBugSO5AJB1nf60UAlMysbm7fcC5VahYmsxeM9+wymDKYMpgymdv9+VKrUSMtcBi9vP/T0dKLg3AkMaAzTpdi9U27QYgUkyyEFDhGgXWxvF1vnFBUvBRpJ4Cb5Vk50mtNUgak0HnNQSyKYA1PJLWGio0rlmQikeTtCM4tvmI0X0nbX/Q8+jPlp6eP6mGq1WrHdnnPua7tYTCUQosbGO8JTHrAjh0tLwJTalqy95oKNKH0TbduHh0UIP0mpOCmc9AE9jrCYTgRn8vnJrb2WgJm87ukvTwir6URlIjCVt0kuBIMDpk+FMncCliUW5YnGSO9bMn9L2plt17CPKfuYso+pg1dteGQ84pIWgI8ldbDQVjQvpT8KcHHBHy5eREVPtwDTpv5+ca788qAgsYX+ZkWZ8DslKJsooOlaB1NHaGbFrbO6SnLyPNz7wDZ9dDeBhzwqfzLR6RMBjjTIqQbTq1cr8MJzf9Z/tpP/6ua77kb6ggyzqbGksdoLTM0FNJm6cXKrpxwuLQEzOUROBMDG94Nyp5qyYMvbtORBowCod97ageKii+JyBlNLVDN/DYMpgymDqW1raMLagSERSJm/mMF0QqWm/gJ5+iPKZUpBQeRT+WltHfLbWsV2d0V3N35XWIifL1iAAGfncbe+aQZTBaYUUU/BS7ZYTM1F+0t3Qr6VLwG5IzSbqjsvRVqHh0egsrICnl5e8PP1E1HdlPqnsbERBw/sR9Elwwhrc+ObLJiaAyGpfXNbyJZYTD08PUV6JooCNw7cunnjbbhxxSrRDW03U/7N2ppqk1H/9gJTuVvEROfRr1q9RpwJP2TkJ2oJmFKGha133wfandr/0QdmI9zl93Ci+zZZ1wbj50Pye6XXLR2TqWfMkvlP1dqZyn4YTBlMGUwdvOISU7IQEh7DW/kO1tna5qUt8b1VVxHh7i6S1P+moECkXaKE+hQR/1xJCR6NixPBkeOlippKMH2ScmJGRYnsAJQlgLIFyEugszN+l5UtUj4Zb9nLgfPF0hK8K8v/KG9DCn6ibAU/yc/DxY4O8ba9NZuq4CcJSMhC+tqrLxrkvbTm+ZkIcEwB53iBSVLwk0KpNAAaS8BUslCSHyulwKKUSlTkvqcN9fV46YW/GORIpWsmC2KWWgQfeewpJCYlo6+vFzt3vI4rpSVjZJYHGrW2tuDlF54TKa+oWAJmGzbeihUrbxqTyWC8+znRfZNDPqXjohyspg7UMdeH3Fo82UA0eZt6nTUD2P3u2ygwc3iCNc/uTK7DYMpgymDqwBXq5eOP+QuWQqV2RnVlCcpLx5584sDuuWkLFNBH23d2ityhA8PD+nRQP0pLw8qgYBS0tyPB0xPNIxBoLlXUVIKplFeVEvL/teSywclVvmpn/DgtDQtG/AiNwdRNqRTQmuLlhaqeHvwgNwdNRumv5GCb29aKn+bn6/1u7amZQbqogQFUv7cLrefOWnDnJn+JPlilt2dKwdTgdCMzkCbPm2kMaBOBKbW/9Z4HRNBNV3cX3nzjVVytrBACyf1Wjbf46X3KZXrzxk3izHqyHNvLYkpty7MMmMsmcNPa9Vh90zqRv/WrL09h34d79Dd2IjClVE2PPfE0/AMCxWlRr7/ygkXR7xOBKQ1AfmqVqfRe4z19ctg2lx7MkqdXCqIiX1b5jw1L6s7maxhMGUwZTB2wgl1cXBEaEY/wqHgoFEp0tDWj8PxpaAdNO9E7YAjcpIUKSOmPKAcoHQN6uL4e/3lJ5ysmRa9TuiR6r6SzU5/v1FzzU7WVL4/Yp/yif7x0CV+3tIAS5/9jcorIw0oWzkQvT4OsA9K414SEiEwDNC9KsP+n4mLkt+lSTlGC/X9ITka4mzsoldUvL5wHwalU7KnZVCbYl0CJYIxA6fDBTzGg0aCvtxcEg5MtlgCO1Oa81Pm4+94HhW8rJdg/cuQQvv7q9GiC/VvvQFhYmEjGTuM6euSwfjhyMD179gw+/vB9fbooAlop0TzB3YkvjoqteqnQa7TFT/lRCZIOHzogtrvpaMz0jEzctGadyMUpFXuCKQHatocfB514RRbH6qqr+PijDwQ0e3l5g6B04aLFYiwNDfXiYABK/C8VvcWQcr9+8J7BkamUR3TrPfeLJPfjWWRN3VNL7hud2vTQtseEuwf5IdO9OnP6FBobG0STfn7+SE1Lx4KMLJzPzx1zGENW1kIBt3R0Kun+9ZmvcPLEMWENpucvJiZOuFeMl2Cf7gsl+ae+5M/MwMC1HUDLYMpgymA62W8jo+tT0hYjMDjCZCv0YdzSXIeSS7kYdNARizYOf85XlyyP5F9KAEpBUJ831AtdQl1d8R9Z2QhydRV/m0oVJW1rWyKkceCUZHm0Jl0U9bfE3x8/nJ8ucq7KCx0fSmPdX1uHH86fL06O+k7OORHQpQcWAI/ExeOe6GgBp6ZK16BGAOuxBt2XsVRs1Uze1lQeSUoQ99A3HhUnLRGwmSrka9re1iaOxTQ+t36iYz3l7ZkKqlm+cjXWrNsA8jU11/epkyfEsZzyrWPjYBz98ZjDQ/qjVCloKy8nB3v37AJlFZAXOSSZ6lfk3xweFpZHYzC19GhPapcAzjjrAMHV/Q89LE5QMlcaG+qxY/urY06rkifYp7oE7QP9fSKAy1kcC+okTl6iBPgTZVCQ920JmNL16emZuGPzXXBzdzc7droX8mNU5RdOdL/p2vHSh9H7kkVZOi7XeCAT1Tc78Bn8BoMpgymDqY0L1BhMxZfGQD/aWxv51CcbtZ2K6nJ/y4a+PgFwFJVPhdDlx2npIjqfiqlUUdMJpjSm+T4++H/JyYhx9xBjJHeD3VcrxRn3WX5++FlaukkwlbRN8fYWeVvTfXzgplSBoLZdoxFgu72sbMwWP9WzVTP5fVW4uCD6/m3wmp+Kwc5OVL27C50WBh9N9vkgML3vgYeQlDwPwLCAmuGhYeE77OziKraypULrOC/nHN7b/bb+M9JWMKW2CTLXrd+I6JhYcQQnFcqDSdbEI4c/E1vSxoUALDomDsuW3YjI6Bh4enoIKyMV+qypranB0SOHxj1KNGXefGFZDQoKEnUJ8lrbWvH1V1/i1Ikv8NiTzyImJtbuYEpjJAvhshtXYPF11+uDzYz7N4Zpqkf3i6y6CxctEUFdbm6uAkoJwim36eWiIhw8uF/8kJhMsRRMqU1Kq7Vm7QYkJqXA09NTPCNS/1crK/HV6ZMi2MycDyrd75tuWofo2Fhx7C2Nn378dHR04EJ+rvgBRHMZr0j3jqzExj9qGExHIY4+saUfnOJ3pxMdwjv6Gn2g6/+Wnaak/4lK15s4ZUn/mq4Bcc3oD1tdbaomf82gnZEOqG/dtVJ+Vt1dl16XTnjSXzPyHcQnP1EuUzopmg6Lpo9u/d/D9INa/5p0gXhfvE7/6i4Q/4r/jbw2kh+V3nt3587JfH7MimspGpSiSflUp1lxu3iQc1gB+bGg+z7ci3NnzxioQV8YZE29c/NWYT2kM9JffelvFh1zOYdlnXVTl8DUadgJe/e8g7zcnFk3h2t5wGwxZYspW0yv5RXOc2MFWAGhwERBQHKZpKMmxztxiGWdvQrccuvtuGH5SnR1duK1V17gHx4z7FYymDKYMpjOsEXJw2EFWAH7KyBPm0SW0H3v70VBQb7BFqzYcr5hudi6paCVyUR623/E3KItCtB9pMT9X315EuUVV9Db0ytSZ61ctVZkIFApVcIvdc/ud2zphus6QAEGUwZTBlMHLCxukhVgBWaeAtctXYaNt2wS0ElFCqYh7yP5sZz0nrmAnJk3Kx6RKQWMA6fk15C7GWVleHvnGxP6d7K6U68AgymDKYPp1K877pEVYAWmSQEKIFm5ag0SEpMNgogIVvr7elHf0ICcr79Cbu65MdHt0zRk7tYKBSjQaPmKVViQmQ1vbx/96V7NTc346quTIv2TqYArK7riKnZWgMGUwZTB8QGjtQAAIABJREFU1M6LiptjBVgBVoAVYAVYAesUYDBlMGUwtW7tcC1WgBVgBVgBVoAVsLMCDKYMpgymdl5U3BwrwAqwAqwAK8AKWKcAgymDKYOpdWuHa7ECrAArwAqwAqyAnRVgMGUwZTC186Li5lgBVoAVYAVYAVbAOgUYTBlMGUytWztcixVgBVgBVoAVYAXsrACDKYMpg6mdFxU3xwqwAqwAK8AKsALWKcBgymDKYGrd2uFarAArwAqwAqwAK2BnBRhMGUwZTO28qLg5VoAVYAVYAVaAFbBOAQZTBlMGU+vWDtdiBVgBVoAVYAVYATsrwGDKYMpgaudFxc2xAqwAK8AKsAKsgHUKMJgymDKYWrd2uBYrwAqwAqwAK8AK2FkBBlMGUwZTOy8qbo4VYAVYAVaAFWAFrFOAwZTBlMHUurXDtVgBVoAVmDYFEkM9sDEjCJfru/FZfhOGhoenbSzcMStgTwUYTBlMGUztuaK4LVaAFZjVCjyyMgq3ZgWhvWcQP9tVhLr2fofNR+HkhPUZgbg5IwihPi5QKpxEXz0DWhTXduO/Pi5Dn0Y7pv+YQDf8ZEsSvN1UAkjfPV2H3V/VOmycjmx4TVognlkbjX7NEP7w0RXkV3Y4sjtuexYowGDKYMpgaseFSl8rXr4BCAuPg5ePP5xdXeEE3ZdNZdklXC0vsmNv3BQrwArYW4GpAlMfNzW+f0cCEkLcTU6hvKkXv3qvGF19Y8E0LdIL/7IpAW7OClH349xGvHbsqr2lmJL2GEynROZZ1QmDKYMpg6mdlqybhxdS5i+Eh6evyRYZTO0kNDfDCjhQgakC0/uXhWPLklBh8Tx+qQU7T9agpVsDJyfA30MNL3c1qpv7oNEOjZmts8oJT6+JwY0pfqht7ReWxprWPgeq4rimGUwdp+1sbZnBlMGUwdQOq5eso/MXLIVK7QzNQD+qKkvQ3FiDgb4esOeXHQTmJliBKVJgKsDU3VmJn9+VhNhgdxRWdeK3H5RgYHBuflIwmE7Rgz2LumEwZTBlMLVxwaqdXZCedSPcPbzQ1FCD0ku5GNRqbGyVq7MCrMB0KDAVYEr+pL+8JwU+7qpZvQ1vj/vDYGoPFa+tNhhMGUwZTG1c0xFRiYhNTEN3VxsK8k5BMzBgY4tcfSoVWLFqDTbcfAuamhrx8ovPwcfHFzdvvA1R0dFQKlXQDGpQfuUK3t/7Ltrb2sYMzcnJCdExcVi27EZERsfA09ND1BseHkZ/Xy8qKytx8LP9qK2pNqh79z33IzN7EQ4d/BQll4twz70Pws8/AJ0d7XjnrR2ora3F3fc9gJSUVAxph3Du7Bns+3DP6HqVtRYZFS3GHBEVBbVKjeHhIXR1duHs2dM4cvgQtNqxforGE1m+YhXWrN0AJycFjh49hCOHDzrkNni6KvHTu5IRG+hmFsoyor3x3dviRf/GATESOOZVdOA375cgJcwDD6+IRFywuwgeIp/Moxebset0DXoHxm6DS5OK8HMFbafPj/QCjYmKFGjkqlaOG/xEQUfUZ3asj6hL2/EdPYM4crEFe7+uHbdf6scaMJU0cVHr/Erl5flDlThc0GT2ftlTs4dujEBalCdII5p3c5cGH51rwKf5jeNmBiDNHrghHAtjfeDtrgIFfpGVeHBoCGRB5uAnhyy3WdkogymDKYOpDUtXqVIjPesGeHr5orykANVXS2xojatOhwJyMC26VIjrl90owNK4NDTU49WX/4bODsOo4bDwCDz6+NNwdzcdxELt9Pf344O9u5Gfl6NvVgLTixcLEBgYhKCgYP17JZeL0dXZiczshSDwldp49503celiof46eu+mtRuwctVqMWatdhAD/QNQOasFoFKpr6/D9tdeRltbq1l5g4JD8NjjT8PL21sHaL092PHGqygvL7P7LbEXmFL0dmVzL27NChaQY1zOXGnD/3xSPsZHky69Z2kYbl8YCvLVNFfMReUvjPPB32+IgYeLCtqhYXT3a6FSOgm4otLYOYB//6AUV5t7zbY9XWBqi2Y3ZwSDoJQ0I6Ds1QzCRaUQgEqltL5HzLu9d+xu0epUfzy6KlofrGVKGAZTuy+1WdsggymDKYOpDcuXgDQtaxmcoEBB3kl0dpj/8rehG67qQAUkMCUrI+CEQe0gTp88gc8PH4SLiws23bEFqfPTxAgOfbYfR48cNhhNaGgY7r7vQVSUX0HhhQu4erUSAwP9cHN3w9p1N2PJdcugUCiExfSVl59Hb48OWCQwpWsJMD87sF+A5a233QGNZhBKlRJVlZXY/8k+PLTtEXj7+OKLY5/jwP6P9f0vXrIUt92+GUqlEoUXzuOD93ejp6dHtLfsxhVYt+5mqJ2dcbm4CG+89pJJays1RnN49Imn4eHhqYdgstoWF120u/L2AtMh4ZI5jM6+QbxxrAonitvg667C362PAVkXzYHOzZlBeGRFpAgyopRMrx6tQnlTj8ieEebrgm0rIoRVzxSYxgW548ebE+HlphJpjf7303J09A4KjeZHeOIfbo6Dn6caxXXd+M3ey3rLqbRdPRkxJ4q0l1tQLbWYWqvZdQm++H8bY6FSOOFIYTNe/6JKzI00XJ7ij8dXRcHdRYlTxa34n0/LIE+pmh3jjX/YGCfepwCtl45cRWFVF4YxjEBPZ9y+MAR0TxhMJ/N0XNvXMpgymDKY2rDGAwLDkJK+RIBI6aUcBIZEwscvCM7OLgIOhoa06GhrFmmiOtpbbOiJqzpKAQlMqX1yw9j34V6xbS4Vf/8APPbEM/D18wNZMl975QWLh0LPwP0PPoz5aeno6+vDm9tfRdmVUgMwpT8kcIyNi8eD2x6Fq6ursJhSX3V1tXjymW8hJiYWeTln8e6ut0R9stA+8dQ3ERwSgurqKrz8wnPiOZQX2t6/ccUqDGo02PX2myDrrKlC49x81z3IXrhIwHnRpYt4563t0Gjs7yttLzCledA28n98WIqyxh79tCjH50/vSoKXqwrvnq7FrtOj+T2DvJzx87uTQf9+faUd/7P/ypigI3M+pgRh/3RLPJYm+grA+tV7l0UUvbzIAe6vBytx7GKzeHumgKk1mlFKqp9uSRZprcwFat2xKERs0/cNDOHfPyzFpZouMW+q+6PNSUgO9UB5Qw9+8/5Yiyr7mFr8cTJnLmQwZTBlMLVhuYeERSNxXrZBCwSj9IVOm4RqFxdhiSHrQOWVS6iqKLahN67qCAUkMB0aGsKRzw/i80OfjelGAsOKinK8+PyfJzUMqX3yVd27e5d+O1+ymPb19WLnjtdxpbQEkluAm5sbvvrylPAppWIKTLMXLsYdm7cKq9W+D/bi6zOnx4wrMioKjzz6JFzd3MdYW01Nws/PX7zc2uq4H1H2AtOefi3+tL8MORWGrhXjtb8yNQB/ty56DEDJtTAHpvKk9tuPV+HDcw1jJCQY/vnWJEQFuAl/079+Vm7yWbFmK9+4IWssptZoRq4L/3RrnPg8+5/9ZThT2j5mTuF+rvjF3cki4b9cm3nhnvj+7QlwdVZADuryBhhMJ/VxMicuZjBlMGUwtWGpR8WmIDpuntCwraURFWWF6Ols16eIooj9xHlZ8A8IxZB2EAV5X6KjXWdF4TIzFJDAkbbAyYfUOEhJDoaOAFMp6Ip8VyUwVTurDSDWFJhuumMzll5/o9i6Nzdu8hl9/MlnhQ/rxcILeHP7a9Muur3A1FwC+vHapy1n2jYm/89f7L4s3ACMizkwXZ7sj2/dHAPN4PC4JxT96M5EZMZ442JNF369p8RkHtLpAlNrNCN/3LuXho0bDCbXXA7kGzIC8cTqaOHu8PN3i03mWmUwnfYlOeMGwGDKYMpgasOylMCUoq/zzx3DQP/YJNeubh5Iz14OFxdX1NVUoLQo14Yeuaq9FbAHmJKP54LMLKSlZSAkNBSuLq76YZKvKLl2mLOYWgumksWVfGMpuGpY50BoUMia6uziKnxcrYFqe2tN7U0nmErQON6pSubAVAIoikTvHdBi0ITeND83tUoECI3Xx2wCU0kPmnd3nxZDJjIz066Qh4tSZEWQsiWQFpak3mIwdcQqm91tMpgymDKY2rCGwyPjEZe0QKQFMgemlH5nXvoS+AeGCn/TwvwvRZALl5mhgK1gGhoWjnvvf8ggqt7UzBwFppaqOFn/WEvbnex1sx1MLZ1vSV03frWnxORZ97MRTC2d96mSVvz3x7psDgymlqrG18kVYDBlMGUwteEzISAoXEAnJdQvyD2FLjNR+SlpixEYHCECoArzT0E7yGBqg+x2rWoLmJIl9PGnnkVERKSwiJ4+dRInTxwzSCk1kY+prRbT8bby7SqUnRqbTjAlf0fymbTFYmqP6PHZCKbm0meN91hsWx6J2xcGj+sGwBZTOy2sa6gZBlMGUwZTGxa0u4c30rNvgFrtgqLCr9FUb5hEnZpWKJRIzVgKX78gcTJUUcFoxLcNXXNVOylgC5gmp6QKaymllTrz1ZciV6lxcRSYUkL8DRtvE+mt5EFVtsgy1cFPcuuaNG5yP3h4eSQ2ZgWZ9OeUrHDW+EtKoNTWrcG/7i5GbZthFgM6o54i+imYxxjE0iK98C+bEuCidsKLn1fi0AXrfcVnE5hSDtJn1k3sW2vquZuoLrk8/PCORHHIgSXAT9kjyF96cHDQoQF6tqwhrmu7AgymDKYMpjasIzl0NjfVoqjgawwPGZ424+ntJ3KdKhUqlBTloqG20oYeuaq9FbAFTDMys7F56z0imT2d4GR8WpKPry/ue2AboqLoi910VL61FlPKPfrIY0/B08tLpKDa/vorY9JFWaqVcbqovJxzeG/322bznlrarqnrCDzJ15Oiyikp+6/2FBuclCTlGSV/RVOwYguYLknwwT9ujBO+kK8cvYoD+aOnJfm4qfHtW+NEPlIqxmAqT5tkLvWRpbrMJjAN9nbGz7cmI3CcFFvm5i1P3WWcl5Wg9Om1sbgx2VcckDARmNIzet/92zA/fYHIX5tz7iz2vrfLIc+opfeRr3OMAgymDKYMpjaurcDgcCSl0gk9CtRcLUFlWZHIX0rFw9MXKemL4ObmqfMvPX8a2kH754a0cQpzurotYEpb+A8/9pTIKdrS3IQ9u98RpyX5+vrhhhtXYvGS60SCeyr2BlNqc8vWe0Fpo+hLu76+FocPHkDJ5csCUMnNICoqGlnZi+Dr7y/ykhqfWiXd+KlMsE99SpHeFFDzSW4D3jpVA7VSiXuvD8X6BUEjp10N291iKncjoBOK/vpZpQjWmRfugafWRCPU1wWXa7vF8aaUQP5nu4pQ1z5qVV2bHiCizAls69r6seNENfIrO4UfKcEVJei/PskPGdFe+POBcjR0mD6eeDaBKd2vb6yI0J+wRb6zO07WoKSuS+SAJcCM9HfDihR/od+fPysXx8JSUSsV+M6tccJ9gsBz+/FqHLzQhKgAVzy+OgrJYR4oa+hFqK8zVArFuNkOyJpPbjO0tqhQwJ+jDoGY0x+IM2DyDKYMpgymNi5EJ4UCMXHzEB6VqE+qT3lMFU4KPZTQiVC0hU9BUlxmlgK2gCkB4V1b7zM4OlQ+O4qYr66qEoFRCpXSZB5Tay2m1A/B530PPISk5Hn6o0tNqdvY2ICXXvgrurt0ic+Ny1QeSUp9yxPdG4+lu38Qe7+ux6bsELiqx8KKLRZT6kt+EpG8b4Lks2XtOFzQjG9vjEOfZiyYkrX3vuvDQQnlCU7NldYuDX72bpFdwVTKKGDJ6jE+CcpWzYytm+bGQJbkX7x3GT0DOjClQjldf3hnIgI8dUfkygtZzMlyTS4Spu61/Fq1Wo1tDz+O+IRE/csHPv0EXxw1PInNEn34mpmtAIMpgymDqZ3WqI9fICJjkuHt4y/8Sslq2tPdiZrKUjQ11YzZ4rdTt9yMjQrYAqbUNaWKWr1mLRYtWgpPL09hOSfraE1VFY4eOYSuri48+vjTMM5NKqV7sgVMqX+C48zshVi69EYEhwQLWKVCY2htbkFBwXmcOX0KnZ2GieiNZSOf1TVrN4jxf3nqOA58+rFDt0lDvF3wyMpILIj21p+/fr6yQ1ghNdoh/PLuFHGM5R8+uiKO/5SKrZBF7aSEeeDJNdGI9Nel9SKQpIT5n+Y3Ij3KC9+9Ld4kmEpjSAz1wObFIUgJ8xTpr8haStbDho5+nCxuxecFTWNOhZLrbY3FdDrBVPecAVkxPtiUHYz4EHe4OyvFlMhaXN3Sj2OXWvDFpRbQDwvjEuHniiduigIl3Cegp7ym9ANg79e1IBeKX96TMiGYUpshIeS+8iQoPy8VBlMbP/xmaHUGUwZTBtMZujh5WKwAK8AKsAKGCkiHTQxqBrF3zzvIy81hia4xBRhMGUwZTK+xRc3TYQVYAVbgWlSAfLmfeOqbCA4JEVH5L7/wHNraWq/Fqc7pOTGYMpgymM7pjwCePCvACrACM18BynBB/txx8QniO+vwwU9x9Aj7l878Ozf5ETKYMpgymE5+3XANVoAVYAVYgSlQYNkNy7Fm3QaRK5j8n+nUvFMnT+DA/o8c6gM9BVPjLswowGDKYMpgyh8PrAArwAqwAjNSAQpOXL9ho8hoUllZiYOf7UdtzdiDTGbk4HlQVinAYMpgymBq1dLhSqwAK8AKsAKsACtgbwUYTBlMGUztvaq4PVaAFWAFWAFWgBWwSgEGUwZTBlOrlg5XYgVYAVaAFWAFWAF7K8BgymDKYGrvVcXtsQKsACvACrACrIBVCjCYMpgymFq1dLgSK8AKsAKsACvACthbAQZTBlMGU3uvKm6PFWAFWAFWgBVgBaxSgMGUwZTB1Kqlw5VYAVaAFWAFWAFWwN4KMJgymDKY2ntVcXusACvACrACrAArYJUCDKYMpgymVi0drsQKsAKsACvACrAC9laAwZTBlMHU3quK22MFWAFWgBVgBVgBqxRgMGUwZTC1aulwJVaAFWAFWAFWgBWwtwIMpgymDKb2XlXcHivACrACrAArwApYpQCDKYMpg6lVS4crsQKsACvACrACrIC9FWAwZTBlMLX3quL2WAFWgBVwoAJOTkBWjA9WpPjhdGkbviptw/CwAzvkplmBKVSAwZTBlMF0Chccd8UKsAIzW4FHVkbh1qwgtPcM4me7ilDX3u+wASucnLA+IxA3ZwQh1McFSoWT6KtnQIvi2m7818dl6NNox/S/MM4H/3RrHJyVCmiHhvG/+8txqqTVYeN0ZMNr0gLxzNpo9GuG8IePriC/ssOR3XHbs0ABBlMGUwZTGxZqVGwKouPmWdxCZdklXC0vsvh6vpAVsFQBH7UznklMxPKgIDgrFNhTVYXnSy5bWp2vG1FgqsDUx02N79+RgIQQd5Palzf14lfvFaOrbyyYrk71xzPrYkBgS+X5Q5U4XNA0K+8hg+msvG0OHTSDKYMpg6kNS4zB1AbxuKpdFHBTKvFwbBxujQiHi0Kpb5PB1Dp5pwpM718Wji1LQjE0PIzjl1qw82QNWro1INb091DDy12N6uY+aLRDYyZCUPsPG2MxP9ILhVWd+NP+crT3aqyb8DTXYjCd5hswA7tnMGUwZTC1YWEqVSoolapxW3Bz80RK2hKo1GqUFOWiobbShh65KiugU4CAdHNkJO6NioGbSok+rRZfNTdjaWCAAFQGU+uelKkAU3dnJX5+VxJig90FWP72gxIMDM5NJ1EGU+ue02u5FoPp/2fvPeDsKuv8/8/0XjOTyZQkk2SSIYU0kKI0KZJFQRFYdI2gVN3Cqn93LfyUBRZdd92Cri91bShgAwFFSmjSEYE00iaZJJM+mWQmZXr/v57nOc85z3lOuefee+6de2e+x5KZe855yueU+55vewhMCUwT/IQ3zluM+llN6O05js0b3sDw0FCCe6Tmp4ICS8rKcdepS5GflYktJ0/g3pYWVOfn4+uLlyA/i8A01nsgGWDK4knvuqYZZYXZeHL9Efz85X2xDjftzyMwTftLGPoECEwJTAlMQ3+srAbzC4qwZMU5yM3NQ1vrJhzcvyuBvVHTsSiwqrYOn2tuxq6eHnxpwzqU5+TixrlNWFlZwWM1+0dH8FZnF763YwdODNv/qCjJyca3lq3A3OJiTwvlyspKDotsu2vzJqzt6uI/39o0H1c2NOB/d2zH+q5juH3JYswuLEL7QD/u2rQJB/v7cduCBXh/zQyMjI/hd/v24f7duyHtajmZmfh88ylo7e7GYwf2c5ew7CsWMK0+/wLUXLIKyMjEkReexeHnn41FzojnFOdn4WsfXYDGqgJPKFs6qxRf/OBc3paeECPBccOek/jG71vRXFuE685twJzphTx5iMVkvrS1Ew+9eRD9Q043uBxgfUU+mDuducPZmNgmE43yc7J8k59KC7J5nysay/i5TPuTfSN4cWsXHnv7kG+/rJ9YwFQCnC5wkKShMDX7xPvqsXhmMZhGbN6dPcN4Ym0H1mw8wn/32phmH39vHVY2lqG0MJvHxzIr8cjYGJgFOcg8It5cdMCkUIDAlMCUwDSBj3LjvEWonzUf/f092LTuNQwNDiSwN2o6FgVUMH2xowOrGxs5kOrbju5ufHXjenQPj5i7wgDT59rbMaeoGPNKis12X+noQOfQEK6orzcTXHpGhnHHu+9i84kTntOMFUzzp9dg7i2fRXZpKW97tL8Pbff9FL27w/9DKiwwZdnbezv7cdny6aZGqjBv7TqOe59qc8RoshjOa86sxeUrZyA3WyQPuW1eWfksI/7vPzAbRXnZPCO+d3AU2VkZHK7YdqR7CN/6w07s6+z3bHuiwDQezS5dOh0MSplmDCj7h0eQl53JAZVtOw/38Xm7xbqyZK1PnT8LBbnO50qKRGAay9trcp5DYEpgSmCaoGdbWkvz8vLR1roZB/a1JqgnajYeBSSYstznjPFxDI2N4cG2Nvz+wH7kZmbh5nnzcMmMGbyL7+5owVMHD4UKpr2jI8gcz8D/7mjh1qMvLlyEgdEx5GRmYN2xY/jRrlb866lLUVdQiB/vbMXD+7zdvrGCaUFtHebc8hlkFwk4HhscxJ4H70f3ti3xSOt6blhgOsaNc+PoHhjB/S/vx2vbj6O8MBufvWQ2mMXVC3QuXVaN689t4ElGrCTTfS/tR9vRPmQgA7XleVh9bj236rmB6ZzqQtz+kSaUFGTzskbfXdOGk/3iD5VF9cW47dI5qCjOwfb2XnzjsR2m5dTL2uknbiQXfzQucGkxjVWzM+aV4x9WNSI7MwMvbunEL17Zz+fGNDynuRI3nD8ThXlZeGP7Mdy7ZretpuqK2aW4bdUcvv/gsQH85MV92LK/B+MYR1VxLi5fWQN2TQhMQ3/U0rZBAlMCUwLTBD2+lrW0F5vXv4bBAW8LSoKGQM0GUECCKTu0b2QU/75tM/58tNM8syI3F99esRL1BQV4+UgHvrF5c6hgyhp7uaMD39yyGXOKi/Fvy5ajNCcHRwYG8E/r16F9YAD3LF2K0yqnRUxoihVMMzIyUH/Ntag47XQOaCe3bMGeX96PcS10IYCcEQ8JC0xZR8yN/B+P78TuI31mv7OrCvC1j85HSX42Hn7zEB560/pDorokF3dcvQDs37d3ncC9T+9yJB15xZgyCPv8X83FmU3lHLDufmQHz6JXNxXgvv/cXry8VdxHqQKmsWjGrJxfu3IBL2vllah1xWk13E0/MDSGbz2+E9sO9vB5s3O/+pH5WDCjCG0dffjG750W1WgAO+LNRQdMCgUITAlMCUwT8Cir1tIDe3egbWf4lqcEDHtKNmlaTMfH8YPWHXj8wAGHDhIM3+nqxO0bN4YKpieGhnH7xg1o7elGXUEB/mvFSg6mv9q7h8eUsi3RYConlFtZyX8cMuJgE3FDhAWmfYOj+M7Tu7Fuj70gu1/75y2chs9ePMsBUOo8vcCUAe//u3I+WKzkA6/ux+NrOxzyMBi+46r5mDmtgMebfv/ZNlcJY3Hl6w1FA3RyTrFoJov5s6CHe5/ejbd2OkNJ6irycefVCxzanFJXjC9dPg/5uZlQQV2dSzTzSMT9SG2mngIEpgSmBKYJeC5lfdPBwQFsWvcqBvp7E9ALNRmGAhJMjw8N4Qvr1vKkI31LJJjKpCsWuyrBlCUvqYlSyQLTMPSM1EZYYOpVgN6vfeZyZm5jFv955+928DAAffMC03MWVOLvLp2N4ZFx3xWKvvrhJiybXYqtB3twz6OtrnVIJwpMY9GMxeNefWatbzKYqrkK5B9YWoUbL5jFwx3ueHg7tzTHA9iR7i3aPzkUIDAlMCUwDflZzssvwOLl70NBQREO7G1F207L9RtyV9RcCAoQmIYgYhRNTCSYSmj0W1XJC0ylZY9lnvcPjWJEBGw6toKcbJ4g5NdHOoGpFZ86jt6BUYyZdSGsqbPwj6K8LF4VQVZLYHuDlN4ii2kUD88UOZTAlMCUwDTkh11aS0eGh7Bp/evo7fHOog65a2ouBgUITGMQLY5T0h1Mg069tb0Xdz/a6rrWfTqCadB5v9F6DP/zpAhBITANqhodpypAYEpgSmAa4jtBtZYePriHr/REW2orQGCa3OszkWDK4h1ZzGQ8FtMwssfTEUy9ymf53T2rz2nA5Sun+4YBkMU0uc9fOvRGYEpgSmAa4pNaP7MJjU2LMTI6jM3r30DPyWMhtk5NJUKBsMBUz9hnY2UJI6yQPqtHyspQuRXYT6UY02QnP6nWNXltWfb7dec0YNXyatd4TmmFiyVeUoLS8d5h/MvvtuPQ8UHbLcXWqGcZ/SyZRwexxQ0l+KcPzUNeTgZ+/Ke9eH6TVbkh2vsyncCU1SC99eLIsbVuGkQ6l4U8fOWKJr7IQRDgZ9UjqqqqMTIygmPHxEIVtE0+BQhMCUwJTEN6rnPz8rFkBYstLUbnkUNo2fw2xse9V54JqVtqJk4F4gFTBp73LFuGlRWVaOnuxpfXr0P/KKuIKrbL6+vxmab5yMrI4GvZpyqY6uWijq19G/t/+2swbTAkAAAgAElEQVTr3RCnxurpDDxZrCerNcqKst/96HbbSkmyziiLV3SDlXjA9D3zyvCPq+bwWMifvbQPz2w8ag6trCAHn7tsDq9HyjYdTNWySV6lj4LKlE5gOr00F3dctQBVPiW2vOatlu7S67IyKL3loka8b0E5XyAhEpiye/Taj63GoiWn8vq169a+g8ceeSgh92jQ60jHJUYBAlMCUwLTkJ4taS0dGx3B5g1/xskTsVtUQhoSNRNAgXjAlDW/unEOXy1qdHycF+W/b9cuXpj/k3Ma8aG6evaGMQv3hwmmDIqr8vLAliaV28LSMtzWvAB5mVlYc+gQfrN3j7mve2TYtmqVKk0yC+yzfmWmN0skemp9B379xkHkZGXhr8+agUtOrQaDEAYfbhnw8YCpGkbAVij6/rN7ebLOKXVFuPnCWZhRnocdh3r58qasgPzXH2pB+wnLqnrRkmk8y5yBbfvxQTz42gFs3NvN40gZXLEC/WfNr8DSWSX43jNt6DhpX8JWap5OYMrG/Mlz680Vtljs7IOvH0Rrew+vAcsAs6GyAOc2V3L9vvdsG18Wlm05WZn4wmVzePgEA88HXj2A5zYdxcxp+bjhgplYUFuE3R39mFGei+zMTN9qBxUVlbjh5s+gvLyCtz04OIjf/vpBbG/ZGuApp0PSSQECUwJTAtMQnlibtfSoYS0dI2tpCNImvIl4wbQmPx//vnwF2L/6xpYR/c3evbiqYSb0ElDMxX9lQwNideWry6EGEenR/fvxw9Ydrocmc0lSNgC10L0+oN7BETz29mF8aEUN8nOcsBIPmLK+1JWI1L4ZJL+z+wRe2NyJz62ag4FhJ5gyXr72rDqwgvIMTr22Yz3D+PrDLaGBqQrUka512FZm1p9u3fQaA7Mk3/nIDvQNWV4DVtP1Kx9uwrTiHMdpzGLOLNcsRMLtWqsn5OTkYPV1N2DuvCbz42fWPIVXXnohkiS0P80UIDAlMCUwDeGhNa2lY6PYtuktHOs8HEKr1EQyFIgXTNkYa/MLeCzpysoK5GZm8njStV3H8JNdrRgeG8N/rliJouzsUF35YYIph8XzL0DNJauAjEx0vvYK2p/6Y0LdpDWlebj+vAacOqvUXH/93b0nuRVyeHQMd13dzJex/PYTu/jyn3KLF0xZO821RbjpwlloqBR/TDCQZAXz12w8giUzS/DFD851BVM5hqYZRfjI6TVori0Gg0ZmLWXWw46Tg3h9+zH8afNRx6pQ6r0crcV0osGUjZ1B+fLZZfjQiumYW1OIwtwsPiVmLT7QNYiXt3XhlW1dYH9Y6Ft9RT5ufP9MsIL7DOhZXVP2B8Bjbx8CC6G465rmiGDK2qypqcX1n74JJaWlvAsC02S8IZPfB4EpgSmBafKfO+qRFCAFSAFSIAYFbrr17zB7diNGhkfw2KO/xYb162JohU5JZQUITAlMCUxT+QmlsZECpAApQApwBQoLC3HjzX+L6TU1PCv/pz/6AY4fp8onk+32IDAlMCUwnWxPNc2HFCAFSIFJpkBZeTk+etW1mDN3Hv/OeuG5NXjpRYovnWSXmU+HwJTAlMB0Mj7ZNCdSgBQgBSaBAme/9xxcePEHkJeXh4yMTIyOjuCN11/DM08/kdAY6EkgXdpOgcCUwJTANG0fXxo4KUAKkAKTW4Fzz78Ql3xgFQYH+rF371489+zTOHTwwOSe9BSfHYEpgSmB6RR/CdD0SQFSgBQgBUiBVFGAwJTAlMA0VZ5GGgcpQAqQAqQAKTDFFSAwJTAlMJ3iLwGaPilACpACpAApkCoKEJgSmBKYpsrTSOMgBUgBUoAUIAWmuAIEpgSmBKZT/CVA0ycFSAFSgBQgBVJFAQJTAlMC01R5GmkcpAApQAqQAqTAFFeAwJTAlMB0ir8EaPqkAClACpACpECqKEBgSmBKYJoqTyONgxQgBUgBUoAUmOIKEJgSmBKYTvGXAE2fFCAFSAFSgBRIFQUITAlMCUxT5WmkcZACpAApQAqQAlNcAQJTAlMC0yn+EqDpkwKkAClACpACqaIAgSmBKYFpqjyNNA5SgBQgBUgBUmCKK0BgSmBKYDrFXwI0fVKAFCAFSAFSIFUUIDAlMCUwTZWnkcZBCpACpEAABTIygOWzy3BucwXe3Hkcf9l5HOPjAU6kQ0iBNFCAwJTAlMA0DR5UGiIpQAokR4Hrz5uJy5ZX40TfCL7+UAvaTwwmrOPMjAxcsrQKly6txoyyPGRlZvC++oZGsf1QL/77yd0YGB519L9yThk+f9kc5GZlYnRsHN99ug1vtB5L2DgT2fCFi6tw60WzMDg8hm8/sQsb955MZHfUdhooQGBKYEpgGsKDyr5OKqprMXPmfBSWlCIzM4vrOjTYj6MdB3BgXyuGh4ZC6ImaIAXsChRkZeHyugZ8sL4O1Xl5YLDTPzqCTSdO4L7du7Czu4cki0KBZIFpWUEOvnTFPMyrKXQdXdvRftz9yHb0DDjB9IKFlbj14tn8WrPth8/vxQubj0Yxy9Q5lMA0da5FqoyEwJTAlMA0zqcxKzsHC5ecgbKKKs+WhoYHsW3jX9B9sivO3uh0UsBS4PTKSny++RRMy8tzlWVobAz/t7MVfzxwgGQLqECywPRjZ9fhyvfMwNj4OF7d1oVfvX4QXb3DYKxZWZSDksIcHOgcwPDomGPkDGpvW9WIRQ0l2LK/G995ug0n+ocDzjC1DiMwTa3rkQqjITCdQmDKbjhmxWP/kwFJLCyJ/y52iv1g++VH8ne2z/pMHiDa4yeb7Yj2+SdmX7KPh3/1q1S470Mdw7wFyzCjvpFbR3fv3IyuI+0YGxvlVtPyymrMW7AUuXkF6Ok+jk3rX8foSHp+gYQqGjUWtwIMRv9j+XLUFRRif18ffrJzJ97s6uTtXjB9Om5pakJ5Ti6ODg3hq+vXY29fb9x9ToUGkgGmhblZuOOj89E4vZCD5Tf/0IqhkakZJEpgOhWequjmONFgmmF4Itio2c/y9wxkgP9X+Yx/wI+zYJJ9Zp7Dd4j58/ONNtkJshv5ufmBPIafYzSufqaMTyrLx/Szh54YN4FO0Vx+ZoM9Y7/teIPyOAQKJjTB0MA8gwItcBTny+MtULR/ZkGhaNcCRsfvHEI9wFQMQgHV2MCUNzM2ZkLrZANTBpxLV56DvPxCtG5bh8OH9jqewKrpdViw6HSMjg5j8/o3OKDSRgqEocB7KitxcW0dvtvSgh7tD54P1dfjs03zkZWRgQfa2vBA2+4wupz0bSQDTFk86V3XNKOsMBtPrj+Cn7+8b9Lr6jVBAtMpe+k9J66CaUZmpgV1CvwJ8BNwZ4GkCoQC6Ph/NDgUv1uQqMMfgWkcYGoCrQ1WowdTCaw2i2nIYCr7mGxgWlxagcXLz0Z2Vg62bXoLnUcOOh425uJftPQsjI2PCTA9mZ5JCpP19bmqtg6fa27Grp4efGnDOm5lvHFuE1ZWViA3M5PHa77V2YXv7diBE8P2OOGSnGx8a9kKzC0uxqP79+OHrTscMq2srMTXFy/hn9+1eRPWdolwjlub5uPKhgb8747tWN91DLcvWYzZhUVoH+jHXZs24WB/P25bsADvr5mBkfEx/G7fPty/e7d0ZkS8HHUFBfivFStRnpuLNzuP4o533/U9p/r8C1BzySogIxNHXngWh59/NmIfsRxQnJ+Fr310ARqrCjyhbOmsUnzxg3N583pCjATHDXtO4hu/b0VzbRGuO7cBc6YX8uQhFpP50tZOPPTmQfQPOd3gcsz1Fflg7nTmDmdjYptMNMrPyfJNfiotyOZ9rmgs4+cyd/zJvhG8uLULj719yLdf1k8sYCoBTtc8SNJQmJp94n31WDyzGEwjNu/OnmE8sbYDazYe4b97bUyzj7+3Disby1BamM3jY5mVeGRsDMyCHGQesdxvdE76KcDA1LQ4JhBMLUuo3SoZLZialk/TkjkFLKYS6nSLqR+YCq40XPPKy8JmQTUspkHBVPbnbrl1d+Xzc8bElwM7b7KBaX5hEU5dfg5y8/Jx+OAetLasd7wF6mc2obFpMYYGB/Du+lcxQC7VlHpTqmD6YkcHVjc2ciDVtx3d3fjqxvXoHh4xd4UBps+1t2NOUTHmlRSb7b7S0YHOoSFcUV9vJrgwiyiDy80nTgTSTwXTd7o6cfvGjZ7n5U+vwdxbPovs0lJ+zGh/H9ru+yl6d+8K1Fc0B4UFpix7e29nPy5bPt3USB3HW7uO496n2hwxmuy745oza3H5yhnIzTZ8bC4T8MrKZxnxf/+B2SjKy+YZ8b2Do8jOyuBwxbYj3UP41h92Yl9nv6csEwWm8Wh26dLpYFDKNGNA2T88grzsTA6obNt5uI/P2y3WlSVrfer8WSjIdT5XUiQC02ieosl9bLxgavGhv8U0GjC13O1OV74XmJqAOxld+fGCqQmeumufwDTupzsjIxPNi0/HtOpaHle6d9c2noEvt9KyaVh46hnIzsnlbv6dLRswPu5txYl7QNRA1ApIMGW5zxmsksLYGB5sa8PvD+xHbmYWbp43D5fMmMHb/e6OFjx18FCoYNo7OoLM8Qz8744Wbj364sJFGBgdQ05mBtYdO4Yf7WrFv566lMeS/nhnKx7eF8zt21BQiP9cuQJlObl4/MABfG/Hdk9tCmrrMOeWzyC7SMDx2OAg9jx4P7q3bYlaz0gnhAWmY0Zse/fACO5/eT9e234c5YXZ+Owls8Esrl6gc+myalx/bgP35LGSTPe9tB9tR/u4y6+2PA+rz63nVj03MJ1TXYjbP9KEkoJsXtbou2vacLJf/KGyqL4Yt106BxXFOdje3otvPLbDtJx6WTv9tIrk4o/GBS4tprFqdsa8cvzDqkZkZ2bgxS2d+MUr+/ncmIbnNFfihvNnojAvC29sP4Z71+y21VRdMbsUt62aw/cfPDaAn7y4D1v293DDSVVxLi5fWQN2TQhMIz05U2d/qoCpGidKYGpYO/ltqCYhaTGmAjitg6zEJnEDm8lHShxpLBZT0Y+0esqYVD3WdWpaTJk2+QWFWHjqWSgsKuFW4eNdh7Frx7uoqKzhllKWBNV98hi2bfoLt5rSlloKSDBlo+obGcW/b9uMPx8VSURsq8jNxbdXrER9QQFePtKBb2zeHCqYssZe7ujAN7dsxpziYvzbsuUozcnBkYEB/NP6dWgfGMA9S5fitMppnuECbopeOXMmbp47D8Pj43zMzJ3vtbEXcP0116LitNM5oJ3csgV7fnk/xrXQhTCuXFhgysbC3Mj/8fhO7D7SZw5tdlUBvvbR+SjJz8bDbx7CQ29af0hUl+TijqsXgP379q4TuPfpXY6kI68YUwZhn/+ruTizqZwD1t2P7OBZ9OqmAtz3n9uLl7eK+yhVwDQWzZiV82tXLuBlrbwSta44rYa76QeGxvCtx3di20FRooyd+9WPzMeCGUVo6+jDN37vtKhGA9hh3H/URuorEBaYMsMR27xiTCNZTAlMfZKfBBhK8LOAUHzO/5+LT2A6cQ8cs4g2nbIcldNmKIHY4o+Dwwf3om3nJoyOWC7giRsp9awrYFpMx8fxg9Yd3LqobxIMdZd4GK78E0PDuH3jBrT2dEO63xmY/mrvHh5TyrZowbSxqAh3L13G65puPXkSX92wHv2jznqY+jxzKyv5R0NGHGwi7pawwLRvcBTfeXo31u2xF2T3a/+8hdPw2YtnOQBKnacXmDLg/X9XzgeLlXzg1f14fG2HQx4Gw3dcNR8zpxXweNPvP9vmKmEsrny9oWiATs4pFs1kMX/mjbz36d14a6czlKSuIh93Xr3Aoc0pdcX40uXzkJ+bCRXU1blEM49E3I/UZuopQGCaBuWiIoOpgNPkgqnapzscmxUHJnGMqXyks7KzMWvOQsyom80tpHJj16Sn+wR2bFuL/t7u1HsD0IggwfT40BC+sG4tTzpKJpjKpCsWuyrBND8ry5YoFQ2YsuSte5Yu4zGr0calJuN2CAtMvQrQ+7XPXM7MbcziP+/83Q6wMAB98wLTcxZU4u8unY3hkXHfFYq++uEmLJtdiq0He3DPo62udUgnCkxj0YzF4159Zq1vMpiquQrkH1hahRsvmMXDHe54eDu3NMcD2Mm4P6mPiVcgEpjas/AlxClZ9jKmM+EWU6tUFFNNrw4wxWNMLUjkP4lAogS78glM5eNbUFiMU5acwV35I8PD3Dp6rKsDtfVzUTdzLgfVkdFh7Ni6Dl1HLLfixD/+NAKmwGQCU7YK1JcXLcKZ06p4rGwqFtefSDCV0Oi3qpIXmErLHss87x8axYjxntWfooKcbJ4g5NdHOoGpFZ86jt6BUYy51IVg4R9FeVm8KoKslsB0CVJ6iyym9B7WFUhlMM0wlg2W5aoEkIoZEJjKOqhmdQ4lxjNFwNSE40lsMc3JzcXiZWejqLgcJ090Yuu7f8GIEpdXUFCE5sXvQVFJGdjqT1vWv47eHloLOpVexZMFTFUoHfUJS5ho7dMdTIPq19rei7sfbXVd6z4dwTTovN9oPYb/eVKEoBCYBlWNjlMV0ME0UuKRHRKVwvUJsJhOSTDlMCdXXxJkJ6yfvjGmE2sxleOzjVOOW1v9abKVi5LF88fHRrF5w585nOpbUXEZlix/L8/M37NrC/bvcda6pNfSxCkwGcC0ODsHX128CCsrKlPWUiqv8ESCKYt3ZDGT8VhMw8geT0cw9Sqf5ffkrj6nAZevnO4bBkAW04l796VqzyaYGisseYGpbXUlZVUly4IZfvJTvGBquffTaOUnAtNUfVTcxzWzsRmz5pyCQVajdO3LGBxwxieyGqdLV56HvPwCHO04gJbNb6fXJCf5aMMCUz1jn7t2jEL6rB4pc627FdiPN8Y0TChNdvKTal2Ttxn7UrnunAasWl7tGs8prXCxxEtKUDreO4x/+d12HDo+aLu72Rr1LKOfJfPoILa4oQT/9KF5yMvJwI//tBfPb3L+ERr0UUknMGU1SG+9OHJsrdvcI53LQh6+ckUTX+QgCPCzL/WqqmqMjIzg2DGxUAVtk08BAtMUS37yA1OxzypWL36XN2VwV75p4fSoY8r3i8XuzaVExe9iWVJraVWtRJRfZQDD4jvZLKYNs+dj9txF/Lps37oWRw87M7rLK6p5LdPMrGyymKbgOzQeMGXgec+yZdxS2dLdjS+vX2fLfr+8vh6fMZYFHRgdDR1MVShl7X9/xw6saY8+jlkvF3Vs7dvY/9tfK896eBeOgSeL9WS1RllR9rsf3W5bKUnWGWXxim6wEg+YvmdeGf5x1RweC/mzl/bhmY1WCa2yghx87rI5vB4p23QwVcsmeZU+CqpSOoHp9NJc3HHVAlT5lNjymrdaukuvy8qg9JaLGvG+BeV8gYRIYMru0Ws/thqLlpzKv6HWrX0Hjz3yUELu0aDXkY5LjAKhgKmxHCk3EBhLkjrXqjeSl8RB9vXttbXpzXMDxJjaylRJC4VYQNWKQ+X9Cf0si7C14IdXKStzPpr07PiMnz30xLgFaNYR8jNznw5/JkdaCUomYJpxo7wCqThSceUnAkxlF3y8ZrgAgWnQx01dkpQlOLW1buZWUVYaiiU9VVbPwJx5i5GbV0AxpkFFTfJx8YApG+rqxjl8tSgW18mK8t+3axcvzP/JOY34UF29eOEZhfvDtJiqUDo4NoYHdu/Ga0ePeKrXNzoKVnnAbUtmgX3Wv8z0ZolET63vwK/fOIicrCz89VkzcMmp1cbLezx0i6kaRsBWKPr+s3t5ss4pdUW4+cJZmFGehx2HevnypqyA/NcfakH7CcuqetGSaTzLnIFt+/FBPPjaAWzc283jSBlcsQL9Z82vwNJZJfjeM23oOOmudzqBKbtenzy33lxhi8XOPvj6QbS29/AasAwwGyoLcG5zJdfve8+28WVh2ZaTlYkvXDaHh08w8Hzg1QN4btNRzJyWjxsumIkFtUXY3dGPGeW5yM7M9K12UFFRiRtu/gzKyyt424ODg/jtrx/E9patSX5jUHeJViCZYGqiIIGpZeo0SyoZdUwFfMYJphwyvbPyZR/S3Cq6JjCN9WGrqZuNufNPtZWJ0tuirPxY1U38efGCaU1+Pv59+Qqwf/WNlWv6zd69uKphJvQSULc2zceVDQ2I1ZW/srISX1+8hLcbZPNbljSZS5KysaqF7vWx9w6O4LG3D+NDK2qQn+OElXgspqwvdSUitW8Gye/sPoEXNnfic6vmYGDYCabMwnHtWXVgBeUZnHptx3qG8fWHW0IDUxWoI13rsK3MrD/duuk1BmZJvvORHegbsmrmspquX/lwE6YV5zhOYxZzZrlmIRJu11o9IScnB6uvuwFz5zWZHz+z5im88tILkSSh/WmmQMqCaYbiYufmTvdyUVPQYsox0nKxu7nyFTA1QVexxnqCqbquveHKt4EyufI9H28WP1o/cz4qq2uRm5vHLT5sidLB/j50HN6Pw4faMOxhrUqzd8akG268YMoEqc0vAAPNlZUVyM3M5PGka7uO4Se7WjE8Nob/XLESRdnZobrywwRTDovnX4CaS1YBGZnofO0VtD/1x4S6SWtK83D9eQ04dVapuf76u3tPcivk8OgY7rq6mS9j+e0ndvHlP+UWL5iydppri3DThbPQUCn+mGAgyQrmr9l4BEtmluCLH5zrCqZyDE0zivCR02vQXFsMBo3MWsqshx0nB/H69mP40+ajjlWh1AcnWovpRIMpGzv7Hl4+uwwfWjEdc2sKUZgr/iBi1uIDXYN4eVsXXtnWBfaHhb7VV+TjxvfPBCu4z4Ce1TVlfwA89vYhsBCKu65pjgimrM2amlpc/+mbUFJayrsgMJ10r2M+oTDBVK0larnjraSoSBZTy6XOqDQImDpDAgx+ncyufALTyfko0qxIAVKAFCAFIilw061/h9mzGzEyPILHHv0tNqxfF+kU2p9mChCYpl3yU6qCKbvzldWnxK9Wkf9JmvyUZs87DZcUIAVIgbRVoLCwEDfe/LeYXlPDs/J/+qMf4PjxY2k7Hxq4uwKuYKoUsZd1S+2F7bWVn4zkJ7KYylhN5V+eUKRoryZFGSjH93JPe6Dkp4kHUzFet3EQmNKLhhQgBUgBUiB8BcrKy/HRq67FnLnz+PfPC8+twUsvUnxp+EpPfIuxgqlV19TIsrdlwVvZ7xmZqe3Kt1aQMqJYDQK31221X6eYs/ItoIsn+YnAdOIfGxoBKUAKkAKkQDIUOPu95+DCiz+AvDwWu5+J0dERvPH6a3jm6ScSGgOdjLlRH+FaTAlMYygXFQ2YmtZUR7koAlN6mEkBUoAUIAWmhgLnnn8hLvnAKr54yd69e/Hcs0/j0EFnveipocbUmOVktJjaaqiyy+hTxzRlLaYEplPjAaRZkgKkAClACpACpIClAIGpUmjfgFjxjxVHq98vUbvyBWSKLWiMabqAqZyTCI+lGFN6uZACpAApQAqQAqRA7ApEA6aWdVEt05R6MaaxWEzVUlYEpsqSpCZ4KkuSWoBtrF5l1DclMI39QaQzSQFSgBQgBUgBUsCjjqlHVj6BqbhjTIupzQKqWURty5W6LUtqLXJvlFSyZ+WTxZQeT1KAFCAFSAFSgBSYagpMJYuptKQadGlCJodNQZzm5fdy5Zuf/+yhJ4TzWgFM9fepDKamDlTHdKq9T2i+pAApQAqQAqRAXAp4gakdzJjr3oq75MWgzBjM9HHlTyowlfBncbG6TCknQm6JtY6zfrbA0fhMrb86NibO8VmS1AJwd1c+gWlczySdTAqQAqQAKUAKTFkF0hFM3UMKZPyBUkPVWhVAgLVcr1SxjlrLoIZsMbVZUxPgyk8nMOVjHRvj1uWHf/WrKfuw0cRJAVKAFCAFSAFSwF8BCaZmIXy+SL1znfpUspgmGkxtJaQU977gWSNbP5Irn8BUs9oaltiHfvlLeiZJAVKAFCAFSAFSgBRwVeCav/kb/jmBqWUxTQ6YCnLl4jO3ub4kqfzcOMCMZZVLgaajxZSNmcCU3kSkAClACpACpAAp4KXApAJT05uv1SA1Cuybrny3JCdhDhWQ7rJf6heexVQDU/7rmBYHKqufMuOjhFhjjXoCU3qoSQFSgBQgBUgBUmCyKTAVwDQj0wBOGWOaSDCVwKj+y8yhjgL7BKaT7Vmi+ZACpAApQAqQAqRAnAoQmEpodVpMVctpYIspgali9VUrA1CMaZyPKp1OCpACpAApQApMfgUITJMMprollf9ulnUScaem2z4NXflyfnwOBKaT/w1CMyQFSAFSgBQgBUJUwA9M7dnvqVPH1DMr3y3G1IgvZZLpMaa2WFJ+gD3GNCEW03QHUzF+GfPqrGNKYBri00lNkQKkACmQYgqw78nls8twbnMF3tx5HH/ZeVzm8abYSGk46apAPGBqhmoy+FOK7ouKUwbkZWZyafgynlIkDotOCLRqirqXrJLsSGBqK5wvVQ2nwL602JpRsQaEioL7EkTVFa+0fo1i/dJiKi3C4vdxyspP1zcFjXvSKVCSk41vLVuBucXFjrm909WJ2zdunHRzTuUJFedn4WsfXYDGqgJs2HMS3/h9a0KHW5CbictX1uC8hdMwrTgHmRkZGBsfR//QKP7Sehw/eH6va/8r55Th85fNQW5WJkbHxvHdp9vwRuuxhI41UY1ff95MXLa8Gif6RvD1h1rQfmIwUV1Ru1EowMHUAEXLomiApKsF0QJKVzBVrJYcIJU2CEyNC2MuV6qUi5KWyHhc+Z7WSjU8QM3uN/tXQNM4VgdT0baxKpRSJYAHItgqBoi2phqYspu7qqYBdTPnobCoBJmZWRgbG8XJ451o27kFvT0nongs6VBSIPEKFGVl42tLlqCxuEhYDwAUZ+cgKyMDQcE0JzMTV8+ciQtrZuDPR4/iJ7t2Jn7gk7SHZILpzGkF+NIV81Bdkuuqph8YX7CwErdePJuDLNt++PxevLD5aFpeFQLT1LxsYYBpRoZlFTUT36UFNU4wVQYvkdUAACAASURBVK2j/N3puTSqsLKK96tijZ1KrvwgYGo7xqBhZgdVYZmDpWt8K4Gp22Ocm5eP5kWno7R8Gt89PDSEsfEx5OTkmIC6d9c2HNiXWAtIar5iaFTpooBqQQ0Kpuo5j+7fjx+27kiX6abcOJMFpuxL9PN/NRdnNpVjaGQcT6w7jMfXdqB3cITDJrOeFudnY/eRPleNygpycNuqRixqKMGW/d34ztNtONE/nHJ6BhkQgWkQlZJ/TNLBVAVVrWyTmyufwJTDY7A6pvGAqTzXy5Uv9hOY6o9oVnY2Fp56JsrKqzAw0Idt776F3p7j/DBmNZ01pxl1M5swPjaKre/+BcePHUn+U049kgIBFCAwDSBSAg9JFphOL83FXVc3o6I4B3/a0okfPr9nysaIEpgm8IaOo+lkgKnbevQ85pTA1Fr5yTBeRp2Vb55nizvVMuIVV76XxZTANLanqKqmHgsWrsT42JgreLIl1ZoXn45pVbXoPHIILZvfNgE/th7pLFIgMQoQmCZG16CtJgtMl84qxRc/OBd5OZlp7YYPqqvfcQSmYagYfhvpBKaSYyn5SYFQAtPwH4poWpy/6DRMr2lA98kubFn/Z4yMOl1aVdPrsGDR6RgZGcKmda+jr/dkNF3QsQlWwM0dvaisDLfMm4e5xSXIzcxE9/AInms/hF+07Ub/6KjriMpycnFL0zycUVkF1iZLJDkxPIxn2g/h13v2eJ7HGivIysLldQ24rL4O1Xl5PM6Tbf2jI+gZGeXnP3HwgK3fuoIC/NeKlSjPzcX/tLTg6UMHHeNaVVuHzzU34/jQEL6wbi0O9vd7qhkUTO9ZuhSnVYqwlSDbrp4efGnDOq6h25aZl4dZH1uNkkULMXLiJPb+8n70tu0O0nTUx8woy8Nd1zSjrDDbE8ouXFyFWy+a5UiIUcGRxVW+uKUTly6txuUrp3PrI9s6Tgzh128cxJ9bj3laIdmlPWNeOT582gywWM/cbCvpKD8nC1mZGb7JT/UV+fjE++qxeGYx2PHsPuvsGcYTazuwZuMR/rvfFguYSk30dgeHx/DtJ3Zh4173d1rYmv31mXWorcjjGrEwhD1H+3D/K/vRcqjXd85Ms4+dXcfDD9iY2DYwLJ5jpiElP0X9KCX0BAJTIS//FkjHclFs3OI9pJZuEhZT8alIRDJjSNWseeNk26pUfslPRma+VS7K6EHJ1pfJUFbMqjWGyZaVz9z4i5aejdKyShztOMCtoW5bcUk5Fi8/G1lZOWjZ9BY6jx5K6ENNjUengApkfzTg77LaOjO5Q23tjaNH8c0tmzFkLBgh9505rQr/tPAUnjw0Oj6OnpFhZGdmgiUYse3wwADueHcj2nqdX6CNRUW489SlqMnP9xy4W/zmZAHTqnPOQ+3lHzZdaH1792DnD7+P8eGh6C5kgKPDAtMHXzuAs5oqMK+m0NEry1T/yYt78fymTsc+Kz6z2PX+kie4JR+x76dLl07nUMpgloFZ//AI8rIzOVyxbefhPnzrDzt9Yz4nCkxj1YxVD/i7DzTitDllXLO+oVGMjI6jKE9APAPxJ9d34IFXDzj+GGCaXXNmLS5fOYNr5rURmAZ4eJJ4iANMZQKR6WpnLncD3vgPWla+USpKcJ09AUlm5UfjyveqDMBTmmzjEDhpKzs1mZOfBENKwFRWVwoIpvJ8eztGQX/jhpMlnWwF/tX4VgJT26PJYkgXLj0T5RXVPHZ068Y3eSa+vrHkqKUrz0NefgH27NqC/XsoQSSJ77iIXalg2js6goLMLBwbGsJPd+3CK0c6kJuZhduaF+C86ukYHBvDNzZvxpudVhZyU3EJ7lm6DGW5OVh7rAvf2rIVJwyoOrW8HF9euAjT8vKw9eRJfHXDepvllGW13710KZaXV+D48BB+vHMnXjtyhB/DKz3k5WFhaRl6R0d5pry6TRSYqmMII/mp+vwLUHvZ5aZlYKD9EHb+4HsY7XNPvol4QX0OCAtMGQwxSGKWup/8aS/2dvZjcUMJ/v6SRm49bTvaj7sf2Y6eAet9wMDoH1fNxelzyzhUPr/5CB79y2EOkQwsm+uKcOuFszCtJNfVYsqsrP+wqhHZmRncWvuLV/ajf2iMfzGe01yJG86ficK8LLyx/RjuXbPbhDTpro5Gt0iZ9tKCGo3FNBbN2NxuvWg23r9oGvoGR/HTl/bh1ZYuPjcGrNed24ALFk3jv3//2Ta80mIvW3Xpsmpcf24D12j7oV7c99J+tB3t4xnSteV5WH1uPVY2lpHFNJqbIwnHJgJMnVnx7qsrudYytVLrRe1TqyaVJ5iaxxCY+pRqUjLvbRZUvWSUvvKUtLzKTH2+X9yZAmDVclH8U7uF1lj9abLWMZ3TtJgnNw0NDmDT+tfQ39fjC6Z7d2/DvraWJDza1EVQBfR6ntu7u3HnpnfROWjVNGS1Pv9t2XKU5uTg4X378OOdosICe+fcvngJzqmuxv6+Pnx5/TocHbJb+t5XXY1/XrgI2RkZ+O+WbXiuvd0c2oz8fPznipUcXKPNap8sYJpbUYHGG25Cfk0txkaG0f70kzj68ktBL19Ux4UFpqzTtbtP4DtrdnM4lBtz668+p4FD1Dd/34rt7ZaFnBWk/+wljfzQn7+yH2s22BMh/WJMGYR97coF3ELLMuG/+YdWDrfqdsVpNfj4e+swMDSGbz2+E9sOindRqoBpLJqdUleML10+D/m5mfjV6wfxh3cO2+bMYP8rVzRxFz2zFt/96HbzerBSWHdcvYCXxHp71wnc+/Quh2YUYxrV45O0g2MBUwsohfvbs7i+UcdUL67P3+deRfYJTN2XJJUgKGHQAsNgrnz78ep69jIBS8n8N9yUoqi+BaGyyD6BqfV8FpdWcDd9dlYOujrb0bptPYaHLKApKi7D7LmLUF5ZzW96AtOkvdsCd6SC6e7eHnxl/QZuvVQ3L8vgnKJi/NvyZWDxpQxWGbTqG4PZf1++Asxl/2x7O/5z21bzEGYRZXGi0/Pz8XZnF+7Zssk3FlVte7KAKf9CyMpGXnU1hk+eSIilVOoWFpi2dfThG793usylm5z1p8ZeqiWadICSY/MDU1nUnv0hdO/Tu/HWTmdd5LqKfNx59QKUFmTjgVf38xJQblssrny9nVgsptFqxvq85cLZuGjJNBw6Poh/eXg7jvc5Y/g/sLQKN14wC90DI7j7kR3Yc1TEUbOFAz578SwHqKtzITAN/JpM6oEJBdMoVn0yYZXANH4w5RA6ZmX8uxXAN0HVpcg+yzDn+wlMAz2MDbMXYNbcU/hfaEzrkeEhnnmfnZPLS0apG4FpIEmTelDQpB+3Qb1/eg2+uHAhhsfGcNfmTVjb1eU6dpkwtOnECXxlw3p+PH/pAfhc8ym4tLaW/86stH84sB9rDrU74FhveDKBabIueFhg+uT6I/j5y84/QrzAtCQ/G3dcNZ8nOzFLKXNJ65sfmLI4yavPrPV1Oavnv7i1i7u2UwlMo9WMhTd87comNM0o8k0Gk5oz3lChnYU2MFf+vs5+3Pm7HRxc9Y3ANFlPXnT9pCqYZmTalyz1izElV77p0VGgNolgKiFXJmHZQwUmb/KT+qgxy2jjvEW8yD6DUabB0NAgThw7gqOH92PeKSuQl5ePli1v4+hhe3Z1dI8sHR22AvGAqcx6Z/FzfaMjGPHIiC7MyubZ/W4Z6iwj/x8XNOO86dPNhBieaT00hD8e2I8nDh7iyVQEpvFf+YkCU7VfL0DzA1MJUOy+6B0YxZh0ZSmSsD+MZUKQ38pNE2UxjRZMVT1kopfbHcBibgtys/izo8bGfvXDTVg2u9Q13le2Q2Aa/zOViBaCgql7iaYIrvw4LKZ2MJWQKhTQx0JgmgZgyuF1bAwP/fKXibiPU7pNmZWfgUxs3vA6uk+m57rSKS1yHIMLA0yDdt9y8iS+rCVAyXObS0vxsdmzsaysAoXZlqWdQel3tm/Hyx121yxZTIOqbh2X7mAadMZs7fr/edK95FY6gmmQeTNo/96aPXh1u/BaEJgGUS01j2FgymqAc+BjfiWPrHwCUzsUZ/zsoSdEkSYXC4nuOuerKSnXX13+k7dhlnoysuRN97pZ84mf7Z+Vb7Qkz1UspvZztVWkXFz5ttWfAsSYWu1rY+B1pZT5TVEwrZ/ZhMamxejtPoFNG17DyHB6Lt+Xmq+w+EcVBpgOjI76uvKjGSV7By8oKcHHZjfijGnTeE1TluX/5fUbwGJg5UZgGo2q4tiJAlN1taV4LKZhlDVKRzD1swB73QUsaYrF5rpVSJDnkMU0+mcoGWe4gak9W16UaYoWTGWpKA68PEHK2LySnmQNUVmOyubKJ4upCaYCAuXSoDKJSaqrZsh7r/7kBc4qMHMItoqhCihWykVZUK7WTyUw1R/a/IJCLF52NvILinFg7w607dySjOea+ohCgXjAdFlFBf5l8anIy8rEd3e04KmD4daovbCmBp9vPgWsrJReRF8F0wfa2vCAVpSehQ58ZdFinF1VFWqBfVVaVTtWQuuOd9+NQnnr0IlIfnr4zUN46E379VJLOukQqLqWo3VLF+Zm4Y6Pzkfj9EKs23MS3/pDq6PmpiwHlZuV6YipvGBhJW69eDaGR8Z9C9oHET9dwJTNJQhces2ZVUdgVRKO9w7jX363nSdQqVtlUQ6+9tH5YEljYQB/EO3pmGAKhAqmSrkmVzD1KGBvy9A3rLY6HAvAFXOy9hmWXnOHsV+ptcqrBmhlpPRC+rxNpQO9jJWqpLlvoiymiQRTEzY9iuwTmAZ7qORRrH7pKUvOQElpBfr7e7B5/esYHPBeeSe61unosBSIB0xZfOi/LV+B5pIS7Ozuwe0bnRn98YxzYWkp/nXpMhRlZzvAVM32f/XIEdyzeZPpmWEvtFub5uOK+noeexfmyk+2FyKAe5Ytw8qKSuzt68U/r1sfMWlL18NWLmpoCAceeQjH1r4Tj2ye56pJSG+2Hsd/P7XLBET2RXHdOQ1YtbyaaxYmmLIBsVJRDDC7eodxz6M7sL9rwBznkpkluG1VI1gBfrbpFkJmcb3jqgWo8il9FFSwdAJTmVnPnG9uJbb85vyeeWX4x1VzeBH+n720D89stGoPM50/d9kcLKov5k0QmAa9e5JzXKLB1Ku4vh0wlUL5BKaKBVKxWJrQ6Fk/lB9hhhaIuqFqmED8qz9JMBVjseqYyrGpyU8W5E4tVz5LfCooLMaMukZU1zSArQ7FsvS3vPsmuk+4Z2wn51GnXrwUiAdMWZt/VVeLv5/fzF3uB/v78JNdu3h2PiuSzwCnvqAA51ZPx8rKCnx761a0D1hA0lhUzM9/u7OTrwp1dHCQP/XsvPnFxRwu2fKobq581vdXFy82C/+zclVPHDyIypwc/O2CZpw1bRrG2V/m4+M4OTwc2pKkuo5XzpyJm+fO4x//ubMT/9e6wzbHSHdeMgvss7EwIDm7qQJDo2N8taBnNx5FeWE2brhgFk6bW2rYKcbR3T+Krz/UgvYTwtIWj8WUna8CIasx+r9r2nhxfbas6VVn1PF394FjA5jvkYX+yXPrcdlykSDX2t6LB18/iNb2Hl6bk1l6GyoLcG5zJWaU5+F7z7bZivur1yCdwJRpfvtH5mPu9EKwFbX+tKUTj689jMMnBvl3ENvfXFuM9y+exrPvf/OGZQFXrxfT+fvP7uXAf0pdEW6+cBbXacehXsyZXshrn6rXOtI9S/sTq0CsYGrVvVfqmLpYTKNZ9YnDamAw1VZ9EifzzV5XNQ0tpibopRiYinHJMAI1vlYW1XeHY+NT/uJ96MEHE3tHT0DrzYtPR9X0eteee3uOo2XLWvT3dk/AyKjLIArEC6bsvXP9nLm4ZtYsc417t35ZKaj/b91aG7StrKzE1xcvQX6WvayYej6LX/3+jh1Y0+4ME1hcVoY7Tz2VL4Wqb0cGBvD4gYP4m8bZYG18Yd1aHOy3LPayokAQjdiqU7dv3Oh6aHlOLl/5al6JsD7pm1slAvWYZC5Jyvpt5kXb56IoTywXq25Hu4ewZuNRXH3GDAwM22ElXjDVLbJqvwwu7391H2rLC3DZ8mrX8kgMPm+5qBHvW1Duu5wpqxd65yM7+NKdblu0YKrOO9K9oq8EFa9mrD/mav/ny+fxlZr8Nla3ldVvVbcVs0tx26o5fEUsdWOJUu/sPoEXNnfic6vmOK51pHnS/sQqcM0nPmHEgJpUZ1/m01gKVACmthwpd6sr7nQCU3Gx4k1+km2oMZ7OdvUVl/gRCbWYijF4g6k+Rmm1NUY2JcCULUk6NDCArq7DaD/YRkCa2PdXKK3HC6ZyEDKrflFpKUqyczg8DI2NoX2gHy8e7sAzhw46VoViFtMb583F3KJilOTk8JJSbGNfnGxZ1HeOdeHXe/bYgFKfNAsj+Nv5C9BUUsLBuG9kFG90HsH/te5EY3ERj4EdHEscmLLxsJAGVlHg4poZqMjNtYFTJDDNzMvDrI+tRsmihRjp7sb+hx9C97bExmKzFZRYnUtmLWOuXrZSEwMVtswnqzX6Tx+ah6GRcMGU6cTuib9aPh0fOb2GF8JnVsDdHX28X7a8qUzG8Ur2Yd/Dy2eX4UMrpmNuTSFY7CrbBoZHcaBrEC9v68Ir27rQO+is2Snvm3QDU35/5WbiosXV3DI6vTSPW4jZM8KWfG051IPnN3VymGefOZ6P2iLcdOEsNFTm813Heob54gNrNh4BC6H44gfnEpiG8iYNrxEvMHVbLpTAVIlvjTbGVMCZHVxlcJOelR8UTM3j3MpFheDKl0Apcp5kiAGBaXiPH7VECpACpAApQAqQAqoCYYOpzL+XyU9hu/LdqwNY1l42t2hd+WrFAH6+lqSl6hVz8lMsYKqCoYRQ6189G97qwSwrFUWMqTxbrmlvgqjP6k9WqSzNUmsrbSWInOf0T1JXPr1SSAFSgBQgBUgBUiAcBWxg6qhhqkOa5srnZaCsWE8RHqqs2GSUhnIDPwswjXJSarkoozyVCqECGL3KVilhCGr/xkmRsvLjAlMVGOUlcbjyxUFRW0zDBlMn3BqW0CQuSzoZY0zDeRSpFVKAFCAFSAFSgBTwB1MlcciIMbWsieGv+iStnRxwlXqnVghBAsHUzObytpjaYFq68lMdTCXc6rBs+z0EMJU6+C1Lyo757QMP0FNHCpACpAApQAqQAqSAqwJ/vXo1/zyVVn0iMFUTqDRXugXClivfMMiaUayqK38iwdQcqxJSQGBKbyJSgBQgBUgBUoAU8FJAB9MwVn3ioCuXOQ2w6hM/3ggLMCjZYTHVi+tzlNZjQfVQAtFwxAL7anF9ORb1X6ld1BZTCyIT68pPBJgmallSAlN6GZECpAApQAqQAqRAMsE02uVIUwlM9dhXVbeEgall1TQq1+sWU3GAVoYqsRZTG5gq/bsX2TdmwFeMsn42wdyoGsDOJTCllxEpQAqQAqQAKUAK+IGpuZK9klwk65ZaCUfOGqbcGiktl5GWIzWtl0pylJYBr4/DnoEvZuCZla8tO2oeZ1hMzbaNcahtuS1Hau9L7xvICBJjaoKZ+MGZ/GR8PuFg6jY+j2VJxaGxl4wiMKWXESlACpACpAApQApEA6aJrmFqg0LFHZ8UMHVLcnKBVQJTAlN6a5ACpAApQAqQAqRAkhVgMaZeQKjHm0pYs+I9Y1v1adKDqWopNWt9JtliyscwZrj79RWhjJvMTJJKtMVUmIR5LVOymCb5CafuSAFSgBQgBUiBNFLABNNoa5iGuBypCbyyBmmm3d0vEp2EqHG78gNaTNV4Unk5A8eYxgqmNpg0SziZAZp8HBZM+seY6mBqP1dMKWYwFQGvcuEqI/ZVXyJV/G6BOYFpGr0XaKikAClACpACpMCEKOANpsFqmJqw6BJjGtOqTzyjPziYWrGkBrhqBfbNtozPTcJV41vFJGzgGxFM73v4yXHXQvrGZXTsUyymKrg6liWVVs4UAVM+Vp/Vn6y56CtREZhOyBNNnZICpAApQAqQAmmsQCQwdbdQRiiuLzKmrHJOGvj5rvqUJDC1jSFKMOWlrRIGpozvFEujmTIlDafmPjeLqYGR5rr23H8uwFK3kLpYTMXZ1mpQQZYljQSm5n5y5afxa4KGTgqQAqQAKUAKJEcBFUxDq2GqgGmsy5GalljTAmpYRE1XvABfX4tpgBqmvJ+pDKYWOMp4VKUs1ZiRfR+HxZTANDkPMvVCCpACpAApQApMBgUSAqYBi+tL+LRc/rxCvlY4X7rYJwGYSoukZWVU6paaVs3IFlPVSmmFDMjbUY31dFpM1b7jXZZUtGWBLLfNRqhl+psH7p8Mzw3NgRQgBUgBUoAUIAUSoMC1qz9pEJ8TCAPXMDXMjjK7P5ZVn0QTQcHUfdUnsw0ZPxrAYupm0ZXArMutWpRjcuVHA6YSIN1c+SqYmscZrn4Jh+YxSnF7Pe41EpjGWmRfh1/ejzEOAtMEPMXUJClACpACpAApMEkU0ME0aA3TRBfXt+DQsph6ZuQbYCzBVC+urwKrI8lJXscokp9iizEVtOYssq8lOfFf1RhRl+SjSGBqwaoFhKxnXzB1G18CapkSmE6SNwdNgxQgBUgBUoAUSIACsYJpRkbyapgKSPUpFWWAqWmxtWpLWWWmtKx8t4oBFgyrfVmie1pMVQuhPNw1Yz+BYGpwpZG+pJSCCmoxTTSY8vYBAtMEPMXUJClACpACpAApMEkU4GCaxBqmbvDHLZDmIAQURrUcaRLA1FFJQM3K9wNT2z6fIvtW5ryHxdQAOzvwRlfL1A2Wk13LlMA0td8cJaWluOGmz6CqqhrDI8M4fKgdL/7pObRs25LaA6fRkQKkAClACkwKBdzBNHk1TCWoWvGpwWuYmpCr1FBVwVeUrBKXScSvmhGlnqWs5EXV65gmHEwFdxpF691c+QaYStAVkBkdmNrPFVMNAqZybDIOgZ/jUWTfatM4SytdRWCa2u+NouJirP7kDaiqrkJeXh6Ya2R0dAQv/ul5vPjCc6k9eBodKUAKkAKkQNorIME0EaWiBBDai9cns4apBFPLGptCYCoBzqBD8Y8EzQBF9sX5RjknE/7k/eifmW+uxiRrliq1SyX/mtbVkEtGpQOYZmZmobZhDhpmLUB2Tg6OdhxAy+a3Iz7s7PaqqmlA3cx5KCwqAWtndGQYXZ2HsX/PdvT1dkdsI5UOmFZVhdXX3cCtp8eOdeGnP/oBjh8/lkpDpLGQAqQAKUAKTDIFQgfTJJSKssW3mvRrWEXVFZ3kClIe8aVu4Cwvb9wWUxU8rWU5reQnXzANUGTfOl9fCtRAXJ8i+25jE5nzia9lmspgysCyesZMNM5bjJzcPPNRDwKmWdk5WLBwJSqrZri+IsbGRrFj2zocPXwgrV4hCxcuxjXX/g23nD726G+xYf26tBo/DZYUIAVIAVIgvRSYKDB1ZP9PQKkoLzCNuBypXPnJFT6V6x/zsqRaZn4YJaPU1Z+iAVNbySh19SnDlS/a8q5lKvuSJaNSEUwZkE6rrsfseQuRX1AEBpFH2vdzyGSAGglMGbTNa16GmtpZ/Ny9u7ah/VAbxkZGUFRSjqaFK1BUVIqR4SFsefdNdJ/oSpu3RG1dPT51wy0oLCzEM2uewisvvZA2Y6eBkgKkAClACqSfAiqY6glH4ncr5tNadEkkK6mrLpm/K2WX1Bqh7mWolNqpEcA0EaWiYgFTcx4s+SkWMBX2TLGpllTxuYwZtSdAxQKmOhDK9sOqZSral6EETjDVtZH9/ub+1Cuwn5uXjyUr3oeCgmL09hzHjq3rMTw8iKUrz0NefkFEMC0tm4bFy85CRmYWWls2oOPQHtubIL+gEIuXnY38gmJ0HjnEwwKkdqn+yiAwTfUrROMjBUgBUmByKXDtJ0WBfTUTXo83tfaLuUcqFWUeL6VSsuzdANUvI1+0FblUlIBMFZa1xCfZkOrqV8Ynx6z+q15px7hjAlNBa1GDqQmtisXSAj//BCi1uP2E1zIFkIpgyrSsn9WEjIwsHNzXyq2eDFaDgmlT83LU1M1GT/dxbFr/Oo8r1bf6mU1obFrMgXfTutfR13syLd4kBKZpcZlokKQAKUAKTBoFEgGmbjVC/SymqV4qyg1a+cpPFhyqFkPr3gi9lqkgVK1QfnIy81WrrTkvJTPfSqjSY17lMqVinKkKpvoTHRRMc3PysHjl+1BYWIK9u7dhX1uL4+VQUFCE+YtOQ0lpBd/XsuXttIk1JTCdNO96mggpQAqQAmmhgBNMnaWiJJgJz75Vc5TDplKOSfyuLBcqTuQ62GuTahZaGS4gk5WsmAGr3JPtM6WkVNBSUdpY+K/KZ27wqV7A1LCYGmAqgXiiSka5gakF6RYoi1wqe4WAyQamxSXlWLz8bGRl5aBl01voPHrI9uBXTKvhMaYMYOW2b08Lj0NNh616eg0+fcMtYPVNKcY0Ha4YjZEUIAVIgfRWgIFpLKWiTJDjbKqCYnLAVI1vFZCp1T/Va5imNJgKquN3UjS1TFUYtKyz8oaMvWSULQbWWJZUji3eWqaTDUzLKqqwaOlZGBsfw+b1b6DnpCinlJGZiZmzm9HQOJ/fnCePdyI7J5eXkYqUTJVKrxRW1/TGmz+L6urp2LDuHTz80K9TaXg0FlKAFCAFSIFJpkCsYKonPlmg6gRT3dooj7Vc/sLy6h7bKgSXiViOtiJYTIPWMLX6iLwcKT/2voef4gvRu7rrjZvErV6oGmNqgaUdTPnngWuZikL70YKp2rdtDgkoGSX7Yv1MNjCdVl2HU5a8ByOjwyaYsjCApuYVqJg2XWTp727BgX2taF50Oqqm16UVmLJrd8VHrsJ7zjgLAwP9eOKPv8f6te9MstcgTYcUIAVIAVIgVRSQYOqekc8RTAFGy5XvCqYBa5gmvFQUN1gZFtQQapg6oTXDCaY2yAwDTKOsZWrBn7y1/C2mYYKpaEvGvjpd+VMJTNltx0A1N68AQ4P90OjHjQAAIABJREFU2L51HU4cO8IvSvNiBqb1aQemrFTUR6++FguaT+GZj0NDgxgYGMQf//Aotm7ZlCrvMhoHKUAKkAKkwCRQICiYRioVxeEtQWAatFSUCZAB3PgCue0xsPJyRiquz2Fdt5gmCkxNqDN96GKYdkutDoP8CPO4qDLzXSymsdYy1cc5GS2m0pXPLNzHuzpQUVXDV3xirnuW5DQ0OMCvQ1ZWNnf5l5ZPSzswZQ/EBRdejDPPfC8Ki4r4X6rDI8N47HcPYeMGKrg/Cb4HaAqkAClACqSMAjqYRioVJZOfwqphOlGlopICpk6AVF32dsBUY0zFefZapgI1efSAL5ia50YBpib8GlDqKGllxJm6ZuZHrGVqjNxo+9e/+EXK3Px+AwmalV9cWsGTn7KzcsR1wTgO7Gnl2fnMjS83trTpkmXvQ1FJmWf2fqoKc9HFl+K891+Ewf5+vPji83j7L29yqyltpAApQAqQAqRA2Ap87LrreJNWDKfoQf4uf5YW00g1TL1KRalWSBV+J7RUlJicMl//+FKbTkEsphL41H8Nqoy9lqmgH6MZ6a5PjZJR1jy9M/MnG5gygD115bnIzy/EyPAwWlvW8SL6+lZYVIolK96L7Oxc1+z9sB/ssNorKCzgyU81NbWU/BSWqNQOKUAKkAKkgKcCbmDq7jpPnVJRE5WRn5JgqsKgPQFKg1WZTKVbUo1bg52rrkQVdma+HOdkA1P2lxqLHZ1WXYvjx45g68Y3bZZS+eTJAvuDgwPYtO5VDPT3psVriZWJuuGmz6CqqprKRaXFFaNBkgKkACmQ3gowMA0l8SnhNUzVJCwzFV9YO5NUKirNwFSYVu0Z9+qyp7qVVfk9hsx8AZ6RlyadbGDK5l1VU48FC1dyrVu3rceRw/ttbwV1SdLDB/egtWV92rw1CEzT5lLRQEkBUoAUmBQKqGAaa3wpB7YEJT7ZYFBzu6vF/a3jDMuuVkbK4bIXJ5jX0K2kldzpDEMImPxkWTO1laGUZUnVY0RspwREjxhTwZt8C5IAFRaY2hKgjDFYbY8Z4/ECUwuSUxVMmYs9MyvTvCFyc/NxyqlnIi8vH11H27Fz+wZz39joGEZGhszfs7KzsfDUM1FWXsXLRrW1bsaR9v0YHxtFUUk5L7BfVFSKgf4ebN7wBgb6+9Lm5UFgmjaXigZKCpACpMCkUMAC0wgrPnGOE9/bXis+yX0m7qmrQHnEcnJrp08N06gz8g3gNGNiRePWuI2rFsuqTzZIljGmnvBpdBRXLdMQSkbJ8UWVmS9OssfB+iVAKUuTWnq4x5mmKpjKUk5Bnmq3AvnMKrrw1LN4AX23bWh4ENs2/gXdJ7uCdJEyxxCYpsyloIGQAqQAKTAlFNDBNBHxpRbQ2Yvoh5mRbwGzAtgJqWHKe7LKRSUDTE24TGDJKBvA+oAp36VVBxC/s7AB8czoS6XKpUnZvl/9/Ocp+WDFC6ZsUqxMVG3DHNTWz+F1THlZpaFBHOk4gH27tnFrarptBKbpdsVovKQAKUAKpLcCH7/+emMCAugigWk0Kz5JWIwlI1+c6zUeZ4ypNa40AVMBeCrIuaz+5FUyyjjZy5VvcKWtlin/LJ4EKH6+4bL3AFPZr2Uldq6Mlapgmt6PceJGX1Zahhtu/gwqp1VR8lPiZKaWSQFSgBQgBQwFJJiGFV/KgVJSpeH218HUKilluNjlKk1WFX8z/NPTlR9hKVIxDnmQVhJKXn03F78Sd2odpocCmBZTQYixLEsaBpgKEJQucxnnqcSoKhn45rFiIVU+N33cUS1NqsOxh9VUrxRAYJpe75558+bj45+4Djl5eXj6iT/gjddfTa8J0GhJAVKAFCAF0koBAabO+FILVP3LRHEADDXxyUBKkyklFCrxrSb9xpGRr8GzDqHqRXSFdhFjGhlM3QDQoMK4LabOtlVIllMILzPfNwEqoDufwDR93g9l5eW49uOrMXPmbPR0d+PnP/sR2tudNVrTZ0Y0UlKAFCAFSIFUV0AF00hufMFyIlnJwEfjd8uiGGbik9kfB2fNahmvxTRgRr41Bm3RATcwVUFRvfCuFlU9uUicLFFXsqv1mbbPKzPfbqF0AWcLp/0tpsZ4oq1nKqfh5c4nME3tV0JRcTFWf/IGVFVXIS8vj2c8jo2N4cU/PYc/Pf9sag+eRkcKkAKkACmQ9gowMI3LjR+hfqkT7ATg6YlPKoSKnw345T9MHJi6lYri40tVMJVwLBORZCSrWUDfB0ytc80sJtfMfAN3XcpWRS4b9auf35f2D81knoCa7DQ8MozOo0fx3DNPo2Xblsk8bZobKUAKkAKkQIoo8PHrP+WAQAmJrsuQ8p2aC10tC6VQJQdQD8tkQjLyjb5tpaK08RjDj6uGaehgKoGQ3xO61VQmLAW0mEYDpg4QNeJO1RWgBIQq8ahqApSx07TSBnDnE5imyJNPwyAFSAFSgBQgBVJQAQmmsbjxOaB5xJdacGsvYq8nPskapmr/kiVjqWGaIROpApaKkuNU/1UvU6gWUx1ApZvcF0wnIDPfHI/LClDxxpkSmKbgW4CGRAqQAqQAKUAKpIgC8YCpiDcNFl+qg6q5jGiSM/L5OCT5yphZ41qoECovT0LBVFoj4wFTea5eO1R8bvUQ7wpQKqzaLaRCKh4qYFhMZd9ucaa/vI9c+Sny7NMwSAFSgBQgBUiBlFPgbz71KT4mAWAKZEpDpxEPGrh+qQF9erKS43fXFZ8ENtrjS+VnSlhAvIlPkxFMBQy6lYwScBoTmBqEGTQByj4G9+VJCUxT7h1AAyIFSAFSgBQgBVJGgUhgaluGVDCimbgkLaaWe97KWooNTCUYC3msNia+VJQD3mNJfhLgpjjwUzAzX45RjTPVFwKwFdoX3GuBb4Q4UwLTlHn2aSCkAClACpACpEDKKcDANIz4UoNZ7a79gIlPDuibgIx8FYTVixTIla8Cpw08lZaSWTLKgks5AHXdel5hn29qoX113GYGv2jIOFaBar78qOG6N8DU7JPANOUechoQKUAKkAKkACmQLgoEAVPVjS8A1HCre8SXSsiLtOJT2IlPLAYgzIx8FVYdyVmqxVQFU/1nEw3NFZoSbzG1g7JFjiYcuyxN6gbX/HgFTM1jDDA14dasLqWvQuV055PFNF1eDTROUoAUIAVIAVIg+QpYYOqML43ajS9IzlEM3zW+lGf0uyz1qa34lFo1TAWW8/+3wNTAM8VF72Y11S2SvBU36LN9riwvqoGttHaqhfYTkgBljMc3ztRg3yBlox782c+Sf5dTj6QAKUAKkAKkACmQFgp84tOfNsapAmWAZUhjLKwv0E6sHuVYzSlNEp9SFkwFQwZPgJIWT7cwg0S58wlM0+K9QIMkBUgBUoAUIAUmRIFIYBqWG18YU6Nd8Ymdk3qJT+GBqZs1Mg6LqTiVFz5VsvDlfRV9nKnZnk+cqYRbm+XWp2wUgemEPOfUKSlACpACpAApkBYKCDCNrUyUBZvS6OqydKgEUhmPaha+N0DVTJByy8hPzlKkch76BfNKfIoJTC1oTE5mvuzPbWlSvi/sOFNBqBGz8wlM0+K9QIMkBUgBUoAUIAUmRAEJppZbPUY3vqC7uOJLjSY8qgSYxUu5TmaBfqvoacISnyxwVVax0mNMPcFTuaxhZObb+rHS63kvlvvdso6Kzw1qVJcW5YlN9sx8tzn4lY1yWwXKHIdHdj6B6YQ859QpKUAKkAKkACmQFgr4gWkQN76AxHjrlxqo6ZH45DYOCxYNmZOYkc/7/vnvnh5XVzZSoU7/Wd4JXglQYSxNGhlMBZzqhfaNT+2fGwMOGmcq2wjizn/wZz9NiweDBkkKkAKkAClACpACyVfgE5++gXfK4z+jWO3JPEcOWS0dFUr9Ugmr4az45AXQDsA1OVexjjrCDTJ0MLVDX1RgKg6WTGcV4DfjOqPLzLf6TlycqdmHXjZKyKBArkzEEqoy0CUwTf5DTj2SAqQAKUAKkALpogADU5sbn0OqknDktvyn6rJXwNSZZW+PI5Xud7/6pRYopnB8KZu/3WKammAqYTCUOFMfgI6m2D6Babq8GmicpAApQAqQAqRA8hVwgKmROZ8wN75H/VIBpFYJqWTVL7VA2K69b+JTrGCqWlLDWJrUwGHDHKlaKkVmvr0/cbRjDD5xphbYmhX0xfnq0qo+xfa5Hdisv0oW0+Q/3tQjKUAKkAKkACmQXgpIME20G58DYAz1S01w1Cy3NqBMYHyp1Y/dte9qMfUET+WeiBRnqiYbydOspUOVovyaqz+eQvsScL3qmZrzCrIKlEGuVlt2d/4DP/1Jej0hNFpSgBQgBUgBUoAUSJoCq2+4kfdlJbeH68aXYKe78W1gGXZhfWVCZniBy2f2Mdgldyv+L4/g8bjMla+CqG6NtO+zGo8Eprbz4oozjb7QvuzbbYzRZud7rQJFYJq0Z5s6IgVIAVKAFCAF0k4BG5gqBfA5mClWSvG7fQlRv2x8E0g96pdaUOhWvzTcwvq8ryjA1OnGN1uw4nGdYMqxzkpeUt3dym3hCqaCCJOeAMW7jaaeqTFOMVOlHmsU7nwC07R7R9CASQFSgBQgBUiBpCnAwDQsN74Fm87lRs26o5l2uLWK+4spCyhM7cQnPs5YwVSwnT3Wk888RjA1cFgabLW21dWe5D0VXpypOZcosvMJTJP2bFNHpAApQAqQAqRA2imggmms2fgSKN0sjZYrXVhgvVzkQRKfzHAAE2BlUX8Dak0Tr7dl1w2e9YsWKfEpNDBVITUwmBoQawNcpdC+HXqDJ0BJwI0pzlSCNYdrmSjlvgoUgWnavSNowKQAKUAKkAKkQNIUMME0Fje+oDwX2LQDaKzxpSZEupWsMvpW/jFXgwoScqACasqDqYRGk0k1i6sKgxJYBWC6ganRmtqGyZIu1lQ3C6+SBGWLPVVjYs1EfgNWjX33/4SSn5L2dFNHpAApQAqQAqRAminwyRtF8hMHTMWFLhLoFcujWkBfzlGPOfX63QpW1SDWPb5UuvIjrvjklo1vA1ajfZfPEgamEgylRrayUMaHyUuAEnBqWUHNUfEf9FWgrOx/Z6iB1ypQtnbGjIQrH6spgWmavSFouKQAKUAKkAKkQBIV4GDqYy3lAJepZOrLRCIN9uJ141ugGG58KW83CjD1S3xSYdaMMdVBNEgClAMKLYqNKQGKtycWvncCZxT1TM12DGgNIztfzlXWNCUwTeLTTV2RAqQAKUAKkAJppoAKpmEU1ZfwZostNejQLb7UKlNlrofqDA1QrLcqHIowAiG4FS6Q+PhS3p9MfooXTG3nB0iAEsfHW89UIKgJjazBONz55hx8svPFMWMgME2zNwQNlxQgBUgBUoAUSKICDExtSU8SIjU3vq0eqKBDAYSR/tXc+JZFMjw3flAwdbeG2sUOkvgUEUx1WI3Fna+vDCVQUsJkMDC1xhGeO1+FUAtvnaWjvJKg7v/xj5N4e1NXpAApQAqQAqQAKZBOCnzyppu0WFIxejPe1K12qQGmTguoR5moCNn4FuCG48a3AbMLRKv71WsV1I3vAFM7iLrHZ7rdFI4MeLeVlUTj/PR4wFQdo2jOvWyUvR/3uqz66lTR1DQlME2n1wONlRQgBUgBUoAUSK4CEkxVN36sSU8S+MJ240tQtgFlUDe+C5iqABoUTPVzMn7xyNOaUdPwhUuENGDSDq32ixspCcoJgIrFVAVWl+VJI5eNssMpPz6CO1/OxQ1MbeDrkwT1ix//KLl3OPVGCpACpAApQAqQAmmjwHU33czHqq/0xD8LI+lJUCVvP6gb33M8VkCqMWYhc5D40lDd+Gw+EwGmAiUT786X/USsaWrAsURyvXSUWxkrAtO0eTfQQEkBUoAUIAVIgaQrwMA0zKQnCZWRapeK4wywDGO1J6VBWzysFopgQq+L0oHjS4OAqWA2y4rqFmeqHuO2Fr2tjQl057uN09dq6rMSFIFp0p9x6pAUIAVIAVKAFEgbBUwwdStirxbPlzOKlOwk93vWLjVsnDYolZ9py5X6FNaPlI0vWvRO0tIvUFTxpRJMBbBZTdnh0z0+U+84ruVJlQGY7URVNoo3wIcUbU1THZqDWk1//qP/S5uHgwZKCpACpAApQAqQAslV4PqbbxEdKhAo3PreZZfCT3ryBlNbvKsNNOWwTcIV0zDBWDHJulQPiAymsnyV1abSvXDlhwmmQUBPDjo2d75R/N5c8clqzQ1MBbJqJaWMUwIlbXmUjiIwTe4DTr2RAqQAKUAKkALppIAKpnrSU9ASURIIgyY92QDPBGB7EX8VlFXgdK1dagPWxK32FDWY2mBTc+2rN4kb6DkskAoFxwam/kuUyrFGkwRlzs+jmsC4SxIUgWk6vR5orKQAKUAKkAKkQHIV4GCqu8x9kp4CW0s5xcWY9GScK/7R3fveRfVVgE2kG5/3E8RiGgaY2trwiTM1wVJZDlQ9V8Cv7raXN5t/6aigSVC8PxXAXaymLMbUK942ubc+9UYKkAKkAClACpACqaQAg0yela+srKS78U2HtkdsqQ0GlaVNJZSq+yUBB13tSYKprVRTgDJRJtf6jFm9DtHGl9rAVMCf1Vwy40zNvk33vL3eaaQlSq1xB6tp6gba0ZaOevQ3v8HJEydS6TmgsZACpAApQAqQAqRACihQWlaGK6+9lo/EtEyGXCLKC0zV0lEOK2yApCd1zH7xsDo4u8keTTa+PN+0mEYCUzeY0wcRbT1T3mYcZaPUMUWCUzXO1GsubhUF9NJRcsx/fuUVtGzdmgK3Pw2BFCAFSAFSgBQgBVJJgeaFC3HWuedqKz+lRtKTDZaV+qWObHxBngKuXRKfItUvjcVayvuSrvwwwNQOirLKvVkFlE/Ot9h+jBZT+9iDWU3dIDqa0lFHDnfgyd8/lkrPAY2FFCAFSAFSgBQgBVJAgcs+/BFU10x3gGkyk564rVavNRrAYupVVF8AbeLKRMnLZgPTSHAaaz1T3q7RoxeYmn2HDKcxJUEZg/EqHSXmMw6ymqbA009DIAVIAVKAFCAFUkiBhFlLDTKMaaUnkyr9k57EYT5louICU/8yURaYPrqGFSo1L6lfnKngNf9i+6nszpdAGW0SlDlvl4L7zz35JA7s359CjwQNhRQgBUgBUoAUIAUmQoH6hgZcfNllvOt4S0QJBmStmGZOpwXUzKwXs403vtTsyw1AXT6z92kpHqsbn5es+kXIYKrCq2/MpjiQzyKsOFOryWDufC/QjibWlJmC//wqxZtOxAuA+iQFSAFSgBQgBVJFAW4pPedc30x8Aaz+7nDd/R4JTGVsaKhgqjTqF19qy+pXLkTCwFQHN46QMS5PKgBUbMl255t9yrBXZR7xxpoaZI0jHR1obWlB+8GD6O4+SaWkUuVNQeMgBUgBUoAUIAUSoACDr5KSUsyoq0NTczOqp0931i01VnqKNrZUQmYkKFUYN25rqYDm5Lrx1fHzS2RaTAW5mZctLHe+reQUc4N7gKmAVmnlVCypmkU1Utko+zSSaDU1qNu+nKoyH1sIhFsNVpexKiRvqyjgiME1RTWh31TazD9zC7+wRXAoIO08Vr0fdCu3448X9T7SXgSOuq/aXOThStUy+ZeM6yvFrY5s0NqykY6LtN8YWFSvOpuOUZ0Z/cHBxh+w3WQOPOCQ6LA0VkA178Q5DS9rTZzNup4e/bCteDqv8UQaf6T9sl234zzP1Saij9I8Tz/O7zwX65ob5KgQYh+fVujdNCi6fW65tWUf+pjlnNTPLTDUzteTg3jCkFBWdYurv5vTVdzsokapcZ5auD5AVrubddFtvI5Epgly49u1cN7n8VhLedvclS/ownx2wgJTG7QoYKp/zn9XwVQZjw32xIHGcFWYi63gvhxH1FZTY3zsPC8I5J9ry6Za/aQOnKqXXh+f7TppdW6TAajK5bbe6x6Q5AVi0QBapGMj7bd/+TjwOq7vylRlw+g0iUsCOjmNFAgKVMmeUvRwGWmEkeFTthBJk0j71ZEEcZ/aRh4BRm0QlmAgtQMf/40P1YIuUzHb5/YximN49KVS7shqTYFKXjReLqWZQChVOjfH5QalYiLanO1JQcmEUmU4ntZSc2oOiLevde92r+twr19/2+0m248OTAUqJMKdb7TM5yUWd9LgLQErQYm+7P24fqYsVWqLP41k0Y0Ap1bfYvbufVuvl3gtp17zFddU9GMHDTdtrPHIi2UvCKa14WNBdfbnvO6yN0/MiwJUY4GooOcEPU69mpqSE/JrqgLvhIhBnaaMAuEDZKxTCw6e+heuX4/RQKjbl73fZ3yfh4CxWkd5k+qEPCyk4ji+VqZt+l4xkPo8xHHOzG2bXopVMiYoVbpws0DaraUe0KxbStU2Payl5qwiQKl6HyXTjR8x6Um5r5y62e92p8VUvx/Ua6yc6wemAhiUr1C7L9fgkWDZ+RHd+Upn0bjzVagRfcRnNdUhiVtDLVoTczYk8YRT3ZqbIKupOdYY3PpO3eR1Du7a1+8P44awrMcOwNXNrZaWZu86IXm4+dXrYH8UnH14tq2cGD1Q6vDuGIXrB7H0E6xl/ahwLbWxjYHOIgWSrUB0ABnr6MICykj9+/UT1EUv+3BTJiZ3PWvQx5oaHEh5Q3x4doCxPlf3hQGlouXEW0v1LHzbPMwLYs09KS58RVbb+IzraYK4FlvqGLvLHyNu92LMbnzl/rJc+RpthAWmolmT2Ey40z83ISKFY01VKOJzcikf5Qg1SCU4VSbgbvWODKe26xate1+7x1Q91Re1A+J8INWrDd5eFNZU3/4jfYto+8OE0DDbinIaURxOMByFWFPg0ORAYjxCxgKYXv3F21ak88MAURsERnDV2/HQmHUkIFWgQvvRBp+itdjjScXZ0bnv5TlK164ll2KOK1UEC6s8lD7miYwtNaeXJDc+78905Wtf5N5gKlBA/8J0+wJ1uMkVl7jozgJW+dBHYzV1wlX4VlNznD5jN+fpFW6QZnCq3gpurn3zWnnEJUeMP7UasL3rdbzxAlTbvaNDod+3lY/fOggABjkm6JdlmG0F7VM9bqL7j2XMdM7UUyAStCVakTD7D9KW7zE+8Q1efwrYrY3e7lSFrSxJXfqzWcNcLWzq6Y7AAXNnLPGk6QalfLxmbKsxdTXe1ccCGa8LX+3bNSFLHGAleamBGjHExcoLq9+/4vfo3Pi+YKpxaoDYQ6fVxC1+k1sZjVnobn4DefleNc5UBRHPZKMEufNtEBQUTt2y4VMATlV9VdO163VS4k6dIGi/1vY/EJSvCj0G1+266zeaEjIREaRsYOxutfO15QUIsAwKcEGPS/QXaaqMI9HzpPZJAVWBINCXDMWCjiPQcSGDqA1WFDEcUBsx+Um6xN3jBJ1zc8aMGlwUVTypHbZkMpOYiBqa4A7P9uOsY2LLwNfBL1oXvn4tdItovGBq6WHM28VK7QqmbrBsXSyb1oly4/PubBZTDRLSyZ1vwVMCraaKPiI/SwlRiCsRSiCjCoCiOf+EKDXpSIYW2NqQLx8N4GzJSm4QbR5vd+2rbYumveOM7WHJxjxsgRwesZoaLLqBpSd8xQuqLnq5fZnFCn+xnpeML1TqgxQgBfwVCASTLk1EPC9AplcsFlE5FFeA0McZwTrKYSGChVSHLbckJmtMokX9HB2oZL9ull+pSSKgVB2XKU2aJDzZNFUSxeyfB7OWmlcpiW583mdsYCqgJCZ3vqCbqK2mNqtcimTo20AtpHhTG1iGCaeG7rL9aOBUOVXgqMPSGBBQ1TFEgtQAgOo+FuWNGwBUxZ0cYAtgXVVbSRSEJqrdAArQIaRA2ioQEQ5jnFnU7cYBoQ7w87OoBszK90tmklBo0KNNIb15uw5BXLcxQKlqzTNGEy6UmhjmLF0VA5RarUUuD6Ve20RZSyOCaYjWUquvIPeCS1Ld/Y8+Y68wqgNBgrPzdbgzkNd8CFSXfqRYTqut5FlN9fFHGmM09U0tjgvJcqqCoYeFV52PW3xppNhjeeGcf7Rob/6gbn5lzDbw8/gi8QW3gKBqziHIl1WUwKo3mWqgmWrjCXIJ6Jj0VyBqwEvwlOMeT5wAKqfnFyOqSuA1XldLa4zWUQEbduFjBVIbiKmN+lj4TE1ChFIbrHnVU00jKLXDpxDKLxNf3a/XVhX77BddDznwugfVUAm3e9lxC9r+6MhAhgNMNRBIlDufd2OMOGisaUKspspAbHVCNcugIw7TYyUrLzAVsioubfmzw5Vuh1DrcsQHp6re9sUUnIsEqGPVf7bCC6xbMi4LqnK/+dZD1e5L/XvJy+oZFFSd83T/5gtkXXU7NU6AdR+N96cEmNEqRsenowJxA2S0kw4AnG5NBqlT4JhLGBZROznYhuZIVHFx1VtQYZ9VGEAqmEdRRoFSP9e97TwlmYh/HkVJKHv/dguur/tedMS3iLGleiJRwIQndWw65Mkm7HGymgVaG59TM/v41b84TPjULr4tdjdSYpwloHnj2M9X7ic9ppmpysCUfynbs2HMsyJZyMJw59ugQLOkWeGOGph5uPOttlLXamrqHTKcqtfRLeZU7De2mONOzQb4D5HuD/V1FqoVVe9c6cgPHiMCmwtARjwnYN/2V3uUvyUZbKMcHR1OCqSHAjGCZaTJBQFP63ve5egI4/IDcM++vdz5LiAgKEt3u9pn7RxDEDet3zEmPVnwopaCUsaktuLmvrcXhxfNOa17Vlylut9z5SnFUmo7PiiUquP3idG0QNDSw23s6iVyg9KIY7SNx9BI+2PEBo/aPRHUWmqNI8j9oVlkpdU6Epj6w4ebdc+JBTZLp5owpH6hK5/LjwOVjuIDFGfYrZr+YOo4XrbhlXDkaF9ZpcgYcKzJUKrGllaxWU6FHMq5JvwqcaDq+0bbr1c9UHXSfzZUN7S3GvWzoLq14QxZVcdqv5+isYBa95E6YefPgcDTEeISs+1U6OU/pOSfk7+7AAAgAElEQVTtJeBNntbUU3AFEgSQwQcgv7ijPcN+fDRWUHlmJCtwtCDK2vW0joqdtkH7u+v5Cdrx1u/WuQGAVGnKzd1s6qH0ljQoNXRxjkveF4qFUreKWheS/+QGdPpn/nGlllDRWEvFWbolNcWSnrT7zxxvfGAqvmJdwVO5mTz3x5AExXv0iI909jPxVlNDIaGGDtBKCSkxL+Mwy0wsTrNZN62GnOEFluhucGrXznaBzF9Ym5ESo/QxqZOLxoLq1o4XpOpufjngWEBVuRSKCPYfA8GqetE8WgrcjudIotuRMsAb3bDpaFIgLgWisVjG1ZFxciR49FoSVO87Uju+84rJ1S+tctHCKBt5fEDKWzDJylLCVjBfHGTulD/prn2HlVEZXtyWUmMMkaDUnE/CwVTCpZAlZmupnJfu5ncLL9Cvg8sx6r3sdPMHuVfMh0m53sZcXcFU+8LVYcH+ZRud1VSPJ1W/SFWLowkeQVaCUkgjmNXUOsF2fKKtpm7jDBtO1T5cLKfi0rpYTwO49vVz3X53i0H1O868zg6LpPYKt43ZG79iBVVFNt/vrbhAMwbrZFz9+c6EdpICU1eBSEDoqkwcVtwg/UWE6xhAVPCa0nKI1lE7u3iDiB2m7HzrBaWurnsTrAx40eJJ1X7s8GZdTWe8ph36DPJzsTQqbahWyCRBqap1kNhS9brbrcxiHm73RBhufF1fx7XXDfQeYSVmjKn4Yla+8H1AIR4wtUGKafkUYunQqo6JH6rBk23MtqGrsBzMamr2P0nh1JqfAqWa/sZFsF0LN+upfET9LeVSd/sr3h20/N31rjyn358+zvF4YFXcY9FvSQHKGEDXayZJGW/0MtIZU0yBIAAXWJI4QDJoH7GMNyKAqhTiMhC/Pm3A4dFOtK56f7gI6LIXNGRuQVz3XlZSG1jZmFtzW/N4VaVPLSHHsqwqIvtk4Kv98nMTBKV2vSNbS+06ibk49DXuBctg7bScW1ZoQw+fuFj1tnRaS+0X275fu6Ft1nHFUi4tpuILWPsKdriQRaNeMYQO17I2Btf99mJVUS9Tahu3T6ypOm5rWjq0jlvudp9YU3tbZqdCG2POqvXXEXqgHGjb56K3pbULUPKPfCzWGmSb43YBfHXsnln78no6bpNIcaDOQv1+95F62+j3mi+LhWFVNecYHEeDH6k9EB6/EiQG04mOIgXCUCAWuPTrNxB4ygYCwHNgEPW1qNpH7N6mv9WT4wY/JArrqPNw+1r3VqO2VqOBUi8wcsZjWoOZCCgVU7XDc2w1S8U8HCELuoveFjoRW2yp25j1e98tdEI9xhNMPaylvM9YwNQJFdG5823nT6jV1Al2HArCtJqKyTrjYhMAp6quFhhbt4heDstc097NtW+M2+I04xrbrOr2W9QJkTqyuVtRnfeTIo7ShRewhQGr7mNw+foJwUoZNsjG+uVMAByrcnReMhQIGxhjHXNUoOnVSZwAaqCI1XoUECpPig9GLajzas/Rvp+FVBCPOR9X170XxClDcUKRoZRpELS1zPsLC0ptbVmiaH0oc4wBSlWZfF34qibxLj+qdOoO/ept6Jxf5BW/jPODgqnAgVjc+caZHpY49VlNttXUAg5/l74KJqkNp/9/e+eyJbtum+G13/81HCfDxPHMifNozmpRInH5caOoqupu7tE5VSQIgCzxawCkmq+5vuMzZcfl/AXRUyZbRdf5E9lP81MbeD86xvgGo9xdUB2uiVFxCuIWQKz2jv9JbElV4m6/PfD5HlgCj1UzE7ApRWZgW6XjKZ0AHS017LGykVFCO2RcF1bERMCUMrEnU0vatOjhwK5JHkoRHDKDyjWlzYSr1vWUJcETHSrqfYY9lh102hGUUh3kvar8u+ejpWM8r7RDLF4jjX/IohHThgu5dL4GiBtR0yYsf+H+2Z7q4J0kb1BhpcKb1dKet8Mps7FNqFfb65YnXOuB/s0hbb4i14noqen34cq+AuMoKvW/fupaZSO6JSoxGa1CRgQNrJsAqmOj9unPQsXTknbD7YHtgcsDE1CZcV4GPLsKIiV+fB7o5X3tj70ORpuaikCZeyIgPWSQHl1eIkpKx6fARt0nP+d9zoEFJA4dhmLoAn0mS6wnBJmZ9D33qVVX2rxmpfDPb89lxGtI07WlAKbhfIs14Pkb/uScaOkx3l/+8x//YtEtB0y/OtB9EkFDHCmT942eak/WmjadRJqZBX0pdCIAvdwmo5B2Sp+Oyca/nBOUJ2RqTg+55MT+EE3/cLDsietOu/zu/i97Nby3duKfPHgkr5gCnVDEEUchK+l+PndSTTlPgRmoe/uscNDKFsK/mYrAZoW/qt2G5ld5+nuO8xD8vdIZFdC09MocSEJ9V0HoAAMdVx5joO8Sn4EIqYZWAcXEWNbWeovTV3uQmudRxCE0C6V0Xp6G0sOEVLSUQyntB6GU+iabwm9CD4ex6Df5nOlrLEQdOZ+LljYTeFRbgWljilw6X2/8r4madlaAUb6esz6ZQsKWldJvllObslFT1YfAzDU6A5FkzWmfi27n+PHJQ1H8DwJti5qrRPRU9skAqlo/Q5Wu/ApI1WtPPtpr6X/Vu5ITDwCtEnmVeqz6/x8BwqucseV8Ww+sAMW7xsNUOxVaAPJs02xanquBCxyegFEJOYceKio2tJNASvujtzhJ+Vko5fB0jh+80ekYC1wJxXUcstjn0uYH6kqZL3pFAKj1PECf+By8cpaVI7wqWirWhvw9fekUg2kjAPZb/hZRUwJEvK41TulT6MnCqVU7S7nsaTjletOR5SX9jEqPuaXwNA5O6T80uNRzWYAIqpR5DqL2hFWQSm3HG09Mmhl4WxIkvCHkEyAX+3d/uj3wuR4IYdJTPUuPjoyMiBx029W0Xv/bMNpojf3LpOtBN3LJPora2bWkDMgOTUjtJHMwkHvp/gCUUr10FDEbKR2e6ml3YVMphX/Cn0rhn59LXx7uAWBqramnoqWXXgeYok39J0VNObCNelMdZRzYpUoSeiAWRFU7nwGQE2l95msSOWUgh0oRkhfxc1uv5wiCcQ2nTIerRMKATi25O4E9vGDZgtE5D6ljnpq99o4Qw2YMrOj34exBwv5sywfb3QDhB7XaorcH5jyQobw5yelesyrk4PPYnl1dchBqy0H9dQpeq3AbRi+RibT9oT1IOY932zdhXG8OpZztjuv8dR8r6milu9ug3TlP1JVyu0BdKZlaXJLwfaOlh2kpMAW7/8qoKdv4rfpMdihH1CEuSOlzE+2UfkOiT4XTpp0EqeYeDaeyHb8JSrRfBKjUf+yxB/iwBqrSRvu5HsPq1TcHrb31gwD4oOj0Zrwbbg98dw/MAmXG7jx0djrLiNUHjUgvbk8tmgr1BSIg+HQT7PpRDY0N6HhdI8s1K9jTMvxL82n7j4PSEyY1yObqSpkvghR+a9vc6b3lqXsfQfiLa0vZ3K0AUwU4X+hmHKShv0SzzcqDUIRXdLr9Xr0ptRvZIlP3HJ1Ier0aOW0DH67EfyBYcCrhDUV4xwzB9L4cFLxwIVuL2rRBRKqf1xZM+pBpl6BYO8JT0Hp/vNQethttD2wPLPBAHTKtQf3I59UrM57mhBqIasg7R38BjCI7o1pSHAkdfpaHnKx6UgpnvLZVg9vx/cJIKQPDQ7SM2NLI66lPn2gZ/QVlDg8deDLXCjyND+pbr6Ul15aqOxZ/2Fz++ct//aOzgdyUvaujAJ+o64ym4TQ41S6B5mieiJpqkPTqTQfEMaA1UvpUth7nnKUgrc/6gYvsmT/BiX2ugxUhHXZZOh/asky/BLzLCcbnl7noWQ1Cf5V0/yXSA8jVsJoZM94La9HXWN6zLfKA/qweW/rP9kAGyD7LAznQRDpXbF0BoR5cwJuqEORchoDomWYOWYQK0uYqgjc8heozT1QzXi16WHg0WXLIqQnS8oAPvPQ91SfzZicyrCpLgKUMQbS0dODJsnkiWirXtxKRhNKvKf3zKjCVEIQ2e3U4iPy65YGcxk7rUvpUv8FORm2mAacK7AEsd4B2bIOg1lmQ6BTWnQ7C9Opp5dzweRiKyj9U0JyY84ye1A6k0vllXSfrSWPQwoJnUujxWCu22u8Fuiss3jK2B+oemAfJ7FgV4HQ47/zqTm2p07caFaW0RByBRtC1qeuAVKoho6QMAqly1UNON6GU63HaT14KMFMrC0F9UQr/0Fc41/7DoC0ADZ5fEtZHSweYDn4RUU//wv0GIQRc2C6O0snW5g+iezeipgwyo8hjC7d2I0Z09PrIsOMpOD2d6sGpso+VTTS9ORx50VMy+aKfBaitx1wUlY9GnngzkMqnSO0jESBG33OB68DV2/BqOnmS9nfbA9sDWQ/MwKUn265lzYNypJP5vcunNkic9KHMWgajnYY06OTT9lzIAD6iNoFSlLpvEgg8g4NMbJTEaXUJnihSeshUaXrtC3pfKetDJgIf4ioeeGrCz2kP1kXxQv070dJDrSNiSmjhHel8ClKzUdMmo57SH2MjAOXko2pUi3BK7WSX2Z/DKNvBgS9+xew1dTy1Hv2xwPToLrPgVQCZ+t8coMoxuWfBI/4BULV0QBvMHCDGUcyZCGx2c31VuznfvEq7Pc6neSACrE/TF+mTOzSVh85rjKxv3HaLQZSj3/AG1AGemhcHboDAO2l7DnjkgPyly8TJeyqTuTMBbh6UMrkGlHJ7xOEwnpdvEImilNadpU1460cBm3yOddS/Aj1nz0RLD30iMD028+m3Qd2MmjaScF9VSvXrm/5UvWmTJOFFpvVRvSnXQcvQMjlIjpFFpNM6FEU6WHWnp+uUPfbp/GshzgEqWidWql/6g/4EINo5NKfs17+n9knMjCpbYIny9Pf64O8SitWFlnr8BFguGbwbf7QHchD4tAl1yEQaZcHz2Iwzht+B0EvBRL3oaIpqABKp+i6Ae8UD0uaD0R5FUamfmBmF1H2XgSKhVN07UHoMYh92wnZyv6JorwWl1HfoFD7zm3B0lMKXa9Mrp5BzeLgzqC1l8q9ShQ6mZPN+Mmrqbeq8DnLAG926ZVSxqU1hitcXpFPig2oPX+qU/nDQ03DKfLQITrXf59L7cP6yUdTWGe4oKApnIlsSVOXawAPDT9M6Znt/7yjj++E56+fd7jt4YA30vcPSFDwaipX6Bi5Cb8sx/WEdZAEd7PIAJzqmb95nknFt4tXkgrHRJQJSxTo3oFRFEbtacYrbjJQeCi46gX/KGt4CfxQU3vDUxSWge7iCL8Zm93PR0kPHDJjCDV7AQZQ+htApfhhmm8L1UZ19WN2lSHkPxgTXWmlgqx6GovCmIB/odbjh5ol9NuYF6qD2lLZr7l8IqFzcKV1DDfrjgi4FC+JcPFoJq0yZue3v00D00/SZ8+ru9ds9UIK7FzhrWp8Cm6+AUME3zDNeir5BoFZWvUkLBlYR0AzEarKHKjNA2uxCsEbkyu+t1LZQyIskSiilemAoHTNw2SzthePN1pUSWzIpfGue5eeviJYeYzIwJWBRjZoStmpA8uKDUE31K41+LkovpW/Y2vT+QDg9HQxT14TYMql9PT/EGeoA1PUDN2pJu6v9WlQ6P3K/8FL+WNchYRZWPbnl134+FFDcMClXyv7/7YF1HpiGykiFAnQyoBFyQ/2c1L+nQhQVtb6Hr3UVA/nRUQ1nGohsmE2l7scQuhZz4pATArZ3QinTpwN2WzipFH4T0Nob/qDLELfB0VK4HIM0fpcv11EWTCFYpKOmZ28rWih+kOqQ0QVlpN1sSp/ZYQEdgVMexeWQpiK8V/UBBFs7cmhFEK8e8nuzrhLYQy6p7d6LotvdShhxDSKg4MJ9q74TAWAUTY1Atc2v869QUGlHbheQ6AIR0f64v98e2B646YEiZKLRINBla0ovgZMQisCq6xiAiaW3ytxL+MCEcsLQ8JAG4ATwXFCVjJJ2+5P1pNRfMFIMo61XYaQFe165wuRhpxMwWcS5X09l+JFAaWTnWHZSVvIPBzHW8b/g8tw8mJKdPYyansBIf4wR9HxqSl8CD42croJTBFUWhHMEbv8nI4u9L7gSS9kzmd7HOiPtZJRc6MwWiX58W1HKDKh2bbx0fmV/KsAr8o8cqhyBrej6irYbol/h5d8zxgLYe6ezTGA7lQojnVL5zKGnS7ZjeDhuJkKGb95Xo3rQNhprIGu8IhdAHUiVHC/l7aXum6CuMoqGyrF4avxZKD3GDt7uRNschlj2WhFjqwYZtk/MlfDp5VyzJAWVgfzb3/7nXyoyZEQSj014+oT+2VtFWf3DMCpaSH4idqTxPYehOqQ4kVMEMhDWabTSsbkSPWXzV6w/xXrT51Ux1X91NaAnBapNKXePyqbDS+xVBFepYFanFZvvt4fiFU7YMn6cByI4XGlwCHzRYIvAkw4T6pSKYuIoVoMbbFQ2VY/Y5FVA2kEySt1bEOf4bgZKqS9kjSYE4QV1pd0H5zQeIhMA3iES+mBdtJStBVAO8geCaSOY49+3iZoSSFGn9Ol3DPgogY8fIo9ievWmw1GVtD6GPHwIKXPfKZXHQESWfUrb06UYmfS9TZoIxEw4K4JqH1XC4iJgta2KdiPy/U2QLYz0SNNXgvQjBmyhH+WBEKo+SlugTAE0Ze9qsDj0VRJAO3CYxImdnouMHtRzCJCuwfrno27weqRhTFdaRRUnUvdNfw++iN7grU68P7WxqclljxS+BWmZq6Ga56+obS2Fj+ztrn1ntPTrloEvMEWghC5yH5s0oIdUBO4YScOusXF7kUSqgUxxn6P0RdtKRjH4WSC3Ek6pPl4pg/ndQ9HTrlcaUFsP+U/98dKbxG37mrLgzQllRtFACFRJSJyFsVLk9RUbcNLeV6iyx9geWOaBG3C4TAciqAqcCABcvYC9EbS6UeVkRNTXcw5GJRDpzP6X5jYg0q8UvBWipFqPGEr5ASO/prTJXwilp0BYV0oG41HdcwZRej+Rwh8+SkZL0TpNziWdDxtMCYPAiNd0Sr9t3RpmfIh5KqUvIRZFimm9KdWd7/narqMfC8qi6GvS7iScSt9G4N3B8EvREqBqSMWR0TECevBaAOiCYUB/EbCi9XcuytKeNQuv2UE+DnKziu922wPfwAOzMJk1LQJHJWcCPo/N3IqCdqq0NbZ0tHXHMCoh78QxYKKOJPZG4j5SJROkuFmbApRGJ9JRin01lHLdh6vMKHHi7U7SZ1YKH8+XFzHOR7nppFcOPFGdOpjam3UbpprS15lVFuNUMjOA8lPhFPrXiPCi1L7qLy7lP75PHJBi7YwIuLlOxB8qPqS2kax/mbUA+yZILgOtl+w7EVdv83oaaL2x93fbA9sDNQ+UAROJn4TOS1QIn8eu7ttVh1AuFAXYvLrRrrtKjxM9r0heMqoGI6kFIFXgVk3dny7BYJtP3zM9IuBujfmdryxs/J4U/qnWmMxKtBQdeKLzeKXyzc3YqDVVsNOIhf0y7BP6Z+/iQSgGRWdfmNIXumTeDKXsAXbfipwSFuP6GLWlUVQZ2M/8c/qAlQeoKPeYLvMPD2dO1XhdnFwHmBhRxBk9Wj2QS0FeAlj7+s+8u5QoGY7/g1Lpoa21/X63/mUeWAJ4n+KzoJSgamsKPDvpxU7wxvd1cyKa57C3YZQQTTZl33hQAJgBpCc7Nm29NlUoBWl5eZiJDmnVlLY2l7Axl8sjpdTPjh/6snr4wJNlN/v8WmMhmFKgApusd0q/GjW1QCeqvSzXm57Q1mEEHYiiKXgVvURpe/qwMNL6xJftP512BvzIqPEAqtEBtckCqpwDdA+qcF8fGINLpc5UPnDrUVU2C1kofBBclUVZneK9J9/iHWPmtdsttwdqHnhDfWkVNKVBq8ETbebIiVkIJQyjxEQHmCywgTJBhFTJl6e00esvF0ZJpS97Gp8Xsx5mZiOlvO29u0qlH9FF+l5dqa33mGr70BeOxqq5lVBbuLMUrWWWyu+Qo4jSgJ4F10cpEKochDoJaSpqKujqgqoo5T3gKwen0L6g7lT2Cf9/Rf3pMQh/JpkwG0RRkb5NshU59QCU6hQTZDaql23nqI32AfVZpXQgJfCNjUo+e6Oee+jP9MBduPskq0qgKRUvFLdmfZZrF0dDESQQfFFTgMZFh5mujtlT9ocei4EUApAJuCy/7rwlCftURlJRzSo6xMX82Q8s0Rmger0uhS99582xnDvld/mHByoBkBFTEyo+NaV/AuYUnN46qc9Bq4MtYyecps8cirLmIYoeI/yLIqitD6Nl9gBy64unIXUFqF5qxsBqrmtjt5uCsJwaL99ffxIcv9x5e8CP88AtKHzSmgJwdlArRH9z8NmwQLGwo1t00EnLSsinwOfVjwp17UvYncgdVdACzaDGl0cc56FUpu8plHHoxLApwZSqjSKlChjbB104jvDyGcXR0uQpfDEeglKmY1Bb2n8Xf/3b/34dlVELGR/8aM3gwRbnlH41pZ85/AJhi1hhp7wpLN69RorDVRlOBZtla0/lHGTS+2rerhpVCZYOoKK550Br1xjTBWZD393UPdp18rRYhdFq+yV7Yt6cJcNtIdsDP8IDE9B41+48SLaRau0TcAgMqKT2OyQY8JyNjJq2GYd+OMi8D0il3gg6KZd9BJQKUKyCKa6ZlZBKFtbiFP4Ftn++wLTxUeLAilF3ifpXD0K5sGUA54ZTHJE9/3roXpMsU46gCoBGgKrWQCKSeinoA55PYhU4xFUiedKrjAURedd63t3rd//tgbd5oAaOWs1a/znwjGByaGWTuqdnBUYhkDr1o3eB1AfJZrkFavIqqA2lZKWwCKxY1wGYWlFia532FyVYYGrBh/VGqAhO/ajpIB8zVZ2E0wyESV0P3R5I6zcf0om8l9o3gdDQvQSop7Ju2r6TpH7oVtL9A0jxHnMHVJm3iyB4F1ylNXdB9m078B54e2B7IPRADTSluHvgCaHP1bgOomaVQSVNfyiqFYuufUL2MTHJE/UmAFk2/LHhlRrCUuxMl6ZltqZU2TlxLVR38Y0UPoqUwjmgk/BQtPQY9wJTCWsDHkBEKVtvWr5qiL8VytvYvVrLTL3pSjgdwGiBZxJOm1L9XyW1P3Ro3ZXvjANSXttXQmrTw36y5iHvuQioz7n5ccMdb3GDvO8WD7zFbQ884IF7QPiAQkykB4C1sWt25moVStFQqu5TMNroh3tQAQ/5ugikEq68WlKvbRZKzdS5UbaQrikVfuJ21OtKsa3BPMgl5qwJJj9bV0oPuz0KpoA26OauN8y2ud+Kmp5jfkc47bYbcJrxjYJJHaom4MsflBbMpmqKD+X0gzfV1yG+KOhZh648QNZlD/sjvR0Er+1eu/X2wPbAAg/kwE4OVDi7pHR8AjyvQSLZrt6VSBiDVz0N/pt/1gCphCzkA3XAR1wFhQ8AdUndMC9S+glQ6sP1mB+s65sPPFlg2tji3kEo715TwKngIBWPmkoYo0vfi5pKTsochur6Tab1h6527Wc6tS8MsKKnln+eAFRzLEikOUi9WnmHqKSkCvTV4TIPrt7aXLBT3hZR8dPtwbaA7YEXe+AOFD6tagSGCOEqOlXkh34KIl8u7CbS9AocF0VIM0CqQC19N+nREwKpHje+p7RJMw5yifS9bGuesh8TQ/S0D4tZ89jW0ny0VOlrvEDAW0eqtINGTBsL1cAUbc734DQfNZVjrzgM1WTO15wOnezDZLNwKucnhM/o7VHd2PFIdGt0RftUNLQpDf+5pRrOLQ/eA7wKY0+Dq6VrfdzKtrXbbg9sD6zwQAUA/fFqEdnquCF8AohBQEFtMHV4GkYb+TF3+hHN1tRroyK3p3j71DqGUu2T7wWl0k/lU/hobpKvk70FpjNwGtYiTtSautApngCfGznlVMb1pEZ4EHsV9FJ4TLR3fCR9ezRV10ZxARCkvENXxh85bSz7EV6C1UtMgUYLTU+31CKo2rK7/Vdsr1vG9sD2wFoP1EBTjv0YeAJw6ECATiGdX7r6GKa6aXpDD51SF56ZAFIbtprs2on71qP7jNaGOoecpA7o8nzd5gtquf3pu0qFf23AFvLhAanoj4Bgjiwwnagt7X6XEdPGDe+Omp5aKKDFm7wbOTxlZGpO9ZVZKyKnnMS0rnTSvRKAzwDUwxpEd7OQepk/Cavce7DItbQfVcGVjX+nc0nLO403KN/x3u77Lg/cA8FXaF2FTapTOuKJiOn8LPvigRkI7cN6r5oUsDRU1XOnPnkDkCpQLKTuZV9+iGnM7KvT99omogv08UNQeiiif3Vo7cE/cLJgagNJGzyMmrZGTFN9Lofho5LrRtM8iC3A6aEmAfN0Wr917P9wFBeDp5Xal37tMgVbeHfQWj7LlAFEUVRzTZC5noqAXl4MGKqSDjfffjQBkxNdlu6LFbuXDryFbQ98Qw/cAcYV5pah0wC8ttfnAT20OxDljdVlG8ZhABHeBH0zKXsXCpGPwrQ9p6jsVVAKAp3o57LT92JtZP1l+8yuSVXTg+brZrTUWtN//vrf//w6baR+f58SNTXhDDwxVkVOK3Aq287Cqeb2RLreAdQUeJ4+DNvC9YEf2TPRVCrJfX1mMdhXBbiV8GptaO+G2hUb7ZaxPfDbPDAFl5aTLJgrQKeCosyEOCAaAa8EKzmcBcFwyMnoKLKZpbCl/24AqR6rCauevNfwytP3uvYVg2L/FKbi22x4f4hUT+EL/r0GYNNuvj620ab6l42WftU3lMBUQmIf+coyZwC3FDU9sS+Z0pf6KTBZGDlVYxmv8sTQlz0Y1ey//pkAWQBUcw4zB6VaZ/gIRJ+6YBik/ukg6Xe9Pwyu52rMbAH+paw5CR/TasP0x0zFj1BkKeS92yNJYyLwQ2aEEU/ZKRlMjXSJIPQaNhUVHY1DUDHhNoisZg42aXCTKeyhXnTAScmidajWyfvWidWU3oFSqUMWSke/tSl8pk8SSo8+mGBPMDWAIx01JfwUpvQRvCFGx+wAAAvPSURBVEqwYm3al2FUjyx78zAUsTNTcypBpKtlQBW/8oj/DiupfT0dNsgy3xRS/MinDAazfwzcjabyQZnTMhHPNLSSNVrdyzJ6ZGWW9M0KzbTbdJnx0m7z6R5IguBqMyKYq4xXBs5LeBI8zQ1fKKn0CHx7JyraTQiipVTFKE09B6TNO0Mf7hQ+ZhAl5aLc66COpgbAHhoYkVAUKW3N7RR8zoeFFL5UHgDlKO3Av4RKtPQY7kjlH5u2FQmrHYRCm/i966MGUXw7OBUwtDJ62qbMANYHARWN25diIZp69QmhLwvI4PcwBYHFqKu1IYV2VXayN7ed8uObdd7Df64HVkLeu62chkypeAE6O1QVUv+rIFSwmKQ6OB0QShwIfgWQKlDUBZXu9VO6asAAvVPup0KphFzAoPrqLu8AXDJaaj4DLn91MDXg1NqUcC1hW5dh1BSM5R+EegOcCh3VgSj5vQQoI7Uv/TN8NZfevwOobl8EehZ4WtE4J0rn8V8K6qq6rAJXKmcRxK7eXFP+Wz3olrc98CYPLIPD1fpPwCZVoQLwpg8SEWY3Dez5pHDwCQEQszURSV0RIc0AqdRVQ/3Q3K+zvCKuRnvH5ldESmeg9Ojz0IEnFjWOwLQhYS1qmoLTckr/s+C0c6kT0dOR4rFA7eivV1MqnxJzKX40p5Vo9KWFBUAmGAXp5IjzSsAF11c0gv0UflnUcF7F1dvqlrc98Hs8cBMis46qwKaUCQEyAZ6XnAjgQxcsBFFLJxUthTWIrXcUWdVvM+IejdL2aozsqfuTfqW7rDtKFQgP5zCFV6bvU1B62kGVeOzAkxhrpPIHbajf2IqoKQTcSTitQtStmtNOoM0t8K5T2ebB6KkY6pyrdYDa5Pvy0EPYg8bsISgoN/nEvwutdJiSrKx+3lsFkjI+stkG6Y+clrcrFVLO2zWcUuAOWFoDRsCobmF3NA9lnX3D6Smk2hm4JEA5BkrrUEwbKe5vH2xC/S+AdcHPqQ9Fh8XeBaW2f4qHnQQoHv+7IIVvyVFv+mIRU0w9EMgQwJwN+zr9lJS+1FWBBzitr+xzYBMdilJjqldsjp9zJnqK/K25PgbKPhYACu8+1Cq4TYOqswaZDsVtZRo2k4eGpuUX7Xiy+cuiwk8asWV/Ww88AX2vdkYWDCuwWQU/1j7jgMlDTxjy9IDZ0/b4hHaTl6tTvQ+kaqxilFTyXPbkfQO285+X4i/O1fBbEUwrd5Yy5cf8pw88Saexw0+cPNTqeixqCkDkiXpTDHaEzm7CKTPDOLV/tEnWnnJ9o4ionK4CoDal2L906cbZKwNlS9okIRGYlHk84zdapXo6jQo6e0Nl/HdX1d1/e+CneyANjpEjEpHBSIT8fka3MPJJBylCDdI/o6Nbs5oAHvY6z+CqqKbjA0AqxFZrSVt3SbXOSfjL2c5p+8j3diR5PZQe9l26Jg88QZ80QWqp6VQ+I6wYWDhAkfYn7KANFUKuSh+LsdUGj6+RMvUxIIrpl4FT4Z9Mal/q5NWeIv0zB6TwtOVqgytR1GtWbkVE6TKJ6k6zYJdtd62D6q4B2v8YWCz6boHrtojtAdsDD0DfO9wdgURGpxJ4Gps8GifSLfqeyqyCqA0oTWouOtqkcD24pVqOvv4JjnczSqrsCw52oUhpXK4wbPX99eFQaqxZDKaYcuAhKARSh8tYMFJE8FC93WS9qTV+BZxQal8inZX+76AmbELp/bC0QUYuzVrPagRVTMgFZ14taSLVTx8DFX9HD+Qs8GXbtfU4Xww53zOy1P++ZN+9oXbv7YFf54EKfK10Thk2PfpyFMval213DTUDogrWujAbsPA4ILqmApOyzX0gVQALroGCNmagNGpTrPedTt9bkGidwm8Gq39m6YZxmT5awiUwbXiDt2m4id6MmiKe0OPgyGm0qYcHfDLRU++QE2Wh4DBRJb3PQTyTspfTXoyiYqZtrOcc6FkJqpcF0ZxmQdndZG4AbLR5vQtwI71mv6/Mx+wYu9/39UAVeD7d0ltAGRk3GSWu+LjSlrOwbbkLqdY9q/QgUSpVrwkIuSsbIVWQKcS7aXsCb+4BJwF5KgJ6OfgGlCI7noZSNuZdKDVA+Pj43//+T3t/MTbpV8IpUuGj4BTQcya9fzd6eh9QMXHC0gs6CQ5dzYLqDHjehdAlUPUgxEb72BPf/zRwfsJHW+ZzHngU/J5T25Y8CZtZKLQGfgJAB0c5kOpd+L8ARi2OWQWkjU+d1PfKKCkwppK+vwOl0I+Z2t+VdaUelP45wRSw1VjzG04PXzyR2udw2VxerT99ClCRbhAgJ0HVk38XOuUD+w6E3ul7ey/8YeB72x9bwPbASg8sAMdZdWbhEQHJjA6Z8aM27i0KAYj6dsTpetwfp+xhW6eOFLe/ZHNvewecIDxe3d8UKf0OUHro+BUxfRWYWjAycxgKy5o7EAUBUV8NcIIjX5grak/h+M71UqYfR2GrelbhSCh6pOVS/SY83gDVLKxW2lUe2k9B6FNyK7Y91nbD82Ou/daC3wh9T/stArbZ8Z+Qm5WZaXcXRAeToajrLIweGHOITh2a+mFAyu32DzotgdLhbrbMS3WlUJEmrh/0v8D04+A0cRjq18HpYXAAxuyC/Hw9MOaLfP8ZUL36ZO7PrMJdtX1lM3lSdkWPFW1/ki0r/LFlfIYHMqD0GZrGWjxpS1V2pn3qPtlERNQHUUw4udrRLnkaSNvoAch9eOr+NpQCQHQv0X8RlB7DpMDUodZV9aaNuRR1qV/9nZpTDLI+6FkRUYRsL4ueAkBFtnF98pHQCqR2uHQiZ9ov8cM8A6uZsa2RPh3IPl2/eAZ3i+2Bz/dABtTeacWMfpU+VQjlMKQ9E4+di4za44z+qZpMdEDnRUDKOG5x6v5VUMrGefCwk2RkBqYOf7rX7ayC00xK39IxeyAqA6cx5I0j99XaUwTg6GopS8+oBtXsx8DxLqQaZEyeUxFYebc4eBtBBVjvgCvVIbLlnRvXJ4y9/fMJs/A5OsRw8jm6vkOTu/6Z6T8DoBGEZr6H9wnhO9WPqcC22TBq9glS9rBfNkIqKQq9JvVaWDeB1LIve/oeqNo0e8dhJ1MZrc6f//j7//3LPEUuf7VeVAxcHWRuWA9cI4WBbABYeD0UeEKFfYwrpaAuk1dLrQZULq+Wqo/LCe0C0yy8zERX1TKdfC99VsfZzexp+bN67X7bA9sDsQdmgDCWOlrMyk9Bp1QkvPsTa+7r6N+rYJUd2zLt2tGlQEqAqXIFlAmND0Ip99VETekiKLVtd9aAsQCQzw8wPWCFbOYugHw7OG3WIcDLgEJ4fVIT3OSL3zKOCoq7RxMX819ioS7wZQX6oWLZOpvuHzp5j974AqLMHFhwDp2e3AlmIq+W6KwNSdU+ptlPtetjHPzLFZkFsU9320q7pqDzoIYZsKxCsne/qT9LM5HRLIw281HJAMxFH4pWgRTp0qUHUVLTDuEyu1QhZxvkwAWRUkt//3Bcbq1cMjqYNrCiEUZnYa2AU8IseeBCKegshM2f2Edg5EFnCKjoYNeLANWDvAhSXUA8p+FOVJXOZBWK3PYxH7tP0ZUQ+9SmWvXXU3psudsD7/TASih8yo5p2LwUcoNSftRS2pT311w0tKts3tLgp+ldiEvUj9owm7z+CVCrAsZhpFoyqTrYAEi5DS+E0kb4oU2tWT1SKl1LZZhg2iCkDqcz9aYW8KytOT1GOQxKRUGB6al+N9L7TUMRUaX/C28qALCejKJavtCf+2QXQVEMq2NuMptBNJ4lI+x3E2Aj3b8D4EY27O+3B36rB24DZeS4gCnzEMkHqvWLwTa6CSwe770wClgTg1Um8mlAaerqKrAe/H6fCaUumLqvUxXrlMAtA9MQjKQjF16+/2o4XQmolegpHLcSQTX+YkhHnR0GzKX7Y4gMATD6o4etszlazOjg7ROp/nOqRdvTW7/f8PxW9//awR+Hvnd4NmY847BPXtkYAi1ZCeWcQ0pUaqxDXAvZYNGqP8A2VNP1rwBSZEfsn8wdrL8HSr98+P9IRwqShTWunwAAAABJRU5ErkJggg==;" vertex="1" parent="1">
                    <mxGeometry x="370" y="100" width="242.14" height="240" as="geometry"/>
                </mxCell>
                <mxCell id="10" value="" style="edgeStyle=elbowEdgeStyle;elbow=horizontal;endArrow=classic;html=1;curved=0;rounded=0;endSize=8;startSize=8;fontSize=9;" edge="1" parent="1" source="4" target="9">
                    <mxGeometry width="50" height="50" relative="1" as="geometry">
                        <mxPoint x="420" y="290" as="sourcePoint"/>
                        <mxPoint x="470" y="240" as="targetPoint"/>
                    </mxGeometry>
                </mxCell>
            </root>
        </mxGraphModel>
    </diagram>
</mxfile>